Perun-MediumItalic.ufo
<glyph name="exclam" format="2">
  <advance width="276"/>
  <unicode hex="0021"/>
  <outline>
    <contour>
      <point x="345.667" y="722" type="line"/>
      <point x="240.333" y="722" type="line"/>
      <point x="122.667" y="176.333" type="line"/>
      <point x="210.667" y="176.333" type="line"/>
    </contour>
    <contour>
      <point x="186.667" y="0" type="line"/>
      <point x="210.333" y="101.667" type="line"/>
      <point x="100.333" y="101.667" type="line"/>
      <point x="76.6667" y="0" type="line"/>
    </contour>
  </outline>
</glyph>
<glyph name="numbersign" format="2">
  <advance width="735"/>
  <unicode hex="0023"/>
  <outline>
    <contour>
      <point x="808" y="521.667" type="line"/>
      <point x="679.667" y="521.667" type="line"/>
      <point x="787.333" y="722" type="line"/>
      <point x="704.667" y="722" type="line"/>
      <point x="597" y="521.667" type="line"/>
      <point x="469" y="521.667" type="line"/>
      <point x="577.333" y="722" type="line"/>
      <point x="494" y="722" type="line"/>
      <point x="386.333" y="521.667" type="line"/>
      <point x="259" y="521.667" type="line"/>
      <point x="220" y="449" type="line"/>
      <point x="348.667" y="449" type="line"/>
      <point x="268.667" y="300" type="line"/>
      <point x="140.667" y="300" type="line"/>
      <point x="100.667" y="227.333" type="line"/>
      <point x="229.667" y="227.333" type="line"/>
      <point x="109.333" y="0" type="line"/>
      <point x="192" y="0" type="line"/>
      <point x="312.333" y="227.333" type="line"/>
      <point x="440" y="227.333" type="line"/>
      <point x="320" y="-0.333333" type="line"/>
      <point x="402.667" y="0" type="line"/>
      <point x="522.333" y="227.333" type="line"/>
      <point x="649.667" y="227.333" type="line"/>
      <point x="689.667" y="300" type="line"/>
      <point x="561.333" y="300" type="line"/>
      <point x="641" y="449" type="line"/>
      <point x="769" y="449" type="line"/>
    </contour>
    <contour>
      <point x="559.333" y="449" type="line"/>
      <point x="479.667" y="300" type="line"/>
      <point x="350.667" y="300" type="line"/>
      <point x="431" y="449" type="line"/>
    </contour>
  </outline>
</glyph>
<glyph name="percent" format="2">
  <advance width="951"/>
  <unicode hex="0025"/>
  <outline>
    <contour>
      <point x="214.667" y="-14" type="line"/>
      <point x="313.667" y="-14" type="line"/>
      <point x="912.333" y="736" type="line"/>
      <point x="813.333" y="736" type="line"/>
    </contour>
    <contour>
      <point x="161.667" y="480" type="curve" smooth="yes"/>
      <point x="161.667" y="384.667"/>
      <point x="220.667" y="336"/>
      <point x="308.333" y="336" type="curve" smooth="yes"/>
      <point x="444.667" y="336"/>
      <point x="545.667" y="455.333"/>
      <point x="545.667" y="580.667" type="curve" smooth="yes"/>
      <point x="545.667" y="672"/>
      <point x="491.333" y="727"/>
      <point x="398.333" y="727" type="curve" smooth="yes"/>
      <point x="262" y="727"/>
      <point x="161.667" y="605.333"/>
    </contour>
    <contour>
      <point x="320.333" y="400.667" type="curve" smooth="yes"/>
      <point x="271.333" y="400.667"/>
      <point x="252" y="429.333"/>
      <point x="252" y="479.667" type="curve" smooth="yes"/>
      <point x="252" y="551.667"/>
      <point x="291.667" y="658.667"/>
      <point x="385" y="658.667" type="curve" smooth="yes"/>
      <point x="433.333" y="658.667"/>
      <point x="452.333" y="629.333"/>
      <point x="452.333" y="579" type="curve" smooth="yes"/>
      <point x="452.333" y="506.333"/>
      <point x="414" y="400.667"/>
    </contour>
    <contour>
      <point x="573" y="140" type="curve" smooth="yes"/>
      <point x="573" y="44.6667"/>
      <point x="632" y="-4"/>
      <point x="719.667" y="-4" type="curve" smooth="yes"/>
      <point x="856" y="-4"/>
      <point x="957" y="115.333"/>
      <point x="957" y="240.667" type="curve" smooth="yes"/>
      <point x="957" y="332"/>
      <point x="902.667" y="387"/>
      <point x="809.667" y="387" type="curve" smooth="yes"/>
      <point x="673.333" y="387"/>
      <point x="573" y="265.333"/>
    </contour>
    <contour>
      <point x="731.667" y="60.6667" type="curve" smooth="yes"/>
      <point x="682.667" y="60.6667"/>
      <point x="663.333" y="89.3333"/>
      <point x="663.333" y="139.667" type="curve" smooth="yes"/>
      <point x="663.333" y="211.667"/>
      <point x="703" y="318.667"/>
      <point x="796.333" y="318.667" type="curve" smooth="yes"/>
      <point x="844.667" y="318.667"/>
      <point x="863.667" y="289.333"/>
      <point x="863.667" y="239" type="curve" smooth="yes"/>
      <point x="863.667" y="166.333"/>
      <point x="825.333" y="60.6667"/>
    </contour>
  </outline>
  <guideline angle="0" x="0" y="543"/>
</glyph>
<glyph name="ampersand" format="2">
  <advance width="773"/>
  <unicode hex="0026"/>
  <outline>
    <contour>
      <point x="99" y="155" type="curve" smooth="yes"/>
      <point x="99" y="48.6667"/>
      <point x="187.667" y="-13.6667"/>
      <point x="314.333" y="-13.6667" type="curve" smooth="yes"/>
      <point x="401.333" y="-13.6667"/>
      <point x="498" y="20.6667"/>
      <point x="557.667" y="65" type="curve"/>
      <point x="573.566" y="41.8709"/>
      <point x="596.651" y="14.7911"/>
      <point x="612.667" y="-0.333333" type="curve"/>
      <point x="760.333" y="-0.333333" type="line"/>
      <point x="717" y="43.6667"/>
      <point x="671" y="90.3333"/>
      <point x="640" y="142" type="curve"/>
      <point x="697" y="219"/>
      <point x="737.667" y="315.667"/>
      <point x="759" y="408.667" type="curve"/>
      <point x="643" y="408.667" type="line"/>
      <point x="638" y="344"/>
      <point x="621.333" y="284.333"/>
      <point x="582.667" y="214.333" type="curve"/>
      <point x="531.667" y="277"/>
      <point x="483" y="341.667"/>
      <point x="448.667" y="404.333" type="curve"/>
      <point x="537.667" y="448.667"/>
      <point x="649.667" y="518"/>
      <point x="649.667" y="621" type="curve" smooth="yes"/>
      <point x="649.667" y="704"/>
      <point x="568.667" y="735.667"/>
      <point x="494.333" y="735.667" type="curve" smooth="yes"/>
      <point x="380.333" y="735.667"/>
      <point x="259.667" y="661.667"/>
      <point x="259.667" y="542.333" type="curve" smooth="yes"/>
      <point x="259.667" y="493.333"/>
      <point x="280.667" y="456"/>
      <point x="309" y="418.333" type="curve"/>
      <point x="194.667" y="366.333"/>
      <point x="99" y="290.333"/>
    </contour>
    <contour>
      <point x="407" y="461.667" type="curve"/>
      <point x="382.667" y="499.333"/>
      <point x="370.333" y="531.333"/>
      <point x="370.333" y="559.333" type="curve" smooth="yes"/>
      <point x="370.333" y="619.333"/>
      <point x="424.333" y="652.333"/>
      <point x="475.667" y="652.333" type="curve" smooth="yes"/>
      <point x="514.333" y="652.333"/>
      <point x="548.667" y="628.667"/>
      <point x="548.667" y="593.667" type="curve" smooth="yes"/>
      <point x="548.667" y="533.333"/>
      <point x="454.667" y="483.667"/>
    </contour>
    <contour>
      <point x="214.333" y="184.333" type="curve" smooth="yes"/>
      <point x="214.333" y="251"/>
      <point x="288.333" y="331"/>
      <point x="347.333" y="352.667" type="curve"/>
      <point x="395.667" y="271.333"/>
      <point x="449.333" y="197.333"/>
      <point x="509.667" y="131" type="curve"/>
      <point x="460.667" y="94.3333"/>
      <point x="402.333" y="77"/>
      <point x="336" y="77" type="curve" smooth="yes"/>
      <point x="273.333" y="77"/>
      <point x="214.333" y="124"/>
    </contour>
  </outline>
</glyph>
<glyph name="comma" format="2">
  <advance width="287"/>
  <unicode hex="002C"/>
  <outline>
    <contour>
      <point x="267.667" y="123" type="line"/>
      <point x="142.333" y="123" type="line"/>
      <point x="18.6667" y="-127.667" type="line"/>
      <point x="97" y="-127.667" type="line"/>
    </contour>
  </outline>
</glyph>
<glyph name="period" format="2">
  <advance width="281"/>
  <unicode hex="002E"/>
  <outline>
    <contour>
      <point x="212" y="0" type="line"/>
      <point x="240.667" y="126" type="line"/>
      <point x="126.667" y="126" type="line"/>
      <point x="98" y="0" type="line"/>
    </contour>
  </outline>
</glyph>
<glyph name="one" format="2">
  <advance width="474"/>
  <unicode hex="0031"/>
  <outline>
    <contour>
      <point x="353.333" y="0" type="line"/>
      <point x="520.333" y="722" type="line"/>
      <point x="412" y="722" type="line"/>
      <point x="375.667" y="688.667"/>
      <point x="289" y="634"/>
      <point x="225" y="604.667" type="curve"/>
      <point x="202.667" y="508.333" type="line"/>
      <point x="274.667" y="534.667"/>
      <point x="335.333" y="563.333"/>
      <point x="383.667" y="594.333" type="curve"/>
      <point x="246.333" y="0" type="line"/>
    </contour>
  </outline>
</glyph>
<glyph name="two" format="2">
  <advance width="563"/>
  <unicode hex="0032"/>
  <outline>
    <contour>
      <point x="49.6667" y="0" type="line"/>
      <point x="509.667" y="0" type="line"/>
      <point x="530.333" y="90.3333" type="line"/>
      <point x="195.333" y="90.3333" type="line"/>
      <point x="398.667" y="240" type="line"/>
      <point x="545" y="350"/>
      <point x="639.333" y="447.667"/>
      <point x="639.333" y="578" type="curve" smooth="yes"/>
      <point x="639.333" y="669.667"/>
      <point x="575" y="736"/>
      <point x="455.333" y="736" type="curve" smooth="yes"/>
      <point x="329.333" y="736"/>
      <point x="223.667" y="662.667"/>
      <point x="185" y="525" type="curve"/>
      <point x="301.333" y="525" type="line"/>
      <point x="324.333" y="598"/>
      <point x="369.333" y="644"/>
      <point x="442.333" y="644" type="curve" smooth="yes"/>
      <point x="498" y="644"/>
      <point x="524.667" y="617"/>
      <point x="524.667" y="570.667" type="curve" smooth="yes"/>
      <point x="524.667" y="469"/>
      <point x="446.333" y="396.333"/>
      <point x="347" y="317.333" type="curve"/>
      <point x="73.6667" y="105" type="line"/>
    </contour>
  </outline>
</glyph>
<glyph name="six" format="2">
  <advance width="563"/>
  <unicode hex="0036"/>
  <outline>
    <contour>
      <point x="93.6667" y="166.333" type="curve" smooth="yes"/>
      <point x="93.6667" y="47"/>
      <point x="167.667" y="-12.6667"/>
      <point x="279.333" y="-12.6667" type="curve" smooth="yes"/>
      <point x="455" y="-12.6667"/>
      <point x="582.667" y="132"/>
      <point x="582.667" y="291.333" type="curve" smooth="yes"/>
      <point x="582.667" y="392.333"/>
      <point x="522.333" y="451"/>
      <point x="415" y="451" type="curve" smooth="yes"/>
      <point x="347" y="451"/>
      <point x="286.333" y="413.667"/>
      <point x="238" y="360.667" type="curve"/>
      <point x="266" y="480"/>
      <point x="320.333" y="648.333"/>
      <point x="450" y="648.333" type="curve" smooth="yes"/>
      <point x="495.667" y="648.333"/>
      <point x="520.667" y="615.333"/>
      <point x="520.667" y="572.667" type="curve" smooth="yes"/>
      <point x="520.667" y="564"/>
      <point x="520" y="555.667"/>
      <point x="518" y="546.667" type="curve"/>
      <point x="630" y="546.667" type="line"/>
      <point x="633.333" y="560.333"/>
      <point x="635" y="573"/>
      <point x="635" y="586.667" type="curve" smooth="yes"/>
      <point x="635" y="677.333"/>
      <point x="567.333" y="736.667"/>
      <point x="463" y="736.667" type="curve" smooth="yes"/>
      <point x="208.667" y="736.667"/>
      <point x="93.6667" y="383.667"/>
    </contour>
    <contour>
      <point x="213" y="171.667" type="curve" smooth="yes"/>
      <point x="213" y="259"/>
      <point x="266.667" y="366"/>
      <point x="375.667" y="366" type="curve" smooth="yes"/>
      <point x="437" y="366"/>
      <point x="463.333" y="331.333"/>
      <point x="463.333" y="269.333" type="curve" smooth="yes"/>
      <point x="463.333" y="183"/>
      <point x="411" y="74.6667"/>
      <point x="301.667" y="74.6667" type="curve" smooth="yes"/>
      <point x="241" y="74.6667"/>
      <point x="213" y="108.333"/>
    </contour>
  </outline>
</glyph>
<glyph name="semicolon" format="2">
  <advance width="287"/>
  <unicode hex="003B"/>
  <outline>
    <contour>
      <point x="306.333" y="374" type="line"/>
      <point x="335" y="500" type="line"/>
      <point x="221" y="500" type="line"/>
      <point x="192.333" y="374" type="line"/>
    </contour>
    <contour>
      <point x="268.333" y="126" type="line"/>
      <point x="143" y="126" type="line"/>
      <point x="19.3333" y="-124.667" type="line"/>
      <point x="97.6667" y="-124.667" type="line"/>
    </contour>
  </outline>
</glyph>
<glyph name="equal" format="2">
  <advance width="800"/>
  <unicode hex="003D"/>
  <outline>
    <contour>
      <point x="783" y="360" type="line"/>
      <point x="797" y="422" type="line"/>
      <point x="197" y="422" type="line"/>
      <point x="183" y="360" type="line"/>
    </contour>
    <contour>
      <point x="741" y="178" type="line"/>
      <point x="755" y="240" type="line"/>
      <point x="155" y="240" type="line"/>
      <point x="141" y="178" type="line"/>
    </contour>
  </outline>
</glyph>
<glyph name="greater" format="2">
  <advance width="800"/>
  <unicode hex="003E"/>
  <outline>
    <contour>
      <point x="762" y="269" type="line"/>
      <point x="776" y="331" type="line"/>
      <point x="230" y="561" type="line"/>
      <point x="215" y="499" type="line"/>
      <point x="705" y="300" type="line"/>
      <point x="123" y="101" type="line"/>
      <point x="109" y="39" type="line"/>
    </contour>
  </outline>
</glyph>
<glyph name="C" format="2">
  <advance width="682"/>
  <unicode hex="0043"/>
  <anchor x="338.667" y="-66.6667" name="bottom"/>
  <anchor x="360.667" y="10" name="cedillaC"/>
  <anchor x="540.667" y="800" name="top"/>
  <outline>
    <contour>
      <point x="117" y="218" type="curve"/>
      <point x="119" y="80.3333"/>
      <point x="185.667" y="-12.6667"/>
      <point x="354" y="-12.6667" type="curve" smooth="yes"/>
      <point x="509" y="-12.6667"/>
      <point x="643.667" y="67"/>
      <point x="680" y="211" type="curve"/>
      <point x="559" y="211" type="line"/>
      <point x="533.667" y="125.333"/>
      <point x="474.333" y="80"/>
      <point x="378" y="80" type="curve" smooth="yes"/>
      <point x="269.333" y="80"/>
      <point x="234.333" y="136.333"/>
      <point x="234.333" y="222.333" type="curve" smooth="yes"/>
      <point x="234.333" y="387"/>
      <point x="312.333" y="642"/>
      <point x="512.333" y="642" type="curve" smooth="yes"/>
      <point x="590" y="642"/>
      <point x="634.333" y="617.333"/>
      <point x="634.333" y="555" type="curve" smooth="yes"/>
      <point x="634.333" y="544.667"/>
      <point x="633" y="531.333"/>
      <point x="629.333" y="516.667" type="curve"/>
      <point x="744.667" y="516.667" type="line"/>
      <point x="748.667" y="535.333"/>
      <point x="750.667" y="553.333"/>
      <point x="750.667" y="571" type="curve" smooth="yes"/>
      <point x="750.667" y="681"/>
      <point x="667.333" y="734.667"/>
      <point x="533" y="734.667" type="curve" smooth="yes"/>
      <point x="257.667" y="734.667"/>
      <point x="117" y="458"/>
    </contour>
  </outline>
  <guideline angle="0" x="0" y="-12"/>
  <guideline angle="0" x="0" y="736"/>
</glyph>
<glyph name="D" format="2">
  <advance width="703"/>
  <unicode hex="0044"/>
  <anchor x="429.667" y="800" name="top"/>
  <outline>
    <contour>
      <point x="748.667" y="472" type="curve" smooth="yes"/>
      <point x="748.667" y="636"/>
      <point x="641" y="721.333"/>
      <point x="452.667" y="721.333" type="curve" smooth="yes"/>
      <point x="229.667" y="721.333" type="line"/>
      <point x="63" y="-0.333333" type="line"/>
      <point x="286" y="-0.333333" type="line" smooth="yes"/>
      <point x="550" y="-0.333333"/>
      <point x="748.667" y="198"/>
    </contour>
    <contour>
      <point x="309.333" y="95.6667" type="curve" smooth="yes"/>
      <point x="202.333" y="95.6667" type="line"/>
      <point x="325" y="625" type="line"/>
      <point x="447.333" y="625" type="line" smooth="yes"/>
      <point x="567.667" y="625"/>
      <point x="630" y="564"/>
      <point x="630" y="446.333" type="curve" smooth="yes"/>
      <point x="630" y="253.333"/>
      <point x="496.333" y="95.6667"/>
    </contour>
  </outline>
</glyph>
<glyph name="E" format="2">
  <advance width="592"/>
  <unicode hex="0045"/>
  <anchor x="306.667" y="-60" name="bottom"/>
  <anchor x="460.333" y="800" name="top"/>
  <outline>
    <contour>
      <point x="539.667" y="0" type="line"/>
      <point x="562" y="96.3333" type="line"/>
      <point x="210.667" y="96.3333" type="line"/>
      <point x="263" y="323.667" type="line"/>
      <point x="591" y="323.667" type="line"/>
      <point x="612.667" y="418.333" type="line"/>
      <point x="284.667" y="418.333" type="line"/>
      <point x="333" y="625.667" type="line"/>
      <point x="674.333" y="625.667" type="line"/>
      <point x="696.667" y="722" type="line"/>
      <point x="239.667" y="722" type="line"/>
      <point x="72.6667" y="0" type="line"/>
    </contour>
  </outline>
</glyph>
<glyph name="G" format="2">
  <advance width="748"/>
  <unicode hex="0047"/>
  <anchor x="575.333" y="800" name="top"/>
  <outline>
    <contour>
      <point x="122" y="246" type="curve" smooth="yes"/>
      <point x="122" y="66.6667"/>
      <point x="230.333" y="-12.6667"/>
      <point x="419.333" y="-12.6667" type="curve" smooth="yes"/>
      <point x="514.667" y="-12.6667"/>
      <point x="604.333" y="8.33333"/>
      <point x="689.667" y="35.6667" type="curve"/>
      <point x="771" y="386" type="line"/>
      <point x="501" y="386" type="line"/>
      <point x="478.333" y="288.333" type="line"/>
      <point x="631" y="288.333" type="line"/>
      <point x="589" y="105.333" type="line"/>
      <point x="537.333" y="89.6667"/>
      <point x="484.333" y="80"/>
      <point x="436.333" y="80" type="curve" smooth="yes"/>
      <point x="304" y="80"/>
      <point x="243" y="154"/>
      <point x="243" y="267" type="curve" smooth="yes"/>
      <point x="243" y="453.333"/>
      <point x="351.333" y="642"/>
      <point x="558.333" y="642" type="curve" smooth="yes"/>
      <point x="638.667" y="642"/>
      <point x="694.333" y="601"/>
      <point x="694.333" y="547.333" type="curve" smooth="yes"/>
      <point x="694.333" y="540.333"/>
      <point x="693.333" y="533"/>
      <point x="691.667" y="525.333" type="curve"/>
      <point x="809.333" y="525.333" type="line"/>
      <point x="813" y="542"/>
      <point x="814.667" y="556.667"/>
      <point x="814.667" y="570.333" type="curve" smooth="yes"/>
      <point x="814.667" y="681"/>
      <point x="707.333" y="734.667"/>
      <point x="571" y="734.667" type="curve" smooth="yes"/>
      <point x="304" y="734.667"/>
      <point x="122" y="501"/>
    </contour>
  </outline>
  <guideline angle="0" x="0" y="747"/>
  <guideline angle="0" x="0" y="-14"/>
</glyph>
<glyph name="H" format="2">
  <advance width="703"/>
  <unicode hex="0048"/>
  <anchor x="371.667" y="-65" name="bottom"/>
  <anchor x="511.667" y="800" name="top"/>
  <outline>
    <contour>
      <point x="630.333" y="0" type="line"/>
      <point x="797.333" y="722" type="line"/>
      <point x="681.667" y="722" type="line"/>
      <point x="611.333" y="420.333" type="line"/>
      <point x="285" y="420.333" type="line"/>
      <point x="355.333" y="722" type="line"/>
      <point x="239.667" y="722" type="line"/>
      <point x="72.6667" y="0" type="line"/>
      <point x="188.333" y="0" type="line"/>
      <point x="263" y="324" type="line"/>
      <point x="589.333" y="324" type="line"/>
      <point x="514.667" y="0" type="line"/>
    </contour>
  </outline>
</glyph>
<glyph name="J" format="2">
  <advance width="568"/>
  <unicode hex="004A"/>
  <anchor x="615" y="800" name="top"/>
  <outline>
    <contour>
      <point x="99" y="205" type="line"/>
      <point x="93.3333" y="180"/>
      <point x="90.6667" y="157.333"/>
      <point x="90.6667" y="137" type="curve" smooth="yes"/>
      <point x="90.6667" y="40.3333"/>
      <point x="153.667" y="-14"/>
      <point x="270.667" y="-14" type="curve" smooth="yes"/>
      <point x="404.333" y="-14"/>
      <point x="524.333" y="78.6667"/>
      <point x="555.333" y="214.333" type="curve" smooth="yes"/>
      <point x="672.667" y="722.333" type="line"/>
      <point x="555.333" y="722.333" type="line"/>
      <point x="438.667" y="217.333" type="line" smooth="yes"/>
      <point x="420" y="135.667"/>
      <point x="371" y="82.6667"/>
      <point x="289.333" y="82.6667" type="curve" smooth="yes"/>
      <point x="237.667" y="82.6667"/>
      <point x="210" y="109"/>
      <point x="210" y="161.333" type="curve" smooth="yes"/>
      <point x="210" y="173.667"/>
      <point x="211.333" y="189"/>
      <point x="215" y="205" type="curve"/>
    </contour>
  </outline>
</glyph>
<glyph name="L" format="2">
  <advance width="520"/>
  <unicode hex="004C"/>
  <anchor x="258.333" y="-60" name="bottom"/>
  <anchor x="431.667" y="376" name="dotCN"/>
  <anchor x="300.667" y="800" name="top"/>
  <outline>
    <contour>
      <point x="502" y="0" type="line"/>
      <point x="524.333" y="96.3333" type="line"/>
      <point x="201.333" y="96.3333" type="line"/>
      <point x="346" y="722" type="line"/>
      <point x="230.333" y="722" type="line"/>
      <point x="63.3333" y="0" type="line"/>
    </contour>
  </outline>
</glyph>
<glyph name="N" format="2">
  <advance width="711"/>
  <unicode hex="004E"/>
  <anchor x="356" y="-60" name="bottom"/>
  <anchor x="545.333" y="800" name="top"/>
  <outline>
    <contour>
      <point x="648" y="0" type="line"/>
      <point x="815" y="722" type="line"/>
      <point x="701" y="722" type="line"/>
      <point x="565" y="135" type="line"/>
      <point x="395.667" y="722" type="line"/>
      <point x="230.333" y="722" type="line"/>
      <point x="63.3333" y="0" type="line"/>
      <point x="177.333" y="0" type="line"/>
      <point x="313" y="587" type="line"/>
      <point x="482" y="0" type="line"/>
    </contour>
  </outline>
</glyph>
<glyph name="R" format="2">
  <advance width="639"/>
  <unicode hex="0052"/>
  <anchor x="312.667" y="-60" name="bottom"/>
  <anchor x="439.667" y="800" name="top"/>
  <outline>
    <contour>
      <point x="63" y="0" type="line"/>
      <point x="180.333" y="0" type="line"/>
      <point x="253.667" y="315.667" type="line"/>
      <point x="376.333" y="315.667" type="line" smooth="yes"/>
      <point x="464" y="315.667"/>
      <point x="484" y="287"/>
      <point x="484" y="206.333" type="curve" smooth="yes"/>
      <point x="484" y="145"/>
      <point x="472.333" y="97"/>
      <point x="472.333" y="38.6667" type="curve" smooth="yes"/>
      <point x="472.333" y="27.6667"/>
      <point x="472.667" y="12"/>
      <point x="474.333" y="0" type="curve"/>
      <point x="593.667" y="0" type="line"/>
      <point x="591" y="17.3333"/>
      <point x="589.667" y="38.3333"/>
      <point x="589.667" y="61.3333" type="curve" smooth="yes"/>
      <point x="589.667" y="132.333"/>
      <point x="601.333" y="196"/>
      <point x="601.333" y="263" type="curve" smooth="yes"/>
      <point x="601.333" y="320.333"/>
      <point x="576" y="350"/>
      <point x="517.667" y="365" type="curve"/>
      <point x="625" y="398.667"/>
      <point x="702.333" y="459.667"/>
      <point x="702.333" y="578" type="curve" smooth="yes"/>
      <point x="702.333" y="692"/>
      <point x="606.667" y="722"/>
      <point x="475.333" y="722" type="curve" smooth="yes"/>
      <point x="230" y="722" type="line"/>
    </contour>
    <contour>
      <point x="276" y="412.667" type="line"/>
      <point x="324.333" y="625" type="line"/>
      <point x="451" y="625" type="line" smooth="yes"/>
      <point x="524.333" y="625"/>
      <point x="581" y="605.667"/>
      <point x="581" y="546" type="curve" smooth="yes"/>
      <point x="581" y="446.333"/>
      <point x="483.333" y="412.667"/>
      <point x="399" y="412.667" type="curve" smooth="yes"/>
    </contour>
  </outline>
</glyph>
<glyph name="T" format="2">
  <advance width="626"/>
  <unicode hex="0054"/>
  <anchor x="480" y="800" name="top"/>
  <outline>
    <contour>
      <point x="742" y="625.667" type="line"/>
      <point x="764.333" y="722" type="line"/>
      <point x="190.333" y="722" type="line"/>
      <point x="168" y="625.667" type="line"/>
      <point x="396.333" y="625.667" type="line"/>
      <point x="251.667" y="0" type="line"/>
      <point x="369" y="0" type="line"/>
      <point x="513.667" y="625.667" type="line"/>
    </contour>
  </outline>
</glyph>
<glyph name="Y" format="2">
  <advance width="662"/>
  <unicode hex="0059"/>
  <anchor x="508" y="800" name="top"/>
  <outline>
    <contour>
      <point x="815.667" y="722" type="line"/>
      <point x="684.333" y="722" type="line"/>
      <point x="425.333" y="389.667" type="line"/>
      <point x="317.667" y="722" type="line"/>
      <point x="180.333" y="722" type="line"/>
      <point x="337" y="282.333" type="line"/>
      <point x="272" y="0" type="line"/>
      <point x="389.333" y="0" type="line"/>
      <point x="454.333" y="282.333" type="line"/>
    </contour>
  </outline>
</glyph>
<glyph name="bracketleft" format="2">
  <advance width="394"/>
  <unicode hex="005B"/>
  <outline>
    <contour>
      <point x="251.333" y="-198" type="line"/>
      <point x="266.333" y="-134" type="line"/>
      <point x="164.667" y="-134" type="line"/>
      <point x="347.667" y="658" type="line"/>
      <point x="449.333" y="658" type="line"/>
      <point x="464.333" y="722" type="line"/>
      <point x="265.333" y="722" type="line"/>
      <point x="52.3333" y="-198" type="line"/>
    </contour>
  </outline>
</glyph>
<glyph name="backslash" format="2">
  <advance width="406"/>
  <unicode hex="005C"/>
  <outline>
    <contour>
      <point x="349" y="-52" type="line"/>
      <point x="295" y="736" type="line"/>
      <point x="216" y="736" type="line"/>
      <point x="270" y="-52" type="line"/>
    </contour>
  </outline>
</glyph>
<glyph name="bracketright" format="2">
  <advance width="394"/>
  <unicode hex="005D"/>
  <outline>
    <contour>
      <point x="251.333" y="-198" type="line"/>
      <point x="464.333" y="722" type="line"/>
      <point x="265.333" y="722" type="line"/>
      <point x="250.333" y="658" type="line"/>
      <point x="351.333" y="658" type="line"/>
      <point x="168.333" y="-134" type="line"/>
      <point x="67.3333" y="-134" type="line"/>
      <point x="52.3333" y="-198" type="line"/>
    </contour>
  </outline>
</glyph>
<glyph name="a" format="2">
  <advance width="620"/>
  <unicode hex="0061"/>
  <anchor x="280" y="-60" name="bottom"/>
  <anchor x="426" y="580" name="top"/>
  <outline>
    <contour>
      <point x="105" y="177" type="curve" smooth="yes"/>
      <point x="105" y="66.6667"/>
      <point x="163.667" y="-12.6667"/>
      <point x="285.333" y="-12.6667" type="curve" smooth="yes"/>
      <point x="346.667" y="-12.6667"/>
      <point x="413.333" y="29.6667"/>
      <point x="447.333" y="60.3333" type="curve"/>
      <point x="433.667" y="0" type="line"/>
      <point x="538.667" y="0" type="line"/>
      <point x="653.667" y="500" type="line"/>
      <point x="548.667" y="500" type="line"/>
      <point x="535.333" y="441.333" type="line"/>
      <point x="514.333" y="481.667"/>
      <point x="476" y="512.667"/>
      <point x="402.667" y="512.667" type="curve" smooth="yes"/>
      <point x="225.667" y="512.667"/>
      <point x="105" y="334.333"/>
    </contour>
    <contour>
      <point x="212.667" y="185.333" type="curve" smooth="yes"/>
      <point x="212.667" y="286.667"/>
      <point x="280.667" y="441.333"/>
      <point x="393.333" y="441.333" type="curve" smooth="yes"/>
      <point x="465.667" y="441.333"/>
      <point x="500.333" y="395"/>
      <point x="500.333" y="317.333" type="curve" smooth="yes"/>
      <point x="500.333" y="213.333"/>
      <point x="438.667" y="62"/>
      <point x="316.667" y="62" type="curve" smooth="yes"/>
      <point x="241" y="62"/>
      <point x="212.667" y="120"/>
    </contour>
  </outline>
</glyph>
<glyph name="c" format="2">
  <advance width="538"/>
  <unicode hex="0063"/>
  <anchor x="268.667" y="-60" name="bottom"/>
  <anchor x="276" y="10" name="cedillaC"/>
  <anchor x="411.667" y="580" name="top"/>
  <outline>
    <contour>
      <point x="103" y="158.333" type="curve" smooth="yes"/>
      <point x="103" y="44.3333"/>
      <point x="162.333" y="-12.6667"/>
      <point x="275.667" y="-12.6667" type="curve" smooth="yes"/>
      <point x="401.333" y="-12.6667"/>
      <point x="496.333" y="58"/>
      <point x="527.333" y="174" type="curve"/>
      <point x="419.333" y="174" type="line"/>
      <point x="401.333" y="102.667"/>
      <point x="358.333" y="58.6667"/>
      <point x="290.667" y="58.6667" type="curve" smooth="yes"/>
      <point x="233.333" y="58.6667"/>
      <point x="207" y="90.6667"/>
      <point x="207" y="160.667" type="curve" smooth="yes"/>
      <point x="207" y="258.333"/>
      <point x="258.333" y="440.667"/>
      <point x="383.667" y="440.667" type="curve" smooth="yes"/>
      <point x="436.667" y="440.667"/>
      <point x="458.333" y="409.333"/>
      <point x="458.333" y="366.333" type="curve" smooth="yes"/>
      <point x="458.333" y="355.667"/>
      <point x="457" y="345.667"/>
      <point x="455" y="335.333" type="curve"/>
      <point x="561.333" y="335.333" type="line"/>
      <point x="564.333" y="351.333"/>
      <point x="566" y="366"/>
      <point x="566" y="380" type="curve" smooth="yes"/>
      <point x="566" y="473.667"/>
      <point x="500" y="512.667"/>
      <point x="405.667" y="512.667" type="curve" smooth="yes"/>
      <point x="212" y="512.667"/>
      <point x="103" y="324.333"/>
    </contour>
  </outline>
</glyph>
<glyph name="h" format="2">
  <advance width="608"/>
  <unicode hex="0068"/>
  <anchor x="303.333" y="-60" name="bottom"/>
  <anchor x="312" y="800" name="top"/>
  <outline>
    <contour>
      <point x="86.3333" y="0" type="line"/>
      <point x="191.333" y="0" type="line"/>
      <point x="259.333" y="296.667" type="line" smooth="yes"/>
      <point x="279" y="381.333"/>
      <point x="360" y="440.667"/>
      <point x="427" y="440.667" type="curve" smooth="yes"/>
      <point x="477.667" y="440.667"/>
      <point x="502.333" y="408"/>
      <point x="502.333" y="355.667" type="curve" smooth="yes"/>
      <point x="502.333" y="342.667"/>
      <point x="500" y="326.667"/>
      <point x="496.333" y="309" type="curve" smooth="yes"/>
      <point x="426" y="0" type="line"/>
      <point x="531" y="0" type="line"/>
      <point x="603" y="319.667" type="line" smooth="yes"/>
      <point x="609.333" y="346.333"/>
      <point x="612.667" y="370.333"/>
      <point x="612.667" y="392" type="curve" smooth="yes"/>
      <point x="612.667" y="472.333"/>
      <point x="566.333" y="512.667"/>
      <point x="475.333" y="512.667" type="curve" smooth="yes"/>
      <point x="396.667" y="512.667"/>
      <point x="337.333" y="482"/>
      <point x="292.667" y="438.667" type="curve"/>
      <point x="358" y="722" type="line"/>
      <point x="253" y="722" type="line"/>
    </contour>
  </outline>
</glyph>
<glyph name="k" format="2">
  <advance width="531"/>
  <unicode hex="006B"/>
  <anchor x="267.333" y="-60" name="bottom"/>
  <anchor x="307" y="800" name="top"/>
  <outline>
    <contour>
      <point x="513" y="0" type="line"/>
      <point x="369" y="282.667" type="line"/>
      <point x="612" y="500" type="line"/>
      <point x="482.667" y="500" type="line"/>
      <point x="256.333" y="295" type="line"/>
      <point x="355.667" y="722" type="line"/>
      <point x="250.667" y="722" type="line"/>
      <point x="83.6667" y="0" type="line"/>
      <point x="188.667" y="0" type="line"/>
      <point x="250" y="265" type="line"/>
      <point x="379" y="0" type="line"/>
    </contour>
  </outline>
</glyph>
<glyph name="m" format="2">
  <advance width="931"/>
  <unicode hex="006D"/>
  <anchor x="470.333" y="-60" name="bottom"/>
  <anchor x="574" y="580" name="top"/>
  <outline>
    <contour>
      <point x="86.3333" y="0" type="line"/>
      <point x="191.333" y="0" type="line"/>
      <point x="263.667" y="311.667" type="line" smooth="yes"/>
      <point x="277" y="368.667"/>
      <point x="345" y="441.667"/>
      <point x="417" y="441.667" type="curve" smooth="yes"/>
      <point x="469" y="441.667"/>
      <point x="496.333" y="403.667"/>
      <point x="496.333" y="354.667" type="curve" smooth="yes"/>
      <point x="496.333" y="344.667"/>
      <point x="495.667" y="333.333"/>
      <point x="492.667" y="322" type="curve"/>
      <point x="418" y="0" type="line"/>
      <point x="523" y="0" type="line"/>
      <point x="595.333" y="312" type="line" smooth="yes"/>
      <point x="608.333" y="368.667"/>
      <point x="675" y="441.667"/>
      <point x="749.333" y="441.667" type="curve" smooth="yes"/>
      <point x="799" y="441.667"/>
      <point x="825.667" y="410"/>
      <point x="825.667" y="361.333" type="curve" smooth="yes"/>
      <point x="825.667" y="349.333"/>
      <point x="824" y="335.667"/>
      <point x="820.333" y="321.333" type="curve" smooth="yes"/>
      <point x="746.333" y="0" type="line"/>
      <point x="851.333" y="0" type="line"/>
      <point x="927.333" y="326.333" type="line" smooth="yes"/>
      <point x="932.333" y="349"/>
      <point x="935" y="369"/>
      <point x="935" y="387.667" type="curve" smooth="yes"/>
      <point x="935" y="469.667"/>
      <point x="884.667" y="512.667"/>
      <point x="784.667" y="512.667" type="curve" smooth="yes"/>
      <point x="713" y="512.667"/>
      <point x="661" y="482.333"/>
      <point x="605" y="422.333" type="curve"/>
      <point x="585.667" y="481.667"/>
      <point x="553" y="512.667"/>
      <point x="460.667" y="512.667" type="curve" smooth="yes"/>
      <point x="395.667" y="512.667"/>
      <point x="344.667" y="485"/>
      <point x="291" y="429.667" type="curve"/>
      <point x="306.333" y="500" type="line"/>
      <point x="201.333" y="500" type="line"/>
    </contour>
  </outline>
</glyph>
<glyph name="o" format="2">
  <advance width="616"/>
  <unicode hex="006F"/>
  <anchor x="295" y="-60" name="bottom"/>
  <anchor x="438.667" y="580" name="top"/>
  <outline>
    <contour>
      <point x="106" y="183" type="curve" smooth="yes"/>
      <point x="106" y="58"/>
      <point x="182.667" y="-12.6667"/>
      <point x="307" y="-12.6667" type="curve" smooth="yes"/>
      <point x="492.667" y="-12.6667"/>
      <point x="631" y="146"/>
      <point x="631" y="322.667" type="curve" smooth="yes"/>
      <point x="631" y="441"/>
      <point x="556" y="512.667"/>
      <point x="431.667" y="512.667" type="curve" smooth="yes"/>
      <point x="246.667" y="512.667"/>
      <point x="106" y="353"/>
    </contour>
    <contour>
      <point x="216.333" y="184.333" type="curve" smooth="yes"/>
      <point x="216.333" y="293.333"/>
      <point x="290" y="440.667"/>
      <point x="413.333" y="440.667" type="curve" smooth="yes"/>
      <point x="488.333" y="440.667"/>
      <point x="520.667" y="386"/>
      <point x="520.667" y="313.667" type="curve" smooth="yes"/>
      <point x="520.667" y="204.667"/>
      <point x="448.333" y="59.3333"/>
      <point x="324.333" y="59.3333" type="curve" smooth="yes"/>
      <point x="248.667" y="59.3333"/>
      <point x="216.333" y="112.667"/>
    </contour>
  </outline>
</glyph>
<glyph name="p" format="2">
  <advance width="626"/>
  <unicode hex="0070"/>
  <anchor x="329" y="-60" name="bottom"/>
  <anchor x="446.667" y="580" name="top"/>
  <outline>
    <contour>
      <point x="44.3333" y="-200" type="line"/>
      <point x="149.333" y="-200" type="line"/>
      <point x="207.333" y="54" type="line"/>
      <point x="229" y="12"/>
      <point x="282.333" y="-12.6667"/>
      <point x="343.667" y="-12.6667" type="curve" smooth="yes"/>
      <point x="528" y="-12.6667"/>
      <point x="641.333" y="167"/>
      <point x="641.333" y="328.333" type="curve" smooth="yes"/>
      <point x="641.333" y="442.667"/>
      <point x="585.333" y="512.667"/>
      <point x="474.333" y="512.667" type="curve" smooth="yes"/>
      <point x="403.333" y="512.667"/>
      <point x="337" y="474.667"/>
      <point x="294" y="424.667" type="curve"/>
      <point x="309.667" y="500" type="line"/>
      <point x="205.333" y="500" type="line"/>
    </contour>
    <contour>
      <point x="241.333" y="176.667" type="curve" smooth="yes"/>
      <point x="241.333" y="284.333"/>
      <point x="303" y="440"/>
      <point x="435" y="440" type="curve" smooth="yes"/>
      <point x="503" y="440"/>
      <point x="534.333" y="398"/>
      <point x="534.333" y="324" type="curve" smooth="yes"/>
      <point x="534.333" y="216.333"/>
      <point x="468" y="58.3333"/>
      <point x="339" y="58.3333" type="curve" smooth="yes"/>
      <point x="265" y="58.3333"/>
      <point x="241.333" y="110"/>
    </contour>
  </outline>
</glyph>
<glyph name="t" format="2">
  <advance width="386"/>
  <unicode hex="0074"/>
  <anchor x="223.333" y="-60" name="bottom"/>
  <anchor x="222.667" y="10" name="cedillaC"/>
  <anchor x="475.333" y="816" name="leftTM"/>
  <anchor x="333" y="700" name="top"/>
  <outline>
    <contour>
      <point x="267.333" y="139" type="curve" smooth="yes"/>
      <point x="333.667" y="428.333" type="line"/>
      <point x="446.667" y="428.333" type="line"/>
      <point x="463" y="500" type="line"/>
      <point x="350" y="500" type="line"/>
      <point x="382.667" y="639.667" type="line"/>
      <point x="266.667" y="596" type="line"/>
      <point x="245" y="500" type="line"/>
      <point x="151.667" y="500" type="line"/>
      <point x="135.333" y="428.333" type="line"/>
      <point x="228.667" y="428.333" type="line"/>
      <point x="159.333" y="126.333" type="line" smooth="yes"/>
      <point x="154.667" y="106.333"/>
      <point x="152.333" y="88.3333"/>
      <point x="152.333" y="73.3333" type="curve" smooth="yes"/>
      <point x="152.333" y="17"/>
      <point x="188" y="-13.3333"/>
      <point x="262.333" y="-13.3333" type="curve" smooth="yes"/>
      <point x="288.333" y="-13.3333"/>
      <point x="320.667" y="-9.33333"/>
      <point x="351.333" y="0.333333" type="curve"/>
      <point x="367.333" y="70" type="line"/>
      <point x="348.667" y="64"/>
      <point x="328" y="61"/>
      <point x="313.333" y="61" type="curve" smooth="yes"/>
      <point x="277.333" y="61"/>
      <point x="263" y="78"/>
      <point x="263" y="106.333" type="curve" smooth="yes"/>
      <point x="263" y="116"/>
      <point x="264.667" y="126.667"/>
    </contour>
  </outline>
</glyph>
<glyph name="u" format="2">
  <advance width="610"/>
  <unicode hex="0075"/>
  <anchor x="280.667" y="-60" name="bottom"/>
  <anchor x="460" y="10" name="bottomUC"/>
  <anchor x="421" y="580" name="top"/>
  <outline>
    <contour>
      <point x="115" y="107.333" type="curve" smooth="yes"/>
      <point x="115" y="27.6667"/>
      <point x="164.333" y="-12.6667"/>
      <point x="257.667" y="-12.6667" type="curve" smooth="yes"/>
      <point x="340.333" y="-12.6667"/>
      <point x="388.667" y="9.66667"/>
      <point x="438.333" y="65.3333" type="curve"/>
      <point x="423" y="0" type="line"/>
      <point x="528" y="0" type="line"/>
      <point x="643.333" y="500.333" type="line"/>
      <point x="538.333" y="500.333" type="line"/>
      <point x="467.333" y="192.667" type="line" smooth="yes"/>
      <point x="450.333" y="118.667"/>
      <point x="390" y="55"/>
      <point x="314.667" y="55" type="curve" smooth="yes"/>
      <point x="258.667" y="55"/>
      <point x="225.333" y="89.6667"/>
      <point x="225.333" y="142" type="curve" smooth="yes"/>
      <point x="225.333" y="153"/>
      <point x="227" y="165.667"/>
      <point x="230" y="179.333" type="curve" smooth="yes"/>
      <point x="303.667" y="500" type="line"/>
      <point x="198.667" y="500" type="line"/>
      <point x="122.667" y="167.333" type="line" smooth="yes"/>
      <point x="117.667" y="145.333"/>
      <point x="115" y="125.333"/>
    </contour>
  </outline>
</glyph>
<glyph name="v" format="2">
  <advance width="582"/>
  <unicode hex="0076"/>
  <anchor x="281.667" y="-60" name="bottom"/>
  <anchor x="402.333" y="580" name="top"/>
  <outline>
    <contour>
      <point x="658.667" y="500" type="line"/>
      <point x="547.333" y="500" type="line"/>
      <point x="320" y="123.667" type="line"/>
      <point x="265.333" y="500" type="line"/>
      <point x="147.333" y="500" type="line"/>
      <point x="232.667" y="0" type="line"/>
      <point x="344" y="0" type="line"/>
    </contour>
  </outline>
</glyph>
<glyph name="w" format="2">
  <advance width="872"/>
  <unicode hex="0077"/>
  <anchor x="428.333" y="-60" name="bottom"/>
  <anchor x="558" y="580" name="top"/>
  <outline>
    <contour>
      <point x="948.667" y="500" type="line"/>
      <point x="838.333" y="500" type="line"/>
      <point x="642.333" y="130" type="line"/>
      <point x="614" y="500" type="line"/>
      <point x="482" y="500" type="line"/>
      <point x="283" y="130" type="line"/>
      <point x="257.667" y="500" type="line"/>
      <point x="147.333" y="500" type="line"/>
      <point x="196" y="0" type="line"/>
      <point x="309.333" y="0" type="line"/>
      <point x="524" y="393.333" type="line"/>
      <point x="556.667" y="0" type="line"/>
      <point x="670" y="0" type="line"/>
    </contour>
  </outline>
</glyph>
<glyph name="z" format="2">
  <advance width="472"/>
  <unicode hex="007A"/>
  <anchor x="248.667" y="-60" name="bottom"/>
  <anchor x="355.333" y="580" name="top"/>
  <outline>
    <contour>
      <point x="432" y="0" type="line"/>
      <point x="449.333" y="74.3333" type="line"/>
      <point x="178" y="74.3333" type="line"/>
      <point x="522" y="410.333" type="line"/>
      <point x="542.667" y="500" type="line"/>
      <point x="177.333" y="500" type="line"/>
      <point x="160.333" y="425.667" type="line"/>
      <point x="411" y="425.667" type="line"/>
      <point x="68" y="89.6667" type="line"/>
      <point x="47.3333" y="0" type="line"/>
    </contour>
  </outline>
</glyph>
<glyph name="braceleft" format="2">
  <advance width="495"/>
  <unicode hex="007B"/>
  <outline>
    <contour>
      <point x="126.667" y="220.667" type="line"/>
      <point x="190.333" y="208"/>
      <point x="220.333" y="175"/>
      <point x="220.333" y="121" type="curve" smooth="yes"/>
      <point x="220.333" y="103.333"/>
      <point x="217" y="83.3333"/>
      <point x="212.667" y="59.6667" type="curve"/>
      <point x="189.667" y="-34.3333" type="line" smooth="yes"/>
      <point x="183.333" y="-63"/>
      <point x="179.667" y="-90.3333"/>
      <point x="179.667" y="-111" type="curve" smooth="yes"/>
      <point x="179.667" y="-201"/>
      <point x="249.667" y="-240"/>
      <point x="345.667" y="-240" type="curve" smooth="yes"/>
      <point x="363.667" y="-240" type="line"/>
      <point x="382" y="-159.333" type="line"/>
      <point x="317" y="-159.333"/>
      <point x="284.667" y="-146"/>
      <point x="284.667" y="-92" type="curve" smooth="yes"/>
      <point x="284.667" y="-78"/>
      <point x="286.333" y="-62.6667"/>
      <point x="290.667" y="-45.6667" type="curve" smooth="yes"/>
      <point x="310" y="30.6667" type="line" smooth="yes"/>
      <point x="319" y="69.6667"/>
      <point x="326.333" y="102.667"/>
      <point x="326.333" y="133.667" type="curve" smooth="yes"/>
      <point x="326.333" y="185"/>
      <point x="307" y="223"/>
      <point x="265.333" y="260" type="curve"/>
      <point x="353.333" y="317"/>
      <point x="391" y="372.333"/>
      <point x="415.667" y="490.667" type="curve" smooth="yes"/>
      <point x="425.333" y="538" type="line" smooth="yes"/>
      <point x="442.333" y="621.667"/>
      <point x="471.667" y="679"/>
      <point x="575" y="679" type="curve"/>
      <point x="593.333" y="759.667" type="line"/>
      <point x="417.333" y="759.667"/>
      <point x="359" y="700.333"/>
      <point x="322" y="534.333" type="curve"/>
      <point x="309" y="471.667" type="line"/>
      <point x="287.333" y="376.667"/>
      <point x="256" y="320"/>
      <point x="144.333" y="297.333" type="curve"/>
    </contour>
  </outline>
</glyph>
<glyph name="bar" format="2">
  <advance width="344"/>
  <unicode hex="007C"/>
  <outline>
    <contour>
      <point x="141.333" y="-258" type="line"/>
      <point x="385.333" y="796" type="line"/>
      <point x="327.667" y="796" type="line"/>
      <point x="83.6667" y="-258" type="line"/>
    </contour>
  </outline>
</glyph>
<glyph name="asciitilde" format="2">
  <advance width="637"/>
  <unicode hex="007E"/>
  <outline>
    <contour>
      <point x="97.6667" y="188.333" type="curve"/>
      <point x="188.667" y="188.333" type="line"/>
      <point x="215.667" y="218"/>
      <point x="247.333" y="234.667"/>
      <point x="274.333" y="234.667" type="curve" smooth="yes"/>
      <point x="302.333" y="234.667"/>
      <point x="402.333" y="191.333"/>
      <point x="475.667" y="191.333" type="curve" smooth="yes"/>
      <point x="539" y="191.333"/>
      <point x="638.667" y="267.667"/>
      <point x="661.333" y="321.667" type="curve"/>
      <point x="573.333" y="321.667" type="line"/>
      <point x="549.333" y="294.333"/>
      <point x="514.667" y="276.333"/>
      <point x="487.667" y="276.333" type="curve" smooth="yes"/>
      <point x="460.667" y="276.333"/>
      <point x="356.667" y="319.667"/>
      <point x="282.333" y="319.667" type="curve" smooth="yes"/>
      <point x="219.667" y="319.667"/>
      <point x="120" y="243"/>
    </contour>
  </outline>
</glyph>
<glyph name="exclamdown" format="2">
  <advance width="266"/>
  <unicode hex="00A1"/>
  <outline>
    <contour>
      <point x="185.667" y="-3.66667" type="line"/>
      <point x="275.667" y="387.333" type="line"/>
      <point x="177" y="387.333" type="line"/>
      <point x="87" y="-3.66667" type="line"/>
    </contour>
    <contour>
      <point x="237.333" y="204" type="line"/>
      <point x="281.667" y="436.333" type="line"/>
      <point x="182.333" y="436.333" type="line"/>
      <point x="120.667" y="204" type="line"/>
    </contour>
  </outline>
</glyph>
<glyph name="cent" format="2">
  <advance width="563"/>
  <unicode hex="00A2"/>
  <outline>
    <contour>
      <point x="104" y="-126.667" type="line"/>
      <point x="150.667" y="-139.667" type="line"/>
      <point x="570" y="612" type="line"/>
      <point x="522.333" y="625" type="line"/>
    </contour>
    <contour>
      <point x="112.333" y="151.333" type="curve" smooth="yes"/>
      <point x="112.333" y="45.6667"/>
      <point x="169" y="-13"/>
      <point x="290.333" y="-13" type="curve" smooth="yes"/>
      <point x="413.667" y="-13"/>
      <point x="511" y="63.6667"/>
      <point x="536.667" y="173.333" type="curve"/>
      <point x="432.333" y="173.333" type="line"/>
      <point x="417" y="107.333"/>
      <point x="371" y="61.3333"/>
      <point x="304.333" y="61.3333" type="curve" smooth="yes"/>
      <point x="235.667" y="61.3333"/>
      <point x="215.667" y="109"/>
      <point x="215.667" y="166.667" type="curve" smooth="yes"/>
      <point x="215.667" y="263.667"/>
      <point x="271.333" y="439"/>
      <point x="387.333" y="439" type="curve" smooth="yes"/>
      <point x="432.667" y="439"/>
      <point x="474.333" y="424.667"/>
      <point x="474.333" y="371.667" type="curve" smooth="yes"/>
      <point x="474.333" y="361.667"/>
      <point x="472.667" y="349.667"/>
      <point x="470.667" y="338.667" type="curve"/>
      <point x="571.333" y="338.667" type="line"/>
      <point x="574.667" y="355.333"/>
      <point x="577" y="371"/>
      <point x="577" y="387.667" type="curve" smooth="yes"/>
      <point x="577" y="492.333"/>
      <point x="484.333" y="513.333"/>
      <point x="409" y="513.333" type="curve" smooth="yes"/>
      <point x="209.667" y="513.333"/>
      <point x="112.333" y="321.667"/>
    </contour>
  </outline>
</glyph>
<glyph name="currency" format="2">
  <advance width="616"/>
  <unicode hex="00A4"/>
  <outline>
    <contour>
      <point x="361.667" y="209" type="curve" smooth="yes"/>
      <point x="497" y="209"/>
      <point x="633.333" y="340.333"/>
      <point x="633.333" y="474" type="curve" smooth="yes"/>
      <point x="633.333" y="573.667"/>
      <point x="558.667" y="646"/>
      <point x="458.333" y="646" type="curve" smooth="yes"/>
      <point x="324.333" y="646"/>
      <point x="184.667" y="517.667"/>
      <point x="184.667" y="381.333" type="curve" smooth="yes"/>
      <point x="184.667" y="278.333"/>
      <point x="264" y="209"/>
    </contour>
    <contour>
      <point x="376.333" y="287" type="curve" smooth="yes"/>
      <point x="313" y="287"/>
      <point x="266.333" y="333"/>
      <point x="266.333" y="397" type="curve" smooth="yes"/>
      <point x="266.333" y="486.333"/>
      <point x="354.333" y="568"/>
      <point x="440.667" y="568" type="curve" smooth="yes"/>
      <point x="507" y="568"/>
      <point x="551.667" y="519"/>
      <point x="551.667" y="458" type="curve" smooth="yes"/>
      <point x="551.667" y="370.667"/>
      <point x="463.667" y="287"/>
    </contour>
    <contour>
      <point x="332.333" y="591" type="line"/>
      <point x="239" y="712.667" type="line"/>
      <point x="178.667" y="667" type="line"/>
      <point x="276" y="541.333" type="line"/>
    </contour>
    <contour>
      <point x="489" y="263.333" type="line"/>
      <point x="579.667" y="145.667" type="line"/>
      <point x="638.333" y="193" type="line"/>
      <point x="546.333" y="312.333" type="line"/>
    </contour>
    <contour>
      <point x="215.667" y="313.667" type="line"/>
      <point x="68.3333" y="195" type="line"/>
      <point x="110.333" y="142.333" type="line"/>
      <point x="260" y="262.667" type="line"/>
    </contour>
    <contour>
      <point x="602.333" y="543.333" type="line"/>
      <point x="751.667" y="664.667" type="line"/>
      <point x="710" y="716.667" type="line"/>
      <point x="559.333" y="594.667" type="line"/>
    </contour>
  </outline>
  <guideline angle="90" x="203" y="0"/>
</glyph>
<glyph name="yen" format="2">
  <advance width="563"/>
  <unicode hex="00A5"/>
  <outline>
    <contour>
      <point x="728.333" y="722" type="line"/>
      <point x="608.667" y="722" type="line"/>
      <point x="371.333" y="383" type="line"/>
      <point x="290" y="722" type="line"/>
      <point x="170.333" y="722" type="line"/>
      <point x="227.667" y="513" type="line"/>
      <point x="132" y="513" type="line"/>
      <point x="119.667" y="457" type="line"/>
      <point x="242.667" y="457" type="line"/>
      <point x="272.667" y="338" type="line"/>
      <point x="91.6667" y="338" type="line"/>
      <point x="78.6667" y="282" type="line"/>
      <point x="291" y="282" type="line"/>
      <point x="226" y="0" type="line"/>
      <point x="338.667" y="0" type="line"/>
      <point x="403.667" y="282" type="line"/>
      <point x="616" y="282" type="line"/>
      <point x="629" y="338" type="line"/>
      <point x="449.333" y="338" type="line"/>
      <point x="535.333" y="457" type="line"/>
      <point x="657" y="457" type="line"/>
      <point x="669.333" y="513" type="line"/>
      <point x="574.667" y="513" type="line"/>
    </contour>
  </outline>
</glyph>
<glyph name="section" format="2">
  <advance width="467"/>
  <unicode hex="00A7"/>
  <outline>
    <contour>
      <point x="265" y="205" type="curve"/>
      <point x="237" y="223" type="line" smooth="yes"/>
      <point x="219" y="234"/>
      <point x="191" y="257"/>
      <point x="191" y="286" type="curve" smooth="yes"/>
      <point x="191" y="354"/>
      <point x="266" y="381"/>
      <point x="324" y="391" type="curve"/>
      <point x="381" y="357" type="line" smooth="yes"/>
      <point x="394" y="349"/>
      <point x="402" y="333"/>
      <point x="402" y="320" type="curve" smooth="yes"/>
      <point x="402" y="277"/>
      <point x="354" y="234"/>
    </contour>
    <contour>
      <point x="534.333" y="624.667" type="curve"/>
      <point x="551.333" y="702.333" type="line"/>
      <point x="513.667" y="727"/>
      <point x="464.667" y="740.667"/>
      <point x="410.333" y="740.667" type="curve" smooth="yes"/>
      <point x="264.667" y="740.667"/>
      <point x="188.333" y="667"/>
      <point x="188.333" y="560" type="curve" smooth="yes"/>
      <point x="188.333" y="518.333"/>
      <point x="210.667" y="486"/>
      <point x="240.333" y="461.333" type="curve" smooth="yes"/>
      <point x="259" y="445.667" type="line"/>
      <point x="182" y="426.667"/>
      <point x="87.6667" y="375.333"/>
      <point x="87.6667" y="268.333" type="curve" smooth="yes"/>
      <point x="87.6667" y="214.667"/>
      <point x="130" y="174.667"/>
      <point x="179" y="143" type="curve" smooth="yes"/>
      <point x="262.333" y="89" type="line" smooth="yes"/>
      <point x="309" y="59"/>
      <point x="316.667" y="29.6667"/>
      <point x="316.667" y="4" type="curve" smooth="yes"/>
      <point x="316.667" y="-70.3333"/>
      <point x="248.667" y="-97"/>
      <point x="177" y="-97" type="curve" smooth="yes"/>
      <point x="139.667" y="-97"/>
      <point x="74.6667" y="-84"/>
      <point x="36" y="-53" type="curve"/>
      <point x="16" y="-146.333" type="line"/>
      <point x="45" y="-163.667"/>
      <point x="118" y="-181.667"/>
      <point x="168.333" y="-181.667" type="curve" smooth="yes"/>
      <point x="324.333" y="-181.667"/>
      <point x="432.333" y="-110.667"/>
      <point x="432.333" y="18.6667" type="curve" smooth="yes"/>
      <point x="432.333" y="68.6667"/>
      <point x="401.333" y="106.333"/>
      <point x="365" y="132.333" type="curve" smooth="yes"/>
      <point x="340.333" y="149.667" type="line"/>
      <point x="418.333" y="184.667"/>
      <point x="508.667" y="244.667"/>
      <point x="508.667" y="334.667" type="curve" smooth="yes"/>
      <point x="508.667" y="370.667"/>
      <point x="490.333" y="415"/>
      <point x="431.333" y="451.333" type="curve" smooth="yes"/>
      <point x="364" y="492" type="line" smooth="yes"/>
      <point x="319.333" y="519.667"/>
      <point x="303.333" y="543"/>
      <point x="303.333" y="577.667" type="curve" smooth="yes"/>
      <point x="303.333" y="627.667"/>
      <point x="346.667" y="667.333"/>
      <point x="406" y="667.333" type="curve" smooth="yes"/>
      <point x="458.333" y="667.333"/>
      <point x="497" y="652.333"/>
    </contour>
  </outline>
</glyph>
<glyph name="guillemotleft" format="2">
  <advance width="572"/>
  <unicode hex="00AB"/>
  <outline>
    <contour>
      <point x="389.333" y="57" type="line"/>
      <point x="324.333" y="252" type="line"/>
      <point x="479.333" y="447" type="line"/>
      <point x="384" y="447" type="line"/>
      <point x="211" y="252" type="line"/>
      <point x="294" y="57" type="line"/>
    </contour>
    <contour>
      <point x="433.333" y="57" type="line"/>
      <point x="368.333" y="252" type="line"/>
      <point x="523.333" y="447" type="line"/>
      <point x="428" y="447" type="line"/>
      <point x="255" y="252" type="line"/>
      <point x="338" y="57" type="line"/>
    </contour>
  </outline>
</glyph>
<glyph name="logicalnot" format="2">
  <advance width="641"/>
  <unicode hex="00AC"/>
  <outline>
    <contour>
      <point x="644" y="179" type="line"/>
      <point x="701" y="430" type="line"/>
      <point x="137.667" y="430" type="line"/>
      <point x="116.333" y="332" type="line"/>
      <point x="583" y="332" type="line"/>
      <point x="547.333" y="179" type="line"/>
    </contour>
  </outline>
</glyph>
<glyph name="registered" format="2">
  <advance width="496"/>
  <unicode hex="00AE"/>
  <outline>
    <contour>
      <point x="321" y="421.667" type="curve" smooth="yes"/>
      <point x="262.667" y="421.667"/>
      <point x="219.667" y="466.667"/>
      <point x="219.667" y="520" type="curve" smooth="yes"/>
      <point x="219.667" y="618"/>
      <point x="282.667" y="717.333"/>
      <point x="414" y="717.333" type="curve" smooth="yes"/>
      <point x="471.333" y="717.333"/>
      <point x="512.333" y="668.333"/>
      <point x="512.333" y="618" type="curve" smooth="yes"/>
      <point x="512.333" y="512.667"/>
      <point x="438.333" y="421.667"/>
    </contour>
    <contour>
      <point x="575.333" y="611" type="curve" smooth="yes"/>
      <point x="575.333" y="706.667"/>
      <point x="507.667" y="773.333"/>
      <point x="419.667" y="773.333" type="curve" smooth="yes"/>
      <point x="269.333" y="773.333"/>
      <point x="156.667" y="658.667"/>
      <point x="156.667" y="520" type="curve" smooth="yes"/>
      <point x="156.667" y="432.333"/>
      <point x="224.333" y="365.667"/>
      <point x="322" y="365.667" type="curve" smooth="yes"/>
      <point x="450.667" y="365.667"/>
      <point x="575.333" y="481.333"/>
    </contour>
    <contour>
      <point x="275.333" y="478.333" type="line"/>
      <point x="329.667" y="478.333" type="line"/>
      <point x="346" y="555.333" type="line"/>
      <point x="352" y="555.333" type="line" smooth="yes"/>
      <point x="363" y="555.333"/>
      <point x="372" y="549.333"/>
      <point x="372" y="531.333" type="curve" smooth="yes"/>
      <point x="372" y="518.333"/>
      <point x="367.667" y="492.333"/>
      <point x="367.667" y="478.333" type="curve"/>
      <point x="427" y="478.333" type="line"/>
      <point x="426" y="497.333"/>
      <point x="429" y="524.333"/>
      <point x="429" y="552.333" type="curve" smooth="yes"/>
      <point x="429" y="564.333"/>
      <point x="422" y="573.333"/>
      <point x="408" y="577.333" type="curve"/>
      <point x="436" y="585.333"/>
      <point x="450" y="606.333"/>
      <point x="450" y="632.333" type="curve" smooth="yes"/>
      <point x="450" y="656.333"/>
      <point x="433.667" y="672.333"/>
      <point x="393.667" y="672.333" type="curve" smooth="yes"/>
      <point x="315.333" y="672.333" type="line"/>
    </contour>
    <contour>
      <point x="353.667" y="593.333" type="line"/>
      <point x="364" y="640.667" type="line"/>
      <point x="369" y="640.667" type="line" smooth="yes"/>
      <point x="389" y="640.667"/>
      <point x="394" y="635.667"/>
      <point x="394" y="620.667" type="curve" smooth="yes"/>
      <point x="394" y="599.333"/>
      <point x="380.667" y="593.333"/>
      <point x="356.667" y="593.333" type="curve" smooth="yes"/>
    </contour>
  </outline>
  <guideline angle="0" x="0" y="722"/>
  <guideline angle="0" x="0" y="413"/>
</glyph>
<glyph name="macron" format="2">
  <advance width="299"/>
  <unicode hex="00AF"/>
  <outline>
    <contour>
      <point x="444" y="630" type="line"/>
      <point x="460.667" y="702.333" type="line"/>
      <point x="160" y="702.333" type="line"/>
      <point x="143.667" y="630" type="line"/>
    </contour>
  </outline>
</glyph>
<glyph name="degree" format="2">
  <advance width="310"/>
  <unicode hex="00B0"/>
  <outline>
    <contour>
      <point x="321.667" y="722" type="curve" smooth="yes"/>
      <point x="246.667" y="722"/>
      <point x="183" y="660.667"/>
      <point x="183" y="588.333" type="curve" smooth="yes"/>
      <point x="183" y="532.667"/>
      <point x="221" y="495.667"/>
      <point x="277.667" y="495.667" type="curve" smooth="yes"/>
      <point x="351.333" y="495.667"/>
      <point x="417" y="558.333"/>
      <point x="417" y="630" type="curve" smooth="yes"/>
      <point x="417" y="684"/>
      <point x="380.333" y="722"/>
    </contour>
    <contour>
      <point x="287.333" y="544" type="curve" smooth="yes"/>
      <point x="255.333" y="544"/>
      <point x="234" y="566.333"/>
      <point x="234" y="596.333" type="curve" smooth="yes"/>
      <point x="234" y="637.333"/>
      <point x="273" y="673.667"/>
      <point x="315.333" y="673.667" type="curve" smooth="yes"/>
      <point x="346.667" y="673.667"/>
      <point x="367.667" y="653.333"/>
      <point x="367.667" y="623" type="curve" smooth="yes"/>
      <point x="367.667" y="582"/>
      <point x="328.667" y="544"/>
    </contour>
  </outline>
</glyph>
<glyph name="plusminus" format="2">
  <advance width="1000"/>
  <unicode hex="00B1"/>
  <outline>
    <contour>
      <point x="881.667" y="351.333" type="line"/>
      <point x="899.667" y="431.333" type="line"/>
      <point x="645.333" y="431.333" type="line"/>
      <point x="686" y="606.667" type="line"/>
      <point x="594.667" y="606.667" type="line"/>
      <point x="554" y="431.333" type="line"/>
      <point x="299.667" y="431.333" type="line"/>
      <point x="281.667" y="351.333" type="line"/>
      <point x="536" y="351.333" type="line"/>
      <point x="496.667" y="182.667" type="line"/>
      <point x="588" y="182.667" type="line"/>
      <point x="627.333" y="351.333" type="line"/>
    </contour>
    <contour>
      <point x="800" y="0" type="line"/>
      <point x="817.333" y="80" type="line"/>
      <point x="217.333" y="80" type="line"/>
      <point x="200" y="0" type="line"/>
    </contour>
  </outline>
</glyph>
<glyph name="twosuperior" format="2">
  <advance width="359"/>
  <unicode hex="00B2"/>
  <outline>
    <contour>
      <point x="109.333" y="351" type="line"/>
      <point x="406.667" y="351" type="line"/>
      <point x="420.667" y="410.667" type="line"/>
      <point x="218.333" y="410.667" type="line"/>
      <point x="263.667" y="439.667" type="line" smooth="yes"/>
      <point x="423.667" y="541.667"/>
      <point x="474" y="582.333"/>
      <point x="474" y="654" type="curve" smooth="yes"/>
      <point x="474" y="716"/>
      <point x="422.333" y="743.667"/>
      <point x="351.667" y="743.667" type="curve" smooth="yes"/>
      <point x="275.333" y="743.667"/>
      <point x="198.667" y="695.667"/>
      <point x="180" y="625.667" type="curve"/>
      <point x="265.667" y="625.667" type="line"/>
      <point x="277.667" y="663.667"/>
      <point x="302.667" y="684"/>
      <point x="340.667" y="684" type="curve" smooth="yes"/>
      <point x="371.333" y="684"/>
      <point x="388" y="671"/>
      <point x="388" y="645.333" type="curve" smooth="yes"/>
      <point x="388" y="597.667"/>
      <point x="323.667" y="546.333"/>
      <point x="171" y="447.333" type="curve" smooth="yes"/>
      <point x="124.667" y="417.333" type="line"/>
    </contour>
  </outline>
</glyph>
<glyph name="acute" format="2">
  <advance width="181"/>
  <unicode hex="00B4"/>
  <outline>
    <contour>
      <point x="352" y="741.333" type="line"/>
      <point x="242" y="741.333" type="line"/>
      <point x="125.333" y="541.333" type="line"/>
      <point x="195.333" y="541.333" type="line"/>
    </contour>
  </outline>
</glyph>
<glyph name="paragraph" format="2">
  <advance width="559"/>
  <unicode hex="00B6"/>
  <outline>
    <contour>
      <point x="662" y="679.333" type="line"/>
      <point x="672" y="722" type="line"/>
      <point x="415.333" y="722" type="line" smooth="yes"/>
      <point x="296.667" y="722"/>
      <point x="164.333" y="604"/>
      <point x="164.333" y="483.667" type="curve" smooth="yes"/>
      <point x="164.333" y="394.667"/>
      <point x="237.333" y="352"/>
      <point x="325" y="352" type="curve"/>
      <point x="207" y="-160" type="line"/>
      <point x="263.667" y="-160" type="line"/>
      <point x="457.667" y="679.333" type="line"/>
      <point x="544.333" y="679.333" type="line"/>
      <point x="350.333" y="-160" type="line"/>
      <point x="407" y="-160" type="line"/>
      <point x="601" y="679.333" type="line"/>
    </contour>
  </outline>
</glyph>
<glyph name="onesuperior" format="2">
  <advance width="290"/>
  <unicode hex="00B9"/>
  <outline>
    <contour>
      <point x="303.667" y="351.333" type="line"/>
      <point x="392" y="732.667" type="line"/>
      <point x="322.333" y="732.667" type="line"/>
      <point x="292.667" y="713.667" type="line" smooth="yes"/>
      <point x="267.667" y="697"/>
      <point x="234.667" y="683.667"/>
      <point x="207" y="674.667" type="curve"/>
      <point x="193.333" y="616" type="line"/>
      <point x="225.333" y="622.667"/>
      <point x="261" y="639.667"/>
      <point x="300" y="664.667" type="curve"/>
      <point x="227.667" y="351.333" type="line"/>
    </contour>
  </outline>
</glyph>
<glyph name="ordmasculine" format="2">
  <advance width="416"/>
  <unicode hex="00BA"/>
  <outline>
    <contour>
      <point x="146" y="476.667" type="curve" smooth="yes"/>
      <point x="146" y="390"/>
      <point x="197.333" y="339.667"/>
      <point x="283.333" y="339.667" type="curve" smooth="yes"/>
      <point x="413" y="339.667"/>
      <point x="509" y="453"/>
      <point x="509" y="573" type="curve" smooth="yes"/>
      <point x="509" y="660"/>
      <point x="458.333" y="709.667"/>
      <point x="372.667" y="709.667" type="curve" smooth="yes"/>
      <point x="243.333" y="709.667"/>
      <point x="146" y="595.667"/>
    </contour>
    <contour>
      <point x="221.667" y="477.667" type="curve" smooth="yes"/>
      <point x="221.667" y="553.333"/>
      <point x="271.667" y="659"/>
      <point x="358.333" y="659" type="curve" smooth="yes"/>
      <point x="410.333" y="659"/>
      <point x="431.333" y="621.333"/>
      <point x="431.333" y="571.333" type="curve" smooth="yes"/>
      <point x="431.333" y="495.667"/>
      <point x="383.333" y="390.333"/>
      <point x="296.333" y="390.333" type="curve" smooth="yes"/>
      <point x="244" y="390.333"/>
      <point x="221.667" y="427.667"/>
    </contour>
    <contour>
      <point x="440.667" y="238" type="line"/>
      <point x="449.667" y="278.333" type="line"/>
      <point x="97" y="278.333" type="line"/>
      <point x="88" y="238" type="line"/>
    </contour>
  </outline>
</glyph>
<glyph name="onequarter" format="2">
  <advance width="799"/>
  <unicode hex="00BC"/>
  <outline>
    <component base="onesuperior"/>
    <contour>
      <point x="796.333" y="736" type="line"/>
      <point x="717.333" y="736" type="line"/>
      <point x="118.333" y="-14" type="line"/>
      <point x="197.333" y="-14" type="line"/>
    </contour>
    <contour>
      <point x="770" y="87" type="line"/>
      <point x="782.667" y="142.667" type="line"/>
      <point x="714" y="142.667" type="line"/>
      <point x="770" y="384" type="line"/>
      <point x="685" y="384" type="line"/>
      <point x="460.667" y="144.667" type="line"/>
      <point x="447.333" y="87" type="line"/>
      <point x="626.667" y="87" type="line"/>
      <point x="605.667" y="-4.66667" type="line"/>
      <point x="680.333" y="-4.66667" type="line"/>
      <point x="701.333" y="87" type="line"/>
    </contour>
    <contour>
      <point x="639.667" y="143.333" type="line"/>
      <point x="527.667" y="143.333" type="line"/>
      <point x="676.667" y="303" type="line"/>
    </contour>
  </outline>
</glyph>
<glyph name="questiondown" format="2">
  <advance width="524"/>
  <unicode hex="00BF"/>
  <outline>
    <contour>
      <point x="392" y="233.667" type="curve" smooth="yes"/>
      <point x="414" y="329" type="line"/>
      <point x="327.333" y="329" type="line"/>
      <point x="309" y="249.667" type="line" smooth="yes"/>
      <point x="302" y="217.667"/>
      <point x="259" y="190"/>
      <point x="209.333" y="158.667" type="curve" smooth="yes"/>
      <point x="133" y="111"/>
      <point x="42" y="53.3333"/>
      <point x="42" y="-46" type="curve" smooth="yes"/>
      <point x="42" y="-146"/>
      <point x="135" y="-197.667"/>
      <point x="235.333" y="-197.667" type="curve" smooth="yes"/>
      <point x="329.667" y="-197.667"/>
      <point x="411.667" y="-153"/>
      <point x="478.667" y="-62.6667" type="curve"/>
      <point x="414.333" y="-14.3333" type="line"/>
      <point x="371.667" y="-75.6667"/>
      <point x="329.333" y="-100.667"/>
      <point x="257" y="-100.667" type="curve" smooth="yes"/>
      <point x="203" y="-100.667"/>
      <point x="157" y="-78"/>
      <point x="157" y="-27" type="curve" smooth="yes"/>
      <point x="157" y="35"/>
      <point x="221.333" y="79.6667"/>
      <point x="282.333" y="121.333" type="curve" smooth="yes"/>
      <point x="333.333" y="156"/>
      <point x="381.667" y="189"/>
    </contour>
    <contour>
      <point x="441.333" y="399.333" type="line"/>
      <point x="463.667" y="500" type="line"/>
      <point x="357" y="500" type="line"/>
      <point x="334.667" y="399.333" type="line"/>
    </contour>
  </outline>
</glyph>
<glyph name="AE" format="2">
  <advance width="984"/>
  <unicode hex="00C6"/>
  <anchor x="712.333" y="800" name="top"/>
  <outline>
    <contour>
      <point x="927" y="0" type="line"/>
      <point x="948.667" y="96" type="line"/>
      <point x="597.333" y="96" type="line"/>
      <point x="650" y="322.667" type="line"/>
      <point x="978" y="322.667" type="line"/>
      <point x="1000" y="418.667" type="line"/>
      <point x="672" y="418.667" type="line"/>
      <point x="721.333" y="629.333" type="line"/>
      <point x="1062.67" y="629.333" type="line"/>
      <point x="1084" y="722" type="line"/>
      <point x="566" y="722" type="line"/>
      <point x="13.3333" y="0" type="line"/>
      <point x="131.667" y="0" type="line"/>
      <point x="277.333" y="186" type="line"/>
      <point x="503.333" y="186" type="line"/>
      <point x="460" y="0" type="line"/>
    </contour>
    <contour>
      <point x="527.667" y="282" type="line"/>
      <point x="351.333" y="282" type="line"/>
      <point x="607.667" y="626" type="line"/>
    </contour>
  </outline>
</glyph>
<glyph name="germandbls" format="2">
  <advance width="563"/>
  <unicode hex="00DF"/>
  <outline>
    <contour>
      <point x="46.3333" y="0" type="line"/>
      <point x="154.667" y="0" type="line"/>
      <point x="273" y="508.333" type="line" smooth="yes"/>
      <point x="293.667" y="596.667"/>
      <point x="359" y="643.333"/>
      <point x="431.667" y="643.333" type="curve" smooth="yes"/>
      <point x="484.333" y="643.333"/>
      <point x="504" y="619.333"/>
      <point x="504" y="582.333" type="curve" smooth="yes"/>
      <point x="504" y="470"/>
      <point x="329.667" y="484"/>
      <point x="329.667" y="355.667" type="curve" smooth="yes"/>
      <point x="329.667" y="250.333"/>
      <point x="488" y="253"/>
      <point x="488" y="157" type="curve" smooth="yes"/>
      <point x="488" y="123"/>
      <point x="468.667" y="80"/>
      <point x="419.667" y="80" type="curve" smooth="yes"/>
      <point x="372.333" y="80"/>
      <point x="342.333" y="94"/>
      <point x="342.333" y="125.667" type="curve" smooth="yes"/>
      <point x="342.333" y="131"/>
      <point x="343.333" y="137.333"/>
      <point x="344.667" y="143.333" type="curve"/>
      <point x="240.333" y="143.333" type="line"/>
      <point x="237.333" y="131.333"/>
      <point x="236" y="121.667"/>
      <point x="236" y="112" type="curve" smooth="yes"/>
      <point x="236" y="40.3333"/>
      <point x="304.667" y="-12.6667"/>
      <point x="395" y="-12.6667" type="curve" smooth="yes"/>
      <point x="511.667" y="-12.6667"/>
      <point x="598" y="55"/>
      <point x="598" y="186" type="curve" smooth="yes"/>
      <point x="598" y="309.333"/>
      <point x="447" y="328"/>
      <point x="447" y="380.333" type="curve" smooth="yes"/>
      <point x="447" y="437"/>
      <point x="620.667" y="480.333"/>
      <point x="620.667" y="610.333" type="curve" smooth="yes"/>
      <point x="620.667" y="698.667"/>
      <point x="539" y="736"/>
      <point x="440.667" y="736" type="curve" smooth="yes"/>
      <point x="301.667" y="736"/>
      <point x="202.667" y="672.667"/>
      <point x="178.333" y="567.667" type="curve" smooth="yes"/>
    </contour>
  </outline>
</glyph>
<glyph name="Dcroat" format="2">
  <advance width="722"/>
  <unicode hex="0110"/>
  <outline>
    <component base="D" xOffset="13.3333"/>
    <contour>
      <point x="93.3333" y="403.667" type="line"/>
      <point x="73.6667" y="318.333" type="line"/>
      <point x="427.333" y="318.333" type="line"/>
      <point x="447" y="403.667" type="line"/>
    </contour>
  </outline>
</glyph>
<glyph name="dotlessi" format="2">
  <advance width="241"/>
  <unicode hex="0131"/>
  <anchor x="113" y="-60" name="bottom"/>
  <anchor x="242" y="580" name="top"/>
  <outline>
    <contour>
      <point x="173.333" y="0" type="line"/>
      <point x="288.333" y="500" type="line"/>
      <point x="183.333" y="500" type="line"/>
      <point x="68.3333" y="0" type="line"/>
    </contour>
  </outline>
</glyph>
<glyph name="Lslash" format="2">
  <advance width="609"/>
  <unicode hex="0141"/>
  <outline>
    <contour>
      <point x="571.333" y="0" type="line"/>
      <point x="593.667" y="96.3333" type="line"/>
      <point x="272.333" y="96.3333" type="line"/>
      <point x="342.333" y="399.333" type="line"/>
      <point x="475" y="506" type="line"/>
      <point x="497" y="601.333" type="line"/>
      <point x="364.333" y="494" type="line"/>
      <point x="417" y="722" type="line"/>
      <point x="299.667" y="722" type="line"/>
      <point x="220.333" y="378.667" type="line"/>
      <point x="93.6667" y="277" type="line"/>
      <point x="72.3333" y="183.667" type="line"/>
      <point x="198.333" y="284.667" type="line"/>
      <point x="132.667" y="0" type="line"/>
    </contour>
  </outline>
</glyph>
<glyph name="tbar" format="2">
  <advance width="370"/>
  <unicode hex="0167"/>
  <outline>
    <component base="t"/>
    <contour>
      <point x="133" y="316.333" type="line"/>
      <point x="116.667" y="244.667" type="line"/>
      <point x="370" y="244.667" type="line"/>
      <point x="386.333" y="316.333" type="line"/>
    </contour>
  </outline>
</glyph>
<glyph name="uni01C0" format="2">
  <advance width="344"/>
  <unicode hex="01C0"/>
  <outline>
    <contour>
      <point x="141.333" y="-258" type="line"/>
      <point x="385.333" y="796" type="line"/>
      <point x="327.667" y="796" type="line"/>
      <point x="83.6667" y="-258" type="line"/>
    </contour>
  </outline>
</glyph>
<glyph name="uni0255" format="2">
  <advance width="555"/>
  <unicode hex="0255"/>
  <outline>
    <contour>
      <point x="315.667" y="57" type="curve" smooth="yes"/>
      <point x="295" y="57"/>
      <point x="258.667" y="61"/>
      <point x="237" y="76" type="curve"/>
      <point x="271" y="117"/>
      <point x="349.667" y="172.667"/>
      <point x="399" y="172.667" type="curve" smooth="yes"/>
      <point x="424.667" y="172.667"/>
      <point x="441" y="158.667"/>
      <point x="441" y="134.667" type="curve" smooth="yes"/>
      <point x="441" y="87.3333"/>
      <point x="371.667" y="57"/>
    </contour>
    <contour>
      <point x="537" y="147.667" type="curve" smooth="yes"/>
      <point x="537" y="203.333"/>
      <point x="492.333" y="238.333"/>
      <point x="434" y="238.333" type="curve" smooth="yes"/>
      <point x="295.333" y="238.333"/>
      <point x="131.667" y="97"/>
      <point x="20" y="-129.333" type="curve"/>
      <point x="77" y="-150" type="line"/>
      <point x="110" y="-89"/>
      <point x="141.333" y="-38"/>
      <point x="182.333" y="7" type="curve"/>
      <point x="209" y="-6.33333"/>
      <point x="252" y="-15.3333"/>
      <point x="300.667" y="-15.3333" type="curve" smooth="yes"/>
      <point x="407" y="-15.3333"/>
      <point x="537" y="54.6667"/>
    </contour>
    <contour>
      <point x="103" y="158.333" type="curve" smooth="yes"/>
      <point x="103" y="99.6667"/>
      <point x="124.667" y="54.6667"/>
      <point x="157.667" y="24.6667" type="curve"/>
      <point x="223.333" y="90.3333" type="line"/>
      <point x="210.667" y="113.667"/>
      <point x="207" y="140.667"/>
      <point x="207" y="165.667" type="curve" smooth="yes"/>
      <point x="207" y="258.667"/>
      <point x="258.333" y="440.667"/>
      <point x="383.667" y="440.667" type="curve" smooth="yes"/>
      <point x="436.667" y="440.667"/>
      <point x="458.333" y="409.333"/>
      <point x="458.333" y="366.333" type="curve" smooth="yes"/>
      <point x="458.333" y="355.667"/>
      <point x="457" y="345.667"/>
      <point x="455" y="335.333" type="curve"/>
      <point x="561.333" y="335.333" type="line"/>
      <point x="564.333" y="351.333"/>
      <point x="566" y="366"/>
      <point x="566" y="380" type="curve" smooth="yes"/>
      <point x="566" y="473.667"/>
      <point x="500" y="512.667"/>
      <point x="405.667" y="512.667" type="curve" smooth="yes"/>
      <point x="212" y="512.667"/>
      <point x="103" y="324.333"/>
    </contour>
  </outline>
</glyph>
<glyph name="uni025A" format="2">
  <advance width="766"/>
  <unicode hex="025A"/>
  <outline>
    <contour>
      <point x="93.6667" y="166" type="line"/>
      <point x="93.6667" y="64.6667"/>
      <point x="151.667" y="-12.6667"/>
      <point x="275.667" y="-12.6667" type="curve" smooth="yes"/>
      <point x="464" y="-12.6667"/>
      <point x="576.667" y="166.333"/>
      <point x="576.667" y="334" type="curve" smooth="yes"/>
      <point x="576.667" y="445"/>
      <point x="522.667" y="512.667"/>
      <point x="392" y="512.667" type="curve" smooth="yes"/>
      <point x="265.333" y="512.667"/>
      <point x="174.333" y="448"/>
      <point x="132" y="340.333" type="curve"/>
      <point x="242" y="340.333" type="line"/>
      <point x="261" y="397.667"/>
      <point x="308.333" y="440.667"/>
      <point x="373.667" y="440.667" type="curve" smooth="yes"/>
      <point x="440" y="440.667"/>
      <point x="469" y="396.333"/>
      <point x="469" y="336" type="curve" smooth="yes"/>
      <point x="469" y="230.667"/>
      <point x="419" y="59"/>
      <point x="291.333" y="59" type="curve" smooth="yes"/>
      <point x="222.667" y="59"/>
      <point x="201.333" y="103"/>
      <point x="201.333" y="151.667" type="curve"/>
    </contour>
    <contour>
      <point x="201.333" y="151.667" type="line"/>
      <point x="661" y="361" type="line"/>
      <point x="655.667" y="342.667" type="line" smooth="yes"/>
      <point x="647.333" y="315"/>
      <point x="642.667" y="295.667"/>
      <point x="642.667" y="279" type="curve" smooth="yes"/>
      <point x="642.667" y="234.333"/>
      <point x="672" y="208.333"/>
      <point x="728.333" y="208.333" type="curve" smooth="yes"/>
      <point x="785.667" y="208.333"/>
      <point x="826.333" y="252.667"/>
      <point x="841.667" y="319" type="curve"/>
      <point x="791.667" y="319" type="line"/>
      <point x="783.667" y="285"/>
      <point x="766.333" y="253"/>
      <point x="730" y="253" type="curve" smooth="yes"/>
      <point x="708" y="253"/>
      <point x="697" y="263"/>
      <point x="697" y="283" type="curve" smooth="yes"/>
      <point x="697" y="289"/>
      <point x="698" y="296"/>
      <point x="700" y="303" type="curve" smooth="yes"/>
      <point x="743.333" y="464.333" type="line"/>
      <point x="93.6667" y="166" type="line"/>
    </contour>
  </outline>
</glyph>
<glyph name="uni0260" format="2">
  <advance width="621"/>
  <unicode hex="0260"/>
  <outline>
    <component base="g"/>
    <contour>
      <point x="639" y="444" type="line"/>
      <point x="654" y="507.667" type="line" smooth="yes"/>
      <point x="665" y="553.333"/>
      <point x="680.333" y="563.333"/>
      <point x="713.667" y="563.333" type="curve" smooth="yes"/>
      <point x="735.333" y="563.333"/>
      <point x="750.333" y="559.333"/>
      <point x="763.333" y="550.667" type="curve"/>
      <point x="781" y="629.333" type="line"/>
      <point x="768" y="638.333"/>
      <point x="742.333" y="644.333"/>
      <point x="710.667" y="644.333" type="curve" smooth="yes"/>
      <point x="621" y="644.333"/>
      <point x="568.667" y="596.333"/>
      <point x="548.667" y="506.333" type="curve" smooth="yes"/>
      <point x="535" y="444" type="line"/>
    </contour>
  </outline>
</glyph>
<glyph name="uni0262" format="2">
  <advance width="564"/>
  <unicode hex="0262"/>
  <outline>
    <contour>
      <point x="610" y="363.667" type="line"/>
      <point x="610" y="449.667"/>
      <point x="539.333" y="512.667"/>
      <point x="424.667" y="512.667" type="curve" smooth="yes"/>
      <point x="224.333" y="512.667"/>
      <point x="91" y="359"/>
      <point x="91" y="181" type="curve" smooth="yes"/>
      <point x="91" y="50"/>
      <point x="162.667" y="-12.6667"/>
      <point x="307.333" y="-12.6667" type="curve" smooth="yes"/>
      <point x="371.667" y="-12.6667"/>
      <point x="457.667" y="-0.333333"/>
      <point x="527.667" y="22.6667" type="curve"/>
      <point x="584.667" y="273" type="line"/>
      <point x="368.667" y="273" type="line"/>
      <point x="351.667" y="199" type="line"/>
      <point x="472" y="199" type="line"/>
      <point x="444.667" y="82.6667" type="line"/>
      <point x="403.333" y="71.6667"/>
      <point x="361.333" y="65.3333"/>
      <point x="319.333" y="65.3333" type="curve" smooth="yes"/>
      <point x="237.667" y="65.3333"/>
      <point x="191" y="107"/>
      <point x="191" y="192" type="curve" smooth="yes"/>
      <point x="191" y="339"/>
      <point x="274" y="434.667"/>
      <point x="406" y="434.667" type="curve" smooth="yes"/>
      <point x="463.667" y="434.667"/>
      <point x="505.333" y="403.667"/>
      <point x="505.333" y="363.667" type="curve"/>
    </contour>
  </outline>
</glyph>
<glyph name="uni0263" format="2">
  <advance width="530"/>
  <unicode hex="0263"/>
  <outline>
    <contour>
      <point x="214" y="-117.667" type="curve" smooth="yes"/>
      <point x="214" y="-128"/>
      <point x="224" y="-132"/>
      <point x="233" y="-132" type="curve" smooth="yes"/>
      <point x="247" y="-132"/>
      <point x="253" y="-124"/>
      <point x="253" y="-113" type="curve" smooth="yes"/>
      <point x="253" y="-100"/>
      <point x="238" y="-19"/>
      <point x="228" y="30" type="curve" smooth="yes"/>
      <point x="130" y="500" type="line"/>
      <point x="250.333" y="500" type="line"/>
      <point x="338.333" y="45" type="line" smooth="yes"/>
      <point x="358.333" y="-60"/>
      <point x="362" y="-88.3333"/>
      <point x="362" y="-99" type="curve" smooth="yes"/>
      <point x="362" y="-166"/>
      <point x="292" y="-197"/>
      <point x="223.333" y="-197" type="curve" smooth="yes"/>
      <point x="164" y="-197"/>
      <point x="137" y="-169"/>
      <point x="137" y="-128" type="curve" smooth="yes"/>
      <point x="137" y="-98"/>
      <point x="151" y="-72"/>
      <point x="232" y="52" type="curve" smooth="yes"/>
      <point x="525" y="500" type="line"/>
      <point x="630" y="500" type="line"/>
      <point x="286" y="-3" type="line" smooth="yes"/>
      <point x="226" y="-91"/>
      <point x="214" y="-109"/>
    </contour>
  </outline>
</glyph>
<glyph name="uni0264" format="2">
  <advance width="579"/>
  <unicode hex="0264"/>
  <outline>
    <contour>
      <point x="187" y="55.6667" type="curve" smooth="yes"/>
      <point x="187" y="14.6667"/>
      <point x="222" y="-14"/>
      <point x="278" y="-14" type="curve" smooth="yes"/>
      <point x="346" y="-14"/>
      <point x="431.667" y="29"/>
      <point x="431.667" y="110" type="curve" smooth="yes"/>
      <point x="431.667" y="131.333"/>
      <point x="422.667" y="174.667"/>
      <point x="405.667" y="213.333" type="curve" smooth="yes"/>
      <point x="300.333" y="456" type="line" smooth="yes"/>
      <point x="284" y="494"/>
      <point x="251.333" y="514"/>
      <point x="222.667" y="514" type="curve" smooth="yes"/>
      <point x="179" y="514"/>
      <point x="102.333" y="466.333"/>
      <point x="102.333" y="431" type="curve" smooth="yes"/>
      <point x="102.333" y="425.333"/>
      <point x="104.333" y="423.333"/>
      <point x="109.333" y="423.333" type="curve" smooth="yes"/>
      <point x="115.333" y="423.333"/>
      <point x="122.333" y="427.333"/>
      <point x="127.333" y="430.333" type="curve"/>
      <point x="138.333" y="437.333"/>
      <point x="148.333" y="442.333"/>
      <point x="159.333" y="442.333" type="curve" smooth="yes"/>
      <point x="179.333" y="442.333"/>
      <point x="205" y="429"/>
      <point x="217.333" y="398.333" type="curve" smooth="yes"/>
      <point x="319.667" y="150" type="line" smooth="yes"/>
      <point x="329" y="126.333"/>
      <point x="332" y="98.6667"/>
      <point x="332" y="85" type="curve" smooth="yes"/>
      <point x="332" y="61"/>
      <point x="313" y="51"/>
      <point x="294" y="51" type="curve" smooth="yes"/>
      <point x="275.333" y="51"/>
      <point x="268" y="62.3333"/>
      <point x="268" y="76.6667" type="curve" smooth="yes"/>
      <point x="268" y="88.6667"/>
      <point x="274.667" y="123"/>
      <point x="310" y="161.333" type="curve"/>
      <point x="517.333" y="394" type="line" smooth="yes"/>
      <point x="552" y="432.667"/>
      <point x="593.333" y="449"/>
      <point x="616.333" y="449" type="curve" smooth="yes"/>
      <point x="629.333" y="449"/>
      <point x="637.333" y="443"/>
      <point x="644.333" y="437" type="curve"/>
      <point x="649.333" y="433"/>
      <point x="653.333" y="430"/>
      <point x="658.333" y="430" type="curve" smooth="yes"/>
      <point x="665.333" y="430"/>
      <point x="673.333" y="436"/>
      <point x="673.333" y="451.667" type="curve" smooth="yes"/>
      <point x="673.333" y="479"/>
      <point x="648.667" y="514"/>
      <point x="613.333" y="514" type="curve" smooth="yes"/>
      <point x="577" y="514"/>
      <point x="519" y="489.333"/>
      <point x="468" y="433" type="curve" smooth="yes"/>
      <point x="265.333" y="209" type="line" smooth="yes"/>
      <point x="206" y="144.333"/>
      <point x="187" y="85.6667"/>
    </contour>
  </outline>
</glyph>
<glyph name="uni0265" format="2">
  <advance width="573"/>
  <unicode hex="0265"/>
  <outline>
    <contour>
      <point x="84.6667" y="108.667" type="curve" smooth="yes"/>
      <point x="84.6667" y="29"/>
      <point x="135" y="-12.6667"/>
      <point x="232.333" y="-12.6667" type="curve" smooth="yes"/>
      <point x="321.667" y="-12.6667"/>
      <point x="363" y="16"/>
      <point x="408.667" y="65" type="curve"/>
      <point x="351" y="-200" type="line"/>
      <point x="460.667" y="-200" type="line"/>
      <point x="614.333" y="500" type="line"/>
      <point x="509.333" y="500" type="line"/>
      <point x="438" y="191.667" type="line" smooth="yes"/>
      <point x="421.333" y="118.333"/>
      <point x="359.333" y="54.3333"/>
      <point x="284" y="54.3333" type="curve" smooth="yes"/>
      <point x="228.333" y="54.3333"/>
      <point x="195" y="89.3333"/>
      <point x="195" y="141.667" type="curve" smooth="yes"/>
      <point x="195" y="153.333"/>
      <point x="197.333" y="166"/>
      <point x="200.333" y="179.667" type="curve" smooth="yes"/>
      <point x="274" y="500" type="line"/>
      <point x="169" y="500" type="line"/>
      <point x="92.3333" y="167.667" type="line" smooth="yes"/>
      <point x="87.3333" y="146.333"/>
      <point x="84.6667" y="127"/>
    </contour>
  </outline>
</glyph>
<glyph name="uni0267" format="2">
  <advance width="574"/>
  <unicode hex="0267"/>
  <outline>
    <component base="uni0266"/>
    <contour>
      <point x="203" y="-144" type="line"/>
      <point x="227.667" y="-177.333"/>
      <point x="280.667" y="-200"/>
      <point x="339" y="-200" type="curve" smooth="yes"/>
      <point x="430.333" y="-200"/>
      <point x="499.667" y="-145.333"/>
      <point x="518.667" y="-62" type="curve" smooth="yes"/>
      <point x="532.667" y="0" type="line"/>
      <point x="427.667" y="0" type="line"/>
      <point x="415.333" y="-52" type="line" smooth="yes"/>
      <point x="405.333" y="-94.3333"/>
      <point x="376.333" y="-117.667"/>
      <point x="341" y="-117.667" type="curve" smooth="yes"/>
      <point x="314.667" y="-117.667"/>
      <point x="290" y="-105.667"/>
      <point x="276" y="-86" type="curve"/>
    </contour>
  </outline>
</glyph>
<glyph name="uni0268" format="2">
  <advance width="290"/>
  <unicode hex="0268"/>
  <outline>
    <component base="i"/>
    <contour>
      <point x="64.6667" y="291.333" type="line"/>
      <point x="49" y="222" type="line"/>
      <point x="319" y="222" type="line"/>
      <point x="334.667" y="291.333" type="line"/>
    </contour>
  </outline>
</glyph>
<glyph name="uni026B" format="2">
  <advance width="272"/>
  <unicode hex="026B"/>
  <outline>
    <component base="l"/>
    <contour>
      <point x="194" y="436.333" type="line"/>
      <point x="185.667" y="441.333" type="line" smooth="yes"/>
      <point x="171.333" y="450"/>
      <point x="157.667" y="453.667"/>
      <point x="141.333" y="453.667" type="curve" smooth="yes"/>
      <point x="92.6667" y="453.667"/>
      <point x="53.3333" y="414.667"/>
      <point x="32" y="347" type="curve"/>
      <point x="84.6667" y="347" type="line"/>
      <point x="96" y="377.333"/>
      <point x="110.667" y="391"/>
      <point x="132" y="391" type="curve" smooth="yes"/>
      <point x="147" y="391"/>
      <point x="160.667" y="383"/>
      <point x="186" y="367.333" type="curve" smooth="yes"/>
      <point x="194" y="362.333" type="line"/>
    </contour>
    <contour>
      <point x="259.333" y="337.333" type="line"/>
      <point x="267.667" y="332.333" type="line" smooth="yes"/>
      <point x="282" y="323.667"/>
      <point x="295.667" y="320"/>
      <point x="312" y="320" type="curve" smooth="yes"/>
      <point x="360.667" y="320"/>
      <point x="400" y="359"/>
      <point x="421.333" y="426.667" type="curve"/>
      <point x="368.667" y="426.667" type="line"/>
      <point x="357.333" y="396.333"/>
      <point x="342.667" y="382.667"/>
      <point x="321.333" y="382.667" type="curve" smooth="yes"/>
      <point x="306.333" y="382.667"/>
      <point x="292.667" y="390.667"/>
      <point x="267.333" y="406.333" type="curve" smooth="yes"/>
      <point x="259.333" y="411.333" type="line"/>
    </contour>
  </outline>
</glyph>
<glyph name="uni026C" format="2">
  <advance width="522"/>
  <unicode hex="026C"/>
  <outline>
    <component base="l" xOffset="137"/>
    <contour>
      <point x="534.333" y="396.667" type="line"/>
      <point x="486.333" y="370"/>
      <point x="419.667" y="347"/>
      <point x="373.667" y="347" type="curve" smooth="yes"/>
      <point x="290.333" y="347"/>
      <point x="227.333" y="364.667"/>
      <point x="227.333" y="417" type="curve" smooth="yes"/>
      <point x="227.333" y="443.333"/>
      <point x="244.333" y="462.667"/>
      <point x="282.667" y="462.667" type="curve" smooth="yes"/>
      <point x="302.667" y="462.667"/>
      <point x="332.333" y="457.333"/>
      <point x="350.333" y="449.333" type="curve"/>
      <point x="360.333" y="505.333" type="line"/>
      <point x="338.333" y="518.333"/>
      <point x="298" y="526.333"/>
      <point x="269.333" y="526.333" type="curve" smooth="yes"/>
      <point x="175" y="526.333"/>
      <point x="131.333" y="473.667"/>
      <point x="131.333" y="404.333" type="curve" smooth="yes"/>
      <point x="131.333" y="309.667"/>
      <point x="233.667" y="275.333"/>
      <point x="335.667" y="275.333" type="curve" smooth="yes"/>
      <point x="411.667" y="275.333"/>
      <point x="496.667" y="308"/>
      <point x="555.667" y="342" type="curve"/>
    </contour>
  </outline>
</glyph>
<glyph name="uni0272" format="2">
  <advance width="619"/>
  <unicode hex="0272"/>
  <outline>
    <component base="n"/>
    <contour>
      <point x="86.3333" y="0" type="line"/>
      <point x="73.6667" y="-55.3333" type="line" smooth="yes"/>
      <point x="62.3333" y="-105"/>
      <point x="38" y="-121.667"/>
      <point x="-21" y="-121.667" type="curve" smooth="yes"/>
      <point x="-47" y="-121.667" type="line"/>
      <point x="-64.6667" y="-200" type="line"/>
      <point x="-37.6667" y="-200" type="line" smooth="yes"/>
      <point x="76.3333" y="-200"/>
      <point x="149.333" y="-186"/>
      <point x="177.333" y="-62" type="curve" smooth="yes"/>
      <point x="191.333" y="0" type="line"/>
    </contour>
  </outline>
</glyph>
<glyph name="uni0273" format="2">
  <advance width="620"/>
  <unicode hex="0273"/>
  <outline>
    <component base="n"/>
    <contour>
      <point x="427.333" y="0" type="line"/>
      <point x="412.333" y="-67"/>
      <point x="409.333" y="-85"/>
      <point x="409.333" y="-103" type="curve" smooth="yes"/>
      <point x="409.333" y="-157"/>
      <point x="438.333" y="-197"/>
      <point x="503.333" y="-197" type="curve" smooth="yes"/>
      <point x="601.667" y="-197" type="line"/>
      <point x="620.333" y="-113.333" type="line"/>
      <point x="558.333" y="-113.333" type="line" smooth="yes"/>
      <point x="530.333" y="-113.333"/>
      <point x="516.333" y="-100.333"/>
      <point x="516.333" y="-77.3333" type="curve" smooth="yes"/>
      <point x="516.333" y="-68.3333"/>
      <point x="518.333" y="-59.3333"/>
      <point x="532.333" y="0" type="curve"/>
    </contour>
  </outline>
</glyph>
<glyph name="uni0274" format="2">
  <advance width="615"/>
  <unicode hex="0274"/>
  <outline>
    <contour>
      <point x="534" y="0" type="line"/>
      <point x="649" y="500" type="line"/>
      <point x="554.333" y="500" type="line"/>
      <point x="458.333" y="80" type="line"/>
      <point x="485" y="80" type="line"/>
      <point x="321.333" y="500" type="line"/>
      <point x="201.333" y="500" type="line"/>
      <point x="86.3333" y="0" type="line"/>
      <point x="182" y="0" type="line"/>
      <point x="279" y="420" type="line"/>
      <point x="253.333" y="420" type="line"/>
      <point x="414.333" y="0" type="line"/>
    </contour>
  </outline>
</glyph>
<glyph name="uni027C" format="2">
  <advance width="401"/>
  <unicode hex="027C"/>
  <outline>
    <component base="r"/>
    <contour>
      <point x="145.333" y="-199.333" type="line"/>
      <point x="191.333" y="0" type="line"/>
      <point x="86.3333" y="0" type="line"/>
      <point x="40.3333" y="-199.333" type="line"/>
    </contour>
  </outline>
</glyph>
<glyph name="uni027E" format="2">
  <advance width="462"/>
  <unicode hex="027E"/>
  <outline>
    <contour>
      <point x="86.6667" y="0" type="line"/>
      <point x="191.667" y="0" type="line"/>
      <point x="265" y="326" type="line" smooth="yes"/>
      <point x="282" y="400"/>
      <point x="320.667" y="430.333"/>
      <point x="387.333" y="430.333" type="curve" smooth="yes"/>
      <point x="433" y="430.333"/>
      <point x="468" y="416"/>
      <point x="480.333" y="401.667" type="curve"/>
      <point x="536.667" y="474" type="line"/>
      <point x="500.667" y="498.333"/>
      <point x="447.333" y="512.667"/>
      <point x="386.667" y="512.667" type="curve" smooth="yes"/>
      <point x="266" y="512.667"/>
      <point x="189.667" y="457.333"/>
      <point x="161" y="330" type="curve" smooth="yes"/>
    </contour>
  </outline>
</glyph>
<glyph name="uni027F" format="2">
  <advance width="462"/>
  <unicode hex="027F"/>
  <outline>
    <contour>
      <point x="145.667" y="474" type="curve"/>
      <point x="201" y="401.667" type="line"/>
      <point x="225.333" y="418"/>
      <point x="258.667" y="430.333"/>
      <point x="297" y="430.333" type="curve" smooth="yes"/>
      <point x="362" y="430.333"/>
      <point x="388.667" y="396"/>
      <point x="388.667" y="352" type="curve" smooth="yes"/>
      <point x="388.667" y="332.667"/>
      <point x="386.333" y="314"/>
      <point x="380.333" y="287" type="curve" smooth="yes"/>
      <point x="314.333" y="0" type="line"/>
      <point x="419.333" y="0" type="line"/>
      <point x="485.333" y="287" type="line" smooth="yes"/>
      <point x="491.333" y="313"/>
      <point x="494.333" y="338"/>
      <point x="494.333" y="360.667" type="curve" smooth="yes"/>
      <point x="494.333" y="453"/>
      <point x="439.667" y="512"/>
      <point x="288.333" y="512" type="curve" smooth="yes"/>
      <point x="248.333" y="512"/>
      <point x="182" y="496.333"/>
    </contour>
  </outline>
</glyph>
<glyph name="uni0283" format="2">
  <advance width="369"/>
  <unicode hex="0283"/>
  <outline>
    <contour>
      <point x="294.333" y="267" type="line"/>
      <point x="297.333" y="300" type="line" smooth="yes"/>
      <point x="310.333" y="441"/>
      <point x="320" y="528"/>
      <point x="328.667" y="565.667" type="curve" smooth="yes"/>
      <point x="342.667" y="628.333"/>
      <point x="364" y="654.333"/>
      <point x="407" y="654.333" type="curve" smooth="yes"/>
      <point x="424.333" y="654.333"/>
      <point x="439.333" y="650.333"/>
      <point x="451.333" y="642.333" type="curve"/>
      <point x="509" y="721.667" type="line"/>
      <point x="497" y="730.667"/>
      <point x="476" y="734.667"/>
      <point x="443" y="734.667" type="curve" smooth="yes"/>
      <point x="328" y="734.667"/>
      <point x="257.333" y="684"/>
      <point x="230.667" y="568" type="curve" smooth="yes"/>
      <point x="221.333" y="527"/>
      <point x="205.667" y="426"/>
      <point x="194.667" y="300" type="curve" smooth="yes"/>
      <point x="191.667" y="267" type="line"/>
    </contour>
    <contour>
      <point x="191.667" y="267.667" type="line"/>
      <point x="188.667" y="234.667" type="line" smooth="yes"/>
      <point x="175.667" y="93.6667"/>
      <point x="166" y="6.66667"/>
      <point x="157.333" y="-31" type="curve" smooth="yes"/>
      <point x="143.333" y="-93.6667"/>
      <point x="122" y="-119.667"/>
      <point x="79" y="-119.667" type="curve" smooth="yes"/>
      <point x="61.6667" y="-119.667"/>
      <point x="46.6667" y="-115.667"/>
      <point x="34.6667" y="-107.667" type="curve"/>
      <point x="-23" y="-187" type="line"/>
      <point x="-11" y="-196"/>
      <point x="10" y="-200"/>
      <point x="43" y="-200" type="curve" smooth="yes"/>
      <point x="158" y="-200"/>
      <point x="228.667" y="-149.333"/>
      <point x="255.333" y="-33.3333" type="curve" smooth="yes"/>
      <point x="264.667" y="7.66667"/>
      <point x="280.333" y="108.667"/>
      <point x="291.333" y="234.667" type="curve" smooth="yes"/>
      <point x="294.333" y="267.667" type="line"/>
    </contour>
  </outline>
  <guideline angle="0" x="0" y="267"/>
</glyph>
<glyph name="uni0284" format="2">
  <advance width="462"/>
  <unicode hex="0284"/>
  <outline>
    <contour>
      <point x="99" y="284.667" type="line"/>
      <point x="83" y="215.333" type="line"/>
      <point x="359.667" y="215.333" type="line"/>
      <point x="375.667" y="284.667" type="line"/>
    </contour>
    <contour>
      <point x="274.333" y="218" type="line"/>
      <point x="339.333" y="500" type="line" smooth="yes"/>
      <point x="349" y="541"/>
      <point x="367" y="547"/>
      <point x="386" y="547" type="curve" smooth="yes"/>
      <point x="411.333" y="547"/>
      <point x="430" y="536"/>
      <point x="440.667" y="517.333" type="curve"/>
      <point x="517" y="578" type="line"/>
      <point x="497" y="604"/>
      <point x="447.667" y="636"/>
      <point x="390.667" y="636" type="curve" smooth="yes"/>
      <point x="312" y="636"/>
      <point x="254.667" y="586.667"/>
      <point x="234.667" y="500" type="curve" smooth="yes"/>
      <point x="169.667" y="218" type="line"/>
    </contour>
    <contour>
      <point x="169.667" y="218" type="line"/>
      <point x="104.667" y="-64" type="line" smooth="yes"/>
      <point x="95" y="-105"/>
      <point x="77" y="-111"/>
      <point x="58" y="-111" type="curve" smooth="yes"/>
      <point x="32.6667" y="-111"/>
      <point x="14" y="-100"/>
      <point x="3.33333" y="-81.3333" type="curve"/>
      <point x="-73" y="-142" type="line"/>
      <point x="-53" y="-168"/>
      <point x="-3.66667" y="-200"/>
      <point x="53.3333" y="-200" type="curve" smooth="yes"/>
      <point x="132" y="-200"/>
      <point x="189.333" y="-150.667"/>
      <point x="209.333" y="-64" type="curve" smooth="yes"/>
      <point x="274.333" y="218" type="line"/>
    </contour>
  </outline>
  <guideline angle="0" x="0" y="218"/>
</glyph>
<glyph name="uni0288" format="2">
  <advance width="370"/>
  <unicode hex="0288"/>
  <outline>
    <contour>
      <point x="225" y="-47.6667" type="curve" smooth="yes"/>
      <point x="333.667" y="428.333" type="line"/>
      <point x="446.667" y="428.333" type="line"/>
      <point x="463" y="500" type="line"/>
      <point x="350" y="500" type="line"/>
      <point x="382.667" y="639.667" type="line"/>
      <point x="267" y="595.667" type="line"/>
      <point x="245" y="500" type="line"/>
      <point x="151.667" y="500" type="line"/>
      <point x="135.333" y="428.333" type="line"/>
      <point x="228.667" y="428.333" type="line"/>
      <point x="116.333" y="-61" type="line" smooth="yes"/>
      <point x="111.667" y="-81"/>
      <point x="110" y="-98.3333"/>
      <point x="110" y="-109.333" type="curve" smooth="yes"/>
      <point x="110" y="-167"/>
      <point x="153.667" y="-200"/>
      <point x="222" y="-200" type="curve" smooth="yes"/>
      <point x="246" y="-200"/>
      <point x="278.333" y="-196"/>
      <point x="309" y="-186.333" type="curve"/>
      <point x="325" y="-116.667" type="line"/>
      <point x="306.333" y="-122.667"/>
      <point x="285.667" y="-125.667"/>
      <point x="271" y="-125.667" type="curve" smooth="yes"/>
      <point x="235" y="-125.667"/>
      <point x="220.667" y="-108.667"/>
      <point x="220.667" y="-80.3333" type="curve" smooth="yes"/>
      <point x="220.667" y="-70.6667"/>
      <point x="222.333" y="-60"/>
    </contour>
  </outline>
  <guideline angle="77" x="130" y="-2"/>
  <guideline angle="77" x="221" y="0"/>
</glyph>
<glyph name="uni028A" format="2">
  <advance width="593"/>
  <unicode hex="028A"/>
  <outline>
    <contour>
      <point x="664.333" y="429.333" type="line"/>
      <point x="680.333" y="500" type="line"/>
      <point x="480.667" y="500" type="line"/>
      <point x="493.667" y="475"/>
      <point x="498.667" y="423.667"/>
      <point x="498.667" y="376.667" type="curve" smooth="yes"/>
      <point x="498.667" y="243.333"/>
      <point x="446.333" y="58.6667"/>
      <point x="305.667" y="58.6667" type="curve" smooth="yes"/>
      <point x="245" y="58.6667"/>
      <point x="209.333" y="93"/>
      <point x="209.333" y="168.333" type="curve" smooth="yes"/>
      <point x="209.333" y="272.333"/>
      <point x="276.333" y="430.333"/>
      <point x="343.333" y="500" type="curve"/>
      <point x="142.333" y="500" type="line"/>
      <point x="126.333" y="428.667" type="line"/>
      <point x="180.333" y="428.667" type="line" smooth="yes"/>
      <point x="191.333" y="428.667"/>
      <point x="200.333" y="427.667"/>
      <point x="199.333" y="416.667" type="curve" smooth="yes"/>
      <point x="198.333" y="407.667"/>
      <point x="191.333" y="400.667"/>
      <point x="185" y="394.667" type="curve"/>
      <point x="121.333" y="337.667"/>
      <point x="88.3333" y="242"/>
      <point x="88.3333" y="166.333" type="curve" smooth="yes"/>
      <point x="88.3333" y="54"/>
      <point x="162" y="-12.6667"/>
      <point x="289.667" y="-12.6667" type="curve" smooth="yes"/>
      <point x="480.333" y="-12.6667"/>
      <point x="609.333" y="136.333"/>
      <point x="609.333" y="309" type="curve" smooth="yes"/>
      <point x="609.333" y="348.667"/>
      <point x="602.333" y="374.667"/>
      <point x="590" y="392.333" type="curve" smooth="yes"/>
      <point x="585.333" y="398.667"/>
      <point x="582.333" y="404.667"/>
      <point x="582.333" y="410.667" type="curve" smooth="yes"/>
      <point x="582.333" y="425.667"/>
      <point x="595.333" y="430"/>
      <point x="608.333" y="429.333" type="curve"/>
    </contour>
  </outline>
</glyph>
<glyph name="uni028B" format="2">
  <advance width="580"/>
  <unicode hex="028B"/>
  <outline>
    <contour>
      <point x="599" y="353" type="curve" smooth="yes"/>
      <point x="599" y="423"/>
      <point x="583" y="486"/>
      <point x="557" y="514" type="curve"/>
      <point x="451.333" y="456" type="line"/>
      <point x="474.333" y="404"/>
      <point x="485.333" y="351"/>
      <point x="485.333" y="294.667" type="curve" smooth="yes"/>
      <point x="485.333" y="177"/>
      <point x="437.667" y="52"/>
      <point x="314.333" y="52" type="curve" smooth="yes"/>
      <point x="254.667" y="52"/>
      <point x="207.333" y="81"/>
      <point x="207.333" y="136.667" type="curve" smooth="yes"/>
      <point x="207.333" y="144"/>
      <point x="208.333" y="164"/>
      <point x="210.333" y="171" type="curve"/>
      <point x="287.333" y="500" type="line"/>
      <point x="182.333" y="500" type="line"/>
      <point x="106.333" y="173" type="line" smooth="yes"/>
      <point x="101.333" y="153"/>
      <point x="98.3333" y="133"/>
      <point x="98.3333" y="115.333" type="curve" smooth="yes"/>
      <point x="98.3333" y="36"/>
      <point x="160" y="-12"/>
      <point x="269" y="-12" type="curve" smooth="yes"/>
      <point x="475" y="-12"/>
      <point x="599" y="155"/>
    </contour>
  </outline>
</glyph>
<glyph name="uni0290" format="2">
  <advance width="622"/>
  <unicode hex="0290"/>
  <outline>
    <component base="z"/>
    <contour>
      <point x="395" y="74.3333" type="line"/>
      <point x="357" y="-89.6667" type="line" smooth="yes"/>
      <point x="355" y="-98.6667"/>
      <point x="354" y="-107"/>
      <point x="354" y="-115" type="curve" smooth="yes"/>
      <point x="354" y="-166"/>
      <point x="399" y="-200"/>
      <point x="468" y="-200" type="curve" smooth="yes"/>
      <point x="570" y="-200"/>
      <point x="625" y="-176"/>
      <point x="646.333" y="-87" type="curve"/>
      <point x="540.667" y="-87" type="line"/>
      <point x="532" y="-124"/>
      <point x="500" y="-143"/>
      <point x="467.667" y="-143" type="curve" smooth="yes"/>
      <point x="433" y="-143"/>
      <point x="412" y="-124.667"/>
      <point x="412" y="-97.6667" type="curve" smooth="yes"/>
      <point x="412" y="-93.6667"/>
      <point x="412" y="-88.6667"/>
      <point x="413" y="-84.6667" type="curve" smooth="yes"/>
      <point x="449.667" y="74.3333" type="line"/>
    </contour>
  </outline>
</glyph>
<glyph name="uni0291" format="2">
  <advance width="595"/>
  <unicode hex="0291"/>
  <outline>
    <contour>
      <point x="295.333" y="0" type="line"/>
      <point x="312.667" y="74.3333" type="line"/>
      <point x="178" y="74.3333" type="line"/>
      <point x="522" y="410.333" type="line"/>
      <point x="542.667" y="500" type="line"/>
      <point x="177.333" y="500" type="line"/>
      <point x="160.333" y="425.667" type="line"/>
      <point x="411" y="425.667" type="line"/>
      <point x="68" y="89.6667" type="line"/>
      <point x="47.3333" y="0" type="line"/>
    </contour>
    <contour>
      <point x="207" y="-125" type="line"/>
      <point x="267.667" y="-125" type="line"/>
      <point x="318.667" y="0" type="line"/>
      <point x="325.667" y="-2"/>
      <point x="368" y="-2"/>
      <point x="380" y="-2" type="curve" smooth="yes"/>
      <point x="489" y="-2"/>
      <point x="593" y="51"/>
      <point x="593" y="145" type="curve" smooth="yes"/>
      <point x="593" y="201"/>
      <point x="556" y="221"/>
      <point x="505" y="221" type="curve" smooth="yes"/>
      <point x="421" y="221"/>
      <point x="328" y="169"/>
      <point x="280" y="53" type="curve" smooth="yes"/>
    </contour>
    <contour>
      <point x="399.667" y="72.3333" type="curve" smooth="yes"/>
      <point x="391.667" y="72.3333"/>
      <point x="364.333" y="72.3333"/>
      <point x="355.333" y="74.3333" type="curve"/>
      <point x="381.333" y="133.333"/>
      <point x="430" y="168"/>
      <point x="479" y="168" type="curve" smooth="yes"/>
      <point x="501" y="168"/>
      <point x="509" y="160"/>
      <point x="509" y="142" type="curve" smooth="yes"/>
      <point x="509" y="87"/>
      <point x="439.667" y="72.3333"/>
    </contour>
  </outline>
</glyph>
<glyph name="uni0292" format="2">
  <advance width="511"/>
  <unicode hex="0292"/>
  <anchor x="360" y="580" name="top"/>
  <outline>
    <contour>
      <point x="187" y="176.667" type="line"/>
      <point x="253" y="176.667" type="line" smooth="yes"/>
      <point x="322.333" y="176.667"/>
      <point x="382.333" y="149.333"/>
      <point x="382.333" y="63" type="curve" smooth="yes"/>
      <point x="382.333" y="-22.6667"/>
      <point x="323.333" y="-124.333"/>
      <point x="225.667" y="-124.333" type="curve" smooth="yes"/>
      <point x="153.667" y="-124.333"/>
      <point x="121" y="-102.667"/>
      <point x="121" y="-60" type="curve" smooth="yes"/>
      <point x="121" y="-51.3333"/>
      <point x="121.667" y="-40"/>
      <point x="123.667" y="-30.6667" type="curve"/>
      <point x="24.6667" y="-30.6667" type="line"/>
      <point x="21" y="-46.3333"/>
      <point x="19.6667" y="-60.3333"/>
      <point x="19.6667" y="-73.6667" type="curve" smooth="yes"/>
      <point x="19.6667" y="-161.667"/>
      <point x="96" y="-200"/>
      <point x="206.667" y="-200" type="curve" smooth="yes"/>
      <point x="370.333" y="-200"/>
      <point x="489.333" y="-72.6667"/>
      <point x="489.333" y="77" type="curve" smooth="yes"/>
      <point x="489.333" y="170.667"/>
      <point x="434" y="232.667"/>
      <point x="339.333" y="241" type="curve"/>
      <point x="542.333" y="409.333" type="line"/>
      <point x="563" y="500" type="line"/>
      <point x="165.333" y="500" type="line"/>
      <point x="146" y="417.333" type="line"/>
      <point x="429.333" y="417.333" type="line"/>
      <point x="197.667" y="227.333" type="line"/>
    </contour>
  </outline>
</glyph>
<glyph name="uni0294" format="2">
  <advance width="489"/>
  <unicode hex="0294"/>
  <outline>
    <contour>
      <point x="240.333" y="412" type="line"/>
      <point x="145.333" y="0" type="line"/>
      <point x="254.667" y="0" type="line"/>
      <point x="349.667" y="412" type="line"/>
    </contour>
    <contour>
      <point x="337.333" y="369" type="line"/>
      <point x="482.333" y="381"/>
      <point x="571.667" y="460"/>
      <point x="571.667" y="579" type="curve" smooth="yes"/>
      <point x="571.667" y="678.333"/>
      <point x="490.333" y="734.667"/>
      <point x="374.667" y="734.667" type="curve" smooth="yes"/>
      <point x="336" y="734.667"/>
      <point x="288" y="728.667"/>
      <point x="230" y="716.667" type="curve"/>
      <point x="211.667" y="635.333" type="line"/>
      <point x="249.667" y="645.333"/>
      <point x="293.667" y="650.333"/>
      <point x="326.667" y="650.333" type="curve" smooth="yes"/>
      <point x="413.333" y="650.333"/>
      <point x="453.333" y="615.333"/>
      <point x="453.333" y="565" type="curve" smooth="yes"/>
      <point x="453.333" y="464.667"/>
      <point x="379.333" y="412"/>
      <point x="240.333" y="412" type="curve"/>
    </contour>
  </outline>
</glyph>
<glyph name="uni0295" format="2">
  <advance width="489"/>
  <unicode hex="0295"/>
  <outline>
    <contour>
      <point x="329.333" y="412" type="line"/>
      <point x="236.333" y="0" type="line"/>
      <point x="344.667" y="0" type="line"/>
      <point x="439.667" y="412" type="line"/>
    </contour>
    <contour>
      <point x="439.667" y="412" type="line"/>
      <point x="336.667" y="421"/>
      <point x="293.333" y="460"/>
      <point x="293.333" y="530" type="curve" smooth="yes"/>
      <point x="293.333" y="604.667"/>
      <point x="354.333" y="651.667"/>
      <point x="467" y="651.667" type="curve" smooth="yes"/>
      <point x="503.667" y="651.667"/>
      <point x="537.667" y="646.667"/>
      <point x="571.667" y="636.667" type="curve"/>
      <point x="590" y="718" type="line"/>
      <point x="540" y="730"/>
      <point x="494" y="736"/>
      <point x="460" y="736" type="curve" smooth="yes"/>
      <point x="275.333" y="736"/>
      <point x="174.333" y="654"/>
      <point x="174.333" y="525" type="curve" smooth="yes"/>
      <point x="174.333" y="454"/>
      <point x="224.667" y="401"/>
      <point x="323.667" y="369" type="curve"/>
    </contour>
  </outline>
</glyph>
<glyph name="uni0299" format="2">
  <advance width="532"/>
  <unicode hex="0299"/>
  <outline>
    <contour>
      <point x="221.667" y="301.667" type="line"/>
      <point x="249.667" y="420.333" type="line"/>
      <point x="350.333" y="420.333" type="line" smooth="yes"/>
      <point x="389.333" y="420.333"/>
      <point x="434.667" y="412.333"/>
      <point x="434.667" y="374.333" type="curve" smooth="yes"/>
      <point x="434.667" y="312"/>
      <point x="371" y="301.667"/>
      <point x="317.333" y="301.667" type="curve" smooth="yes"/>
    </contour>
    <contour>
      <point x="171" y="81.6667" type="line"/>
      <point x="203.667" y="222" type="line"/>
      <point x="304.667" y="222" type="line" smooth="yes"/>
      <point x="352.667" y="222"/>
      <point x="405.333" y="216.667"/>
      <point x="405.333" y="162" type="curve" smooth="yes"/>
      <point x="405.333" y="92.3333"/>
      <point x="337.667" y="81.6667"/>
      <point x="276" y="81.6667" type="curve" smooth="yes"/>
    </contour>
    <contour>
      <point x="57.3333" y="0" type="line"/>
      <point x="301.333" y="0" type="line" smooth="yes"/>
      <point x="397.333" y="0"/>
      <point x="500.667" y="42.3333"/>
      <point x="500.667" y="176.667" type="curve" smooth="yes"/>
      <point x="500.667" y="227.667"/>
      <point x="466" y="256.667"/>
      <point x="417" y="272.333" type="curve"/>
      <point x="416.667" y="268.333" type="line"/>
      <point x="485" y="287"/>
      <point x="531" y="342.667"/>
      <point x="531" y="405" type="curve" smooth="yes"/>
      <point x="531" y="467.667"/>
      <point x="485" y="500"/>
      <point x="394" y="500" type="curve" smooth="yes"/>
      <point x="172.333" y="500" type="line"/>
    </contour>
  </outline>
</glyph>
<glyph name="uni029C" format="2">
  <advance width="542"/>
  <unicode hex="029C"/>
  <outline>
    <contour>
      <point x="484.333" y="0" type="line"/>
      <point x="599.333" y="500" type="line"/>
      <point x="501.667" y="500" type="line"/>
      <point x="455.333" y="298.333" type="line"/>
      <point x="224.333" y="298.333" type="line"/>
      <point x="270.667" y="500" type="line"/>
      <point x="173" y="500" type="line"/>
      <point x="58" y="0" type="line"/>
      <point x="155.667" y="0" type="line"/>
      <point x="206.333" y="218" type="line"/>
      <point x="437.333" y="218" type="line"/>
      <point x="386.667" y="0" type="line"/>
    </contour>
  </outline>
</glyph>
<glyph name="uni029F" format="2">
  <advance width="392"/>
  <unicode hex="029F"/>
  <outline>
    <contour>
      <point x="372" y="0" type="line"/>
      <point x="389.333" y="80" type="line"/>
      <point x="179.333" y="80" type="line"/>
      <point x="276" y="500" type="line"/>
      <point x="172" y="500" type="line"/>
      <point x="57" y="0" type="line"/>
    </contour>
  </outline>
</glyph>
<glyph name="uni02A0" format="2">
  <advance width="630"/>
  <unicode hex="02A0"/>
  <outline>
    <component base="q"/>
    <contour>
      <point x="647.667" y="444" type="line"/>
      <point x="662.667" y="507.667" type="line" smooth="yes"/>
      <point x="673.667" y="553.333"/>
      <point x="689" y="563.333"/>
      <point x="722.333" y="563.333" type="curve" smooth="yes"/>
      <point x="744" y="563.333"/>
      <point x="759" y="559.333"/>
      <point x="772" y="550.667" type="curve"/>
      <point x="789.667" y="629.333" type="line"/>
      <point x="776.667" y="638.333"/>
      <point x="751" y="644.333"/>
      <point x="719.333" y="644.333" type="curve" smooth="yes"/>
      <point x="629.667" y="644.333"/>
      <point x="577.333" y="596.333"/>
      <point x="557.333" y="506.333" type="curve" smooth="yes"/>
      <point x="543.667" y="444" type="line"/>
    </contour>
  </outline>
</glyph>
<glyph name="uni02A2" format="2">
  <advance width="489"/>
  <unicode hex="02A2"/>
  <outline>
    <component base="uni0295"/>
    <contour>
      <point x="492.333" y="214.667" type="line"/>
      <point x="509.333" y="287.667" type="line"/>
      <point x="156" y="287.667" type="line"/>
      <point x="139" y="214.667" type="line"/>
    </contour>
  </outline>
</glyph>
<glyph name="caron" format="2">
  <advance width="299"/>
  <unicode hex="02C7"/>
  <outline>
    <contour>
      <point x="478.667" y="773.333" type="line"/>
      <point x="415.333" y="773.333" type="line"/>
      <point x="303" y="663.333" type="line"/>
      <point x="242" y="773.333" type="line"/>
      <point x="178.667" y="773.333" type="line"/>
      <point x="229" y="600" type="line"/>
      <point x="349" y="600" type="line"/>
    </contour>
  </outline>
</glyph>
<glyph name="uni02D1" format="2">
  <advance width="372"/>
  <unicode hex="02D1"/>
  <outline>
    <contour>
      <point x="382" y="500" type="line"/>
      <point x="218.333" y="500" type="line"/>
      <point x="230.333" y="314.333" type="line"/>
      <point x="286.667" y="314.333" type="line"/>
    </contour>
  </outline>
</glyph>
<glyph name="ogonek" format="2">
  <advance width="202"/>
  <unicode hex="02DB"/>
  <outline>
    <contour>
      <point x="-44.3333" y="-158" type="curve" smooth="yes"/>
      <point x="-44.3333" y="-201"/>
      <point x="-10.3333" y="-223.333"/>
      <point x="36.3333" y="-223.333" type="curve"/>
      <point x="109.667" y="-219.333" type="line"/>
      <point x="127.333" y="-142.667" type="line"/>
      <point x="87" y="-146.667" type="line"/>
      <point x="61.6667" y="-146.333"/>
      <point x="56.3333" y="-138.333"/>
      <point x="56.3333" y="-125.667" type="curve" smooth="yes"/>
      <point x="56.3333" y="-85.3333"/>
      <point x="112" y="-23.3333"/>
      <point x="141.333" y="-0.333333" type="curve"/>
      <point x="68.6667" y="-0.333333" type="line"/>
      <point x="45.3333" y="-19.3333" type="line" smooth="yes"/>
      <point x="5.66667" y="-52"/>
      <point x="-44.3333" y="-106.333"/>
    </contour>
  </outline>
</glyph>
<glyph name="uni02DE" format="2">
  <advance width="180"/>
  <unicode hex="02DE"/>
  <outline>
    <contour>
      <point x="-31.3333" y="307" type="line"/>
      <point x="61.6667" y="348.667" type="line"/>
      <point x="56.3333" y="330.333" type="line" smooth="yes"/>
      <point x="48" y="302.667"/>
      <point x="43.3333" y="283.333"/>
      <point x="43.3333" y="266.667" type="curve" smooth="yes"/>
      <point x="43.3333" y="222"/>
      <point x="72.6667" y="196"/>
      <point x="129" y="196" type="curve" smooth="yes"/>
      <point x="186.333" y="196"/>
      <point x="227" y="240.333"/>
      <point x="242.333" y="306.667" type="curve"/>
      <point x="192.333" y="306.667" type="line"/>
      <point x="184.333" y="272.667"/>
      <point x="167" y="240.667"/>
      <point x="130.667" y="240.667" type="curve" smooth="yes"/>
      <point x="108.667" y="240.667"/>
      <point x="97.6667" y="250.667"/>
      <point x="97.6667" y="270.667" type="curve" smooth="yes"/>
      <point x="97.6667" y="276.667"/>
      <point x="98.6667" y="283.667"/>
      <point x="100.667" y="290.667" type="curve" smooth="yes"/>
      <point x="144" y="452" type="line"/>
      <point x="-34.3333" y="371.667" type="line"/>
    </contour>
  </outline>
</glyph>
<glyph name="uni02E5" format="2">
  <advance width="357"/>
  <unicode hex="02E5"/>
  <outline>
    <contour>
      <point x="312.333" y="0" type="line"/>
      <point x="479.333" y="722" type="line"/>
      <point x="188" y="722" type="line"/>
      <point x="170.667" y="646.667" type="line"/>
      <point x="372" y="646.667" type="line"/>
      <point x="223" y="0" type="line"/>
    </contour>
  </outline>
</glyph>
<glyph name="uni02E8" format="2">
  <advance width="369"/>
  <unicode hex="02E8"/>
  <outline>
    <contour>
      <point x="236.333" y="0" type="line"/>
      <point x="326.333" y="0" type="line"/>
      <point x="493.333" y="722" type="line"/>
      <point x="403.333" y="722" type="line"/>
    </contour>
    <contour>
      <point x="307.667" y="230.667" type="line"/>
      <point x="86.6667" y="230.667" type="line"/>
      <point x="68.6667" y="153.333" type="line"/>
      <point x="289.667" y="153.333" type="line"/>
    </contour>
  </outline>
</glyph>
<glyph name="uni0306" format="2">
  <advance width="1"/>
  <unicode hex="0306"/>
  <anchor x="-151" y="600" name="_top"/>
  <outline>
    <contour>
      <point x="-277" y="728" type="line"/>
      <point x="-279" y="719.333"/>
      <point x="-279.667" y="711.333"/>
      <point x="-279.667" y="706" type="curve" smooth="yes"/>
      <point x="-279.667" y="643"/>
      <point x="-231" y="600"/>
      <point x="-157.667" y="600" type="curve" smooth="yes"/>
      <point x="-80.3333" y="600"/>
      <point x="-11.6667" y="649.333"/>
      <point x="17.6667" y="728" type="curve"/>
      <point x="-35.6667" y="728" type="line"/>
      <point x="-47" y="694.667"/>
      <point x="-96.6667" y="669.333"/>
      <point x="-149" y="669.333" type="curve" smooth="yes"/>
      <point x="-194" y="669.333"/>
      <point x="-223.667" y="689"/>
      <point x="-223.667" y="718" type="curve" smooth="yes"/>
      <point x="-223.667" y="721.333"/>
      <point x="-223.333" y="725.333"/>
      <point x="-222.333" y="728" type="curve"/>
    </contour>
  </outline>
</glyph>
<glyph name="uni0307" format="2">
  <advance width="1"/>
  <unicode hex="0307"/>
  <anchor x="-156.333" y="600" name="_top"/>
  <anchor x="-129.667" y="750" name="mkmktop"/>
  <outline>
    <contour>
      <point x="-109" y="600" type="line"/>
      <point x="-84.3333" y="706.667" type="line"/>
      <point x="-181" y="706.667" type="line"/>
      <point x="-205.667" y="600" type="line"/>
    </contour>
  </outline>
</glyph>
<glyph name="uni0308" format="2">
  <unicode hex="0308"/>
  <anchor x="-146.333" y="600" name="_top"/>
  <anchor x="-117.667" y="763.333" name="mkmktop"/>
  <outline>
    <contour>
      <point x="-12.3333" y="600" type="line"/>
      <point x="12.3333" y="706.667" type="line"/>
      <point x="-84.3333" y="706.667" type="line"/>
      <point x="-109" y="600" type="line"/>
    </contour>
    <contour>
      <point x="-189" y="600" type="line"/>
      <point x="-164.333" y="706.667" type="line"/>
      <point x="-261" y="706.667" type="line"/>
      <point x="-285.667" y="600" type="line"/>
    </contour>
  </outline>
</glyph>
<glyph name="hookabovecomb" format="2">
  <unicode hex="0309"/>
  <outline>
    <contour>
      <point x="-170" y="491" type="curve" smooth="yes"/>
      <point x="-177" y="463.333" type="line"/>
      <point x="-93.6667" y="463.333" type="line"/>
      <point x="-91.6667" y="471.667" type="line" smooth="yes"/>
      <point x="-85.6667" y="494.333"/>
      <point x="-55.3333" y="518"/>
      <point x="-26.6667" y="535" type="curve" smooth="yes"/>
      <point x="14" y="559.333"/>
      <point x="48.6667" y="590"/>
      <point x="48.6667" y="636.333" type="curve" smooth="yes"/>
      <point x="48.6667" y="689"/>
      <point x="3.33333" y="722"/>
      <point x="-59.3333" y="722" type="curve" smooth="yes"/>
      <point x="-106.667" y="722"/>
      <point x="-153.667" y="708.667"/>
      <point x="-189" y="670.333" type="curve"/>
      <point x="-150.667" y="618.333" type="line"/>
      <point x="-130.333" y="640.667"/>
      <point x="-109.333" y="648.667"/>
      <point x="-88.6667" y="648.667" type="curve" smooth="yes"/>
      <point x="-63" y="648.667"/>
      <point x="-54.3333" y="636.333"/>
      <point x="-54.3333" y="620.333" type="curve" smooth="yes"/>
      <point x="-54.3333" y="594"/>
      <point x="-78.6667" y="574.667"/>
      <point x="-110.667" y="555.333" type="curve" smooth="yes"/>
      <point x="-139" y="537.667"/>
      <point x="-163.333" y="517"/>
    </contour>
  </outline>
</glyph>
<glyph name="uni030A" format="2">
  <unicode hex="030A"/>
  <anchor x="-151.333" y="696.667" name="_top"/>
  <anchor x="-98.6667" y="886.667" name="mkmktop"/>
  <outline>
    <contour>
      <point x="-251.333" y="694" type="curve" smooth="yes"/>
      <point x="-251.333" y="639.333"/>
      <point x="-212.333" y="598.667"/>
      <point x="-156.667" y="598.667" type="curve" smooth="yes"/>
      <point x="-82.3333" y="598.667"/>
      <point x="-10" y="668.333"/>
      <point x="-10" y="743" type="curve" smooth="yes"/>
      <point x="-10" y="797.667"/>
      <point x="-48" y="836"/>
      <point x="-103.333" y="836" type="curve" smooth="yes"/>
      <point x="-178" y="836"/>
      <point x="-251.333" y="767.667"/>
    </contour>
    <contour>
      <point x="-196" y="703" type="curve" smooth="yes"/>
      <point x="-196" y="741.333"/>
      <point x="-155.333" y="779.333"/>
      <point x="-118" y="779.333" type="curve" smooth="yes"/>
      <point x="-89.3333" y="779.333"/>
      <point x="-69.6667" y="758"/>
      <point x="-69.6667" y="730.667" type="curve" smooth="yes"/>
      <point x="-69.6667" y="691.333"/>
      <point x="-107.667" y="655.333"/>
      <point x="-146" y="655.333" type="curve" smooth="yes"/>
      <point x="-174.667" y="655.333"/>
      <point x="-196" y="676.333"/>
    </contour>
  </outline>
</glyph>
<glyph name="uni030B" format="2">
  <unicode hex="030B"/>
  <anchor x="-154.667" y="600" name="_top"/>
  <outline>
    <contour>
      <point x="19" y="784.333" type="line"/>
      <point x="-91" y="784.333" type="line"/>
      <point x="-205.333" y="600" type="line"/>
      <point x="-139.333" y="600" type="line"/>
    </contour>
    <contour>
      <point x="35.6667" y="785.333" type="line"/>
      <point x="-74.3333" y="785.333" type="line"/>
      <point x="-188.667" y="600" type="line"/>
      <point x="-122.667" y="600" type="line"/>
    </contour>
  </outline>
</glyph>
<glyph name="uni030F" format="2">
  <advance width="1"/>
  <unicode hex="030F"/>
  <anchor x="-110.667" y="600" name="_top"/>
  <outline>
    <contour>
      <point x="-158" y="600" type="line"/>
      <point x="-189" y="771" type="line"/>
      <point x="-289" y="771" type="line"/>
      <point x="-218" y="600" type="line"/>
    </contour>
    <contour>
      <point x="-8" y="600" type="line"/>
      <point x="-39" y="771" type="line"/>
      <point x="-139" y="771" type="line"/>
      <point x="-68" y="600" type="line"/>
    </contour>
  </outline>
</glyph>
<glyph name="uni031E" format="2">
  <unicode hex="031E"/>
  <outline>
    <contour>
      <point x="-78.6667" y="-163.333" type="line"/>
      <point x="-63" y="-91.6667" type="line"/>
      <point x="-330.333" y="-91.6667" type="line"/>
      <point x="-346" y="-163.333" type="line"/>
    </contour>
    <contour>
      <point x="-243" y="-143.333" type="line"/>
      <point x="-271.333" y="-266.333" type="line"/>
      <point x="-202" y="-266.333" type="line"/>
      <point x="-173.667" y="-143.333" type="line"/>
    </contour>
  </outline>
</glyph>
<glyph name="uni0326" format="2">
  <unicode hex="0326"/>
  <anchor x="-293.667" y="-60" name="_bottom"/>
  <outline>
    <contour>
      <point x="-213.333" y="-57" type="line"/>
      <point x="-343.333" y="-57" type="line"/>
      <point x="-458" y="-307" type="line"/>
      <point x="-384.667" y="-307" type="line"/>
    </contour>
  </outline>
</glyph>
<glyph name="macronbelowcomb" format="2">
  <unicode hex="0331"/>
  <anchor x="-264" y="-50" name="_bottom"/>
  <outline>
    <contour>
      <point x="-87.6667" y="-129" type="line"/>
      <point x="-73" y="-56.6667" type="line"/>
      <point x="-439.667" y="-56.6667" type="line"/>
      <point x="-455.333" y="-129" type="line"/>
    </contour>
  </outline>
</glyph>
<glyph name="uni033C" format="2">
  <unicode hex="033C"/>
  <outline>
    <contour>
      <point x="-171" y="-252" type="line"/>
      <point x="-160.667" y="-208.667"/>
      <point x="-156" y="-176"/>
      <point x="-156" y="-156.333" type="curve" smooth="yes"/>
      <point x="-156" y="-107.333"/>
      <point x="-184" y="-86.3333"/>
      <point x="-221.333" y="-86.3333" type="curve" smooth="yes"/>
      <point x="-269" y="-86.3333"/>
      <point x="-317" y="-121.333"/>
      <point x="-345" y="-170.333" type="curve"/>
      <point x="-322.667" y="-170.333" type="line"/>
      <point x="-333.333" y="-110.667"/>
      <point x="-362.333" y="-86.3333"/>
      <point x="-405.667" y="-86.3333" type="curve" smooth="yes"/>
      <point x="-450" y="-86.3333"/>
      <point x="-503.667" y="-114.333"/>
      <point x="-535" y="-252" type="curve"/>
      <point x="-517.667" y="-252" type="line"/>
      <point x="-478" y="-192.333"/>
      <point x="-445.333" y="-161"/>
      <point x="-409" y="-161" type="curve" smooth="yes"/>
      <point x="-383.333" y="-161"/>
      <point x="-375.333" y="-177.333"/>
      <point x="-360" y="-239" type="curve"/>
      <point x="-343.667" y="-239" type="line"/>
      <point x="-301.667" y="-177.333"/>
      <point x="-276" y="-161"/>
      <point x="-249.333" y="-161" type="curve" smooth="yes"/>
      <point x="-207.333" y="-161"/>
      <point x="-193.333" y="-201.667"/>
      <point x="-191" y="-252" type="curve"/>
    </contour>
  </outline>
</glyph>
<glyph name="tonos" format="2">
  <advance width="181"/>
  <unicode hex="0384"/>
  <anchor x="319.667" y="722" name="_tonosUP"/>
  <anchor x="139.667" y="512" name="_top"/>
  <outline>
    <contour>
      <point x="319.667" y="722" type="line"/>
      <point x="206.333" y="722" type="line"/>
      <point x="97.3333" y="512" type="line"/>
      <point x="179.333" y="512" type="line"/>
    </contour>
  </outline>
</glyph>
<glyph name="Theta" format="2">
  <advance width="754"/>
  <unicode hex="0398"/>
  <outline>
    <component base="O"/>
    <contour>
      <point x="627" y="325.333" type="line"/>
      <point x="648.667" y="420.667" type="line"/>
      <point x="315.333" y="420.667" type="line"/>
      <point x="293.667" y="325.333" type="line"/>
    </contour>
  </outline>
</glyph>
<glyph name="Xi" format="2">
  <advance width="669"/>
  <unicode hex="039E"/>
  <outline>
    <contour>
      <point x="749" y="607.667" type="line"/>
      <point x="776" y="722" type="line"/>
      <point x="228" y="722" type="line"/>
      <point x="201" y="607.667" type="line"/>
    </contour>
    <contour>
      <point x="580.667" y="313.333" type="line"/>
      <point x="607" y="427.667" type="line"/>
      <point x="260" y="427.667" type="line"/>
      <point x="233.667" y="313.333" type="line"/>
    </contour>
    <contour>
      <point x="609" y="0" type="line"/>
      <point x="635.333" y="114.333" type="line"/>
      <point x="87.3333" y="114.333" type="line"/>
      <point x="61" y="0" type="line"/>
    </contour>
  </outline>
</glyph>
<glyph name="Sigma" format="2">
  <advance width="626"/>
  <unicode hex="03A3"/>
  <outline>
    <contour>
      <point x="50" y="0" type="line"/>
      <point x="576" y="0" type="line"/>
      <point x="598.667" y="101.667" type="line"/>
      <point x="169.667" y="101.667" type="line"/>
      <point x="167" y="59" type="line"/>
      <point x="472" y="375" type="line"/>
      <point x="304" y="659" type="line"/>
      <point x="301.333" y="620.333" type="line"/>
      <point x="700.333" y="620.333" type="line"/>
      <point x="723" y="722" type="line"/>
      <point x="227" y="722" type="line"/>
      <point x="201" y="612" type="line"/>
      <point x="363" y="357" type="line"/>
      <point x="374.667" y="416.333" type="line"/>
      <point x="74.6667" y="111.333" type="line"/>
    </contour>
  </outline>
</glyph>
<glyph name="Omega" format="2">
  <advance width="801"/>
  <unicode hex="03A9"/>
  <outline>
    <contour>
      <point x="791" y="105" type="line"/>
      <point x="573" y="105" type="line"/>
      <point x="582.667" y="138.333" type="line"/>
      <point x="739.667" y="189.333"/>
      <point x="853.333" y="325.667"/>
      <point x="853.333" y="492.667" type="curve" smooth="yes"/>
      <point x="853.333" y="626.667"/>
      <point x="753" y="722.667"/>
      <point x="575.333" y="722.667" type="curve" smooth="yes"/>
      <point x="348" y="722.667"/>
      <point x="140" y="565.333"/>
      <point x="140" y="344.333" type="curve" smooth="yes"/>
      <point x="140" y="244"/>
      <point x="189.667" y="173.333"/>
      <point x="284.667" y="138.333" type="curve"/>
      <point x="279" y="105" type="line"/>
      <point x="60" y="105" type="line"/>
      <point x="36" y="0" type="line"/>
      <point x="347.333" y="0" type="line"/>
      <point x="372.667" y="169" type="line"/>
      <point x="301" y="202.667"/>
      <point x="270.333" y="257"/>
      <point x="270.333" y="326.667" type="curve" smooth="yes"/>
      <point x="270.333" y="497.667"/>
      <point x="372" y="621"/>
      <point x="542.333" y="621" type="curve" smooth="yes"/>
      <point x="662" y="621"/>
      <point x="717.333" y="560.667"/>
      <point x="717.333" y="478" type="curve" smooth="yes"/>
      <point x="717.333" y="352.333"/>
      <point x="642.667" y="219"/>
      <point x="507" y="169" type="curve"/>
      <point x="455.667" y="0" type="line"/>
      <point x="767" y="0" type="line"/>
    </contour>
  </outline>
</glyph>
<glyph name="alpha" format="2">
  <advance width="608"/>
  <unicode hex="03B1"/>
  <anchor x="283.333" y="-60" name="bottom"/>
  <anchor x="422.667" y="580" name="top"/>
  <outline>
    <contour>
      <point x="105" y="177" type="curve" smooth="yes"/>
      <point x="105" y="66.6667"/>
      <point x="163.667" y="-12.6667"/>
      <point x="285.333" y="-12.6667" type="curve" smooth="yes"/>
      <point x="348.333" y="-12.6667"/>
      <point x="416.667" y="25.3333"/>
      <point x="459" y="71.6667" type="curve"/>
      <point x="562.333" y="102.667" type="line"/>
      <point x="653.667" y="500" type="line"/>
      <point x="548.667" y="500" type="line"/>
      <point x="535.333" y="441.333" type="line"/>
      <point x="514.333" y="481.667"/>
      <point x="476" y="512.667"/>
      <point x="402.667" y="512.667" type="curve" smooth="yes"/>
      <point x="225.667" y="512.667"/>
      <point x="105" y="334.333"/>
    </contour>
    <contour>
      <point x="212.667" y="185.333" type="curve" smooth="yes"/>
      <point x="212.667" y="286.667"/>
      <point x="280.667" y="441.333"/>
      <point x="393.333" y="441.333" type="curve" smooth="yes"/>
      <point x="465.667" y="441.333"/>
      <point x="500.333" y="395"/>
      <point x="500.333" y="317.333" type="curve" smooth="yes"/>
      <point x="500.333" y="213.333"/>
      <point x="438.667" y="62"/>
      <point x="316.667" y="62" type="curve" smooth="yes"/>
      <point x="241" y="62"/>
      <point x="212.667" y="120"/>
    </contour>
    <contour>
      <point x="459" y="71.6667" type="line"/>
      <point x="459" y="20.3333"/>
      <point x="490.667" y="-11"/>
      <point x="548.333" y="-11" type="curve" smooth="yes"/>
      <point x="562.667" y="-11"/>
      <point x="577.667" y="-9"/>
      <point x="592.667" y="-3" type="curve"/>
      <point x="611.333" y="75.6667" type="line"/>
      <point x="606.333" y="73.6667"/>
      <point x="598.333" y="72.6667"/>
      <point x="591.333" y="72.6667" type="curve" smooth="yes"/>
      <point x="586.333" y="72.6667" type="line" smooth="yes"/>
      <point x="571.333" y="72.6667"/>
      <point x="561.333" y="80.6667"/>
      <point x="561.333" y="93.6667" type="curve"/>
      <point x="561.333" y="95.6667"/>
      <point x="561.333" y="99.6667"/>
      <point x="562.333" y="102.667" type="curve"/>
    </contour>
  </outline>
</glyph>
<glyph name="beta" format="2">
  <advance width="631"/>
  <unicode hex="03B2"/>
  <outline>
    <contour>
      <point x="459" y="651" type="curve" smooth="yes"/>
      <point x="519" y="651"/>
      <point x="559" y="613.333"/>
      <point x="559" y="557.333" type="curve" smooth="yes"/>
      <point x="559" y="485.667"/>
      <point x="493.333" y="406.333"/>
      <point x="433.333" y="406.333" type="curve" smooth="yes"/>
      <point x="360" y="406.333" type="line"/>
      <point x="341.667" y="325.667" type="line"/>
      <point x="409.667" y="325.667" type="line" smooth="yes"/>
      <point x="480.667" y="325.667"/>
      <point x="512.667" y="274.333"/>
      <point x="512.667" y="220.667" type="curve" smooth="yes"/>
      <point x="512.667" y="127"/>
      <point x="446.333" y="65.6667"/>
      <point x="352.333" y="65.6667" type="curve" smooth="yes"/>
      <point x="280.333" y="65.6667"/>
      <point x="232.667" y="107"/>
      <point x="232.667" y="174" type="curve" smooth="yes"/>
      <point x="232.667" y="184"/>
      <point x="233.667" y="193"/>
      <point x="234.667" y="199" type="curve"/>
      <point x="303" y="498.667" type="line" smooth="yes"/>
      <point x="324" y="591.333"/>
      <point x="382.667" y="651"/>
    </contour>
    <contour>
      <point x="474" y="734" type="curve" smooth="yes"/>
      <point x="330.333" y="734"/>
      <point x="235.667" y="660.333"/>
      <point x="206.667" y="532.667" type="curve" smooth="yes"/>
      <point x="39" y="-200" type="line"/>
      <point x="143.333" y="-200" type="line"/>
      <point x="212.333" y="101.667" type="line"/>
      <point x="157" y="101.667" type="line"/>
      <point x="182" y="30.6667"/>
      <point x="263.333" y="-12.6667"/>
      <point x="342.333" y="-12.6667" type="curve" smooth="yes"/>
      <point x="501.333" y="-12.6667"/>
      <point x="626.667" y="87"/>
      <point x="626.667" y="234" type="curve" smooth="yes"/>
      <point x="626.667" y="308"/>
      <point x="582.667" y="374.333"/>
      <point x="503.667" y="386.333" type="curve"/>
      <point x="499.667" y="369.333" type="line"/>
      <point x="605.667" y="401.333"/>
      <point x="666.333" y="485"/>
      <point x="666.333" y="568.667" type="curve" smooth="yes"/>
      <point x="666.333" y="663.333"/>
      <point x="588" y="734"/>
    </contour>
  </outline>
</glyph>
<glyph name="gamma" format="2">
  <advance width="551"/>
  <unicode hex="03B3"/>
  <outline>
    <contour>
      <point x="276.667" y="-75" type="line"/>
      <point x="648.667" y="500" type="line"/>
      <point x="537.667" y="500" type="line"/>
      <point x="286" y="104" type="line"/>
      <point x="327.667" y="104" type="line"/>
      <point x="252.667" y="465" type="line" smooth="yes"/>
      <point x="246.667" y="494"/>
      <point x="211.667" y="512.667"/>
      <point x="172.667" y="512.667" type="curve" smooth="yes"/>
      <point x="159.667" y="512.667"/>
      <point x="137.333" y="510.667"/>
      <point x="119.333" y="507.667" type="curve"/>
      <point x="100.333" y="426" type="line"/>
      <point x="106.333" y="427"/>
      <point x="113.333" y="427"/>
      <point x="119.333" y="427" type="curve"/>
      <point x="142.333" y="425"/>
      <point x="157.333" y="417"/>
      <point x="161.333" y="398" type="curve" smooth="yes"/>
      <point x="259.333" y="-75" type="line"/>
    </contour>
    <contour>
      <point x="241" y="48" type="line"/>
      <point x="185" y="-200" type="line"/>
      <point x="290.333" y="-200" type="line"/>
      <point x="344.333" y="42" type="line"/>
    </contour>
  </outline>
</glyph>
<glyph name="delta" format="2">
  <advance width="608"/>
  <unicode hex="03B4"/>
  <outline>
    <contour>
      <point x="438.333" y="440.333" type="line"/>
      <point x="480.333" y="411.333"/>
      <point x="509.333" y="347.333"/>
      <point x="509.333" y="286.333" type="curve" smooth="yes"/>
      <point x="509.333" y="186.667"/>
      <point x="431" y="66.3333"/>
      <point x="312.333" y="66.3333" type="curve" smooth="yes"/>
      <point x="241.667" y="66.3333"/>
      <point x="198.667" y="108.667"/>
      <point x="198.667" y="190" type="curve" smooth="yes"/>
      <point x="198.667" y="359.333"/>
      <point x="361" y="423.333"/>
      <point x="512" y="423.333" type="curve"/>
    </contour>
    <contour>
      <point x="215.333" y="651" type="line"/>
      <point x="386.667" y="490" type="line"/>
      <point x="219.667" y="460.333"/>
      <point x="88" y="369.333"/>
      <point x="88" y="185.667" type="curve" smooth="yes"/>
      <point x="88" y="72.6667"/>
      <point x="148" y="-12.6667"/>
      <point x="286" y="-12.6667" type="curve" smooth="yes"/>
      <point x="474.333" y="-12.6667"/>
      <point x="620" y="134"/>
      <point x="620" y="302.333" type="curve" smooth="yes"/>
      <point x="620" y="376.333"/>
      <point x="592" y="435.333"/>
      <point x="535.333" y="488.333" type="curve"/>
      <point x="364.333" y="655" type="line"/>
      <point x="641" y="655" type="line"/>
      <point x="660" y="734" type="line"/>
      <point x="234.333" y="734" type="line"/>
    </contour>
  </outline>
</glyph>
<glyph name="zeta" format="2">
  <advance width="472"/>
  <unicode hex="03B6"/>
  <outline>
    <contour>
      <point x="227.667" y="655" type="line"/>
      <point x="463" y="655" type="line"/>
      <point x="467" y="679" type="line"/>
      <point x="323" y="600"/>
      <point x="74" y="411"/>
      <point x="74" y="159" type="curve" smooth="yes"/>
      <point x="74" y="70"/>
      <point x="128" y="-3"/>
      <point x="215" y="-3" type="curve" smooth="yes"/>
      <point x="323" y="-3" type="line" smooth="yes"/>
      <point x="346" y="-3"/>
      <point x="356" y="-9"/>
      <point x="356" y="-22" type="curve" smooth="yes"/>
      <point x="356" y="-39"/>
      <point x="341" y="-71"/>
      <point x="333" y="-87" type="curve" smooth="yes"/>
      <point x="276" y="-200" type="line"/>
      <point x="365.667" y="-200" type="line"/>
      <point x="438.667" y="-56" type="line" smooth="yes"/>
      <point x="446.667" y="-40"/>
      <point x="453.667" y="-21"/>
      <point x="453.667" y="0" type="curve" smooth="yes"/>
      <point x="453.667" y="37.6667"/>
      <point x="431.667" y="84"/>
      <point x="371" y="84" type="curve" smooth="yes"/>
      <point x="258.667" y="84" type="line" smooth="yes"/>
      <point x="213.667" y="84"/>
      <point x="187.667" y="126"/>
      <point x="187.667" y="177" type="curve" smooth="yes"/>
      <point x="187.667" y="390"/>
      <point x="436.667" y="584"/>
      <point x="598.667" y="679" type="curve"/>
      <point x="611.667" y="734" type="line"/>
      <point x="246" y="734" type="line"/>
    </contour>
  </outline>
</glyph>
<glyph name="eta" format="2">
  <advance width="608"/>
  <unicode hex="03B7"/>
  <anchor x="305" y="-60" name="bottom"/>
  <anchor x="425" y="580" name="top"/>
  <outline>
    <contour>
      <point x="86.3333" y="0" type="line"/>
      <point x="191.333" y="0" type="line"/>
      <point x="262.667" y="308.333" type="line" smooth="yes"/>
      <point x="279.333" y="381.667"/>
      <point x="341.333" y="445.667"/>
      <point x="416.667" y="445.667" type="curve" smooth="yes"/>
      <point x="472.333" y="445.667"/>
      <point x="505.667" y="410.667"/>
      <point x="505.667" y="358.333" type="curve" smooth="yes"/>
      <point x="505.667" y="346.667"/>
      <point x="504" y="334"/>
      <point x="501" y="320.333" type="curve" smooth="yes"/>
      <point x="427.333" y="0" type="line"/>
      <point x="532.333" y="0" type="line"/>
      <point x="609" y="332.333" type="line" smooth="yes"/>
      <point x="614" y="353.667"/>
      <point x="616" y="373"/>
      <point x="616" y="389.333" type="curve" smooth="yes"/>
      <point x="616" y="471"/>
      <point x="565.667" y="512.667"/>
      <point x="468.333" y="512.667" type="curve" smooth="yes"/>
      <point x="398.333" y="512.667"/>
      <point x="337.667" y="484.667"/>
      <point x="292" y="435.667" type="curve"/>
      <point x="178.667" y="402.667" type="line"/>
    </contour>
    <contour>
      <point x="427.333" y="0" type="line"/>
      <point x="381.333" y="-200" type="line"/>
      <point x="486.333" y="-200" type="line"/>
      <point x="532.333" y="0" type="line"/>
    </contour>
    <contour>
      <point x="292" y="435.667" type="line"/>
      <point x="294" y="443.667"/>
      <point x="294" y="451.667"/>
      <point x="294" y="452.667" type="curve"/>
      <point x="294" y="491.667"/>
      <point x="264.333" y="512.667"/>
      <point x="212.333" y="512.667" type="curve" smooth="yes"/>
      <point x="195.333" y="512.667"/>
      <point x="168.667" y="510.667"/>
      <point x="149.667" y="504.667" type="curve"/>
      <point x="132" y="430.333" type="line"/>
      <point x="138" y="431.333"/>
      <point x="144.333" y="431.333"/>
      <point x="147.333" y="431.333" type="curve" smooth="yes"/>
      <point x="152" y="431.333" type="line" smooth="yes"/>
      <point x="166.667" y="431.333"/>
      <point x="178.667" y="423.667"/>
      <point x="178.667" y="402.667" type="curve"/>
    </contour>
  </outline>
</glyph>
<glyph name="theta" format="2">
  <advance width="593"/>
  <unicode hex="03B8"/>
  <outline>
    <contour>
      <point x="599.667" y="375" type="line" smooth="yes"/>
      <point x="613" y="434"/>
      <point x="629.333" y="515"/>
      <point x="629.333" y="574.333" type="curve" smooth="yes"/>
      <point x="629.333" y="659"/>
      <point x="596.333" y="734.667"/>
      <point x="462.333" y="734.667" type="curve" smooth="yes"/>
      <point x="273" y="734.667"/>
      <point x="217" y="585"/>
      <point x="181.333" y="435" type="curve" smooth="yes"/>
      <point x="167.333" y="375" type="line" smooth="yes"/>
      <point x="144.333" y="278"/>
      <point x="134" y="205"/>
      <point x="134" y="149.333" type="curve" smooth="yes"/>
      <point x="134" y="28"/>
      <point x="184" y="-12.6667"/>
      <point x="292.667" y="-12.6667" type="curve" smooth="yes"/>
      <point x="441.333" y="-12.6667"/>
      <point x="521.667" y="62.6667"/>
      <point x="585.667" y="316" type="curve"/>
    </contour>
    <contour>
      <point x="486" y="348" type="line" smooth="yes"/>
      <point x="435.333" y="129.667"/>
      <point x="388.667" y="63.6667"/>
      <point x="309.333" y="63.6667" type="curve" smooth="yes"/>
      <point x="264" y="63.6667"/>
      <point x="238.333" y="85.3333"/>
      <point x="238.333" y="160" type="curve" smooth="yes"/>
      <point x="238.333" y="202.333"/>
      <point x="247" y="261"/>
      <point x="267.333" y="348" type="curve" smooth="yes"/>
      <point x="280.333" y="403" type="line" smooth="yes"/>
      <point x="327.333" y="606.333"/>
      <point x="368.667" y="658.333"/>
      <point x="451.333" y="658.333" type="curve" smooth="yes"/>
      <point x="504" y="658.333"/>
      <point x="524.333" y="636.333"/>
      <point x="524.333" y="570.333" type="curve" smooth="yes"/>
      <point x="524.333" y="528.333"/>
      <point x="517" y="480"/>
      <point x="499" y="403" type="curve" smooth="yes"/>
    </contour>
    <contour>
      <point x="522" y="409.667" type="line"/>
      <point x="260" y="409.667" type="line"/>
      <point x="244.333" y="341.333" type="line"/>
      <point x="506.333" y="341.333" type="line"/>
    </contour>
  </outline>
</glyph>
<glyph name="kappa" format="2">
  <advance width="567"/>
  <unicode hex="03BA"/>
  <outline>
    <contour>
      <point x="300" y="500" type="line"/>
      <point x="196" y="500" type="line"/>
      <point x="81" y="0" type="line"/>
      <point x="185" y="0" type="line"/>
    </contour>
    <contour>
      <point x="300.667" y="273" type="line"/>
      <point x="421.667" y="0" type="line"/>
      <point x="541" y="0" type="line"/>
      <point x="392" y="332" type="line"/>
    </contour>
    <contour>
      <point x="214" y="164" type="line"/>
      <point x="648" y="500" type="line"/>
      <point x="505.667" y="500" type="line"/>
      <point x="242.333" y="296.667" type="line"/>
    </contour>
  </outline>
</glyph>
<glyph name="lambda" format="2">
  <advance width="551"/>
  <unicode hex="03BB"/>
  <outline>
    <contour>
      <point x="395" y="78" type="line" smooth="yes"/>
      <point x="403" y="31"/>
      <point x="413" y="-12.6667"/>
      <point x="476" y="-12.6667" type="curve" smooth="yes"/>
      <point x="496.667" y="-12.6667"/>
      <point x="521.333" y="-9.66667"/>
      <point x="540.333" y="-7.33333" type="curve"/>
      <point x="560.667" y="87.3333" type="line"/>
      <point x="516.667" y="87.3333"/>
      <point x="500" y="92.3333"/>
      <point x="497" y="110.333" type="curve" smooth="yes"/>
      <point x="414.333" y="619.333" type="line" smooth="yes"/>
      <point x="403.667" y="683"/>
      <point x="372" y="734.667"/>
      <point x="303" y="734.667" type="curve" smooth="yes"/>
      <point x="278" y="734.667"/>
      <point x="264" y="733.667"/>
      <point x="239" y="730.667" type="curve"/>
      <point x="215.667" y="633.333" type="line"/>
      <point x="229.667" y="635.333"/>
      <point x="255.667" y="636.333"/>
      <point x="266" y="636.333" type="curve" smooth="yes"/>
      <point x="293.667" y="636.333"/>
      <point x="303.667" y="628.667"/>
      <point x="307.667" y="605.667" type="curve" smooth="yes"/>
    </contour>
    <contour>
      <point x="339" y="507" type="line"/>
      <point x="19" y="0" type="line"/>
      <point x="131.667" y="0" type="line"/>
      <point x="377.667" y="397" type="line"/>
    </contour>
  </outline>
</glyph>
<glyph name="sigma" format="2">
  <advance width="608"/>
  <unicode hex="03C3"/>
  <outline>
    <component base="o"/>
    <contour>
      <point x="543" y="421" type="line"/>
      <point x="703.333" y="421" type="line"/>
      <point x="721.667" y="500" type="line"/>
      <point x="503" y="500" type="line"/>
    </contour>
  </outline>
</glyph>
<glyph name="chi" format="2">
  <advance width="562"/>
  <unicode hex="03C7"/>
  <outline>
    <contour>
      <point x="270.333" y="472" type="line" smooth="yes"/>
      <point x="261.333" y="499"/>
      <point x="234.333" y="512"/>
      <point x="194.333" y="512" type="curve" smooth="yes"/>
      <point x="175.333" y="512"/>
      <point x="149" y="509"/>
      <point x="128" y="502" type="curve"/>
      <point x="112" y="432" type="line"/>
      <point x="119" y="435"/>
      <point x="125" y="436"/>
      <point x="131" y="436" type="curve" smooth="yes"/>
      <point x="155" y="436"/>
      <point x="176" y="419"/>
      <point x="184" y="395" type="curve" smooth="yes"/>
      <point x="371" y="-176" type="line" smooth="yes"/>
      <point x="379" y="-201"/>
      <point x="414" y="-212"/>
      <point x="447" y="-212" type="curve" smooth="yes"/>
      <point x="464" y="-212"/>
      <point x="495.333" y="-209"/>
      <point x="513.333" y="-203" type="curve"/>
      <point x="529.333" y="-134" type="line"/>
      <point x="523.333" y="-135"/>
      <point x="517.333" y="-136"/>
      <point x="510.333" y="-136" type="curve" smooth="yes"/>
      <point x="490.333" y="-136"/>
      <point x="468" y="-129"/>
      <point x="461.333" y="-110" type="curve" smooth="yes"/>
    </contour>
    <contour>
      <point x="353.667" y="151" type="line"/>
      <point x="643.667" y="501" type="line"/>
      <point x="529.333" y="501" type="line"/>
      <point x="311.333" y="236" type="line"/>
    </contour>
    <contour>
      <point x="271.667" y="180.667" type="line"/>
      <point x="-39.6667" y="-200" type="line"/>
      <point x="69.6667" y="-200" type="line"/>
      <point x="303.667" y="89" type="line"/>
    </contour>
  </outline>
</glyph>
<glyph name="psi" format="2">
  <advance width="731"/>
  <unicode hex="03C8"/>
  <outline>
    <contour>
      <point x="700.667" y="185" type="curve" smooth="yes"/>
      <point x="773.667" y="503" type="line"/>
      <point x="671.333" y="503" type="line"/>
      <point x="594.333" y="171" type="line" smooth="yes"/>
      <point x="578.333" y="101"/>
      <point x="505.333" y="68"/>
      <point x="447" y="68" type="curve" smooth="yes"/>
      <point x="429.333" y="68"/>
      <point x="415.333" y="71"/>
      <point x="409.333" y="75" type="curve"/>
      <point x="422.333" y="42" type="line"/>
      <point x="577.333" y="722" type="line"/>
      <point x="476" y="722" type="line"/>
      <point x="321" y="42" type="line"/>
      <point x="350" y="73" type="line"/>
      <point x="339" y="69"/>
      <point x="325" y="67"/>
      <point x="313.333" y="67" type="curve" smooth="yes"/>
      <point x="272" y="67"/>
      <point x="203" y="92"/>
      <point x="203" y="151" type="curve" smooth="yes"/>
      <point x="203" y="158"/>
      <point x="203" y="164"/>
      <point x="205" y="171" type="curve"/>
      <point x="282" y="503" type="line"/>
      <point x="179.667" y="503" type="line"/>
      <point x="104.667" y="184" type="line" smooth="yes"/>
      <point x="100.667" y="166"/>
      <point x="98.6667" y="150"/>
      <point x="98.6667" y="136" type="curve" smooth="yes"/>
      <point x="98.6667" y="13"/>
      <point x="239" y="-11"/>
      <point x="354" y="-11" type="curve" smooth="yes"/>
      <point x="492" y="-11"/>
      <point x="663" y="23"/>
    </contour>
    <contour>
      <point x="311" y="4" type="line"/>
      <point x="266" y="-200" type="line"/>
      <point x="367.333" y="-200" type="line"/>
      <point x="412.333" y="4" type="line"/>
    </contour>
  </outline>
</glyph>
<glyph name="omega" format="2">
  <advance width="719"/>
  <unicode hex="03C9"/>
  <anchor x="488.333" y="580" name="top"/>
  <outline>
    <contour>
      <point x="73.3333" y="157" type="curve" smooth="yes"/>
      <point x="73.3333" y="61.6667"/>
      <point x="113.667" y="-12.6667"/>
      <point x="218.667" y="-12.6667" type="curve" smooth="yes"/>
      <point x="281.333" y="-12.6667"/>
      <point x="345" y="27.6667"/>
      <point x="377" y="76.3333" type="curve"/>
      <point x="373" y="76.3333" type="line"/>
      <point x="380.333" y="23"/>
      <point x="409.667" y="-12.6667"/>
      <point x="485.333" y="-12.6667" type="curve" smooth="yes"/>
      <point x="646.667" y="-12.6667"/>
      <point x="740.333" y="152.667"/>
      <point x="740.333" y="317" type="curve" smooth="yes"/>
      <point x="740.333" y="385"/>
      <point x="721.333" y="443"/>
      <point x="681.333" y="500" type="curve"/>
      <point x="566.333" y="500" type="line"/>
      <point x="611.333" y="451"/>
      <point x="634.333" y="381"/>
      <point x="634.333" y="314" type="curve" smooth="yes"/>
      <point x="634.333" y="203.667"/>
      <point x="588.667" y="66.6667"/>
      <point x="498" y="66.6667" type="curve" smooth="yes"/>
      <point x="462" y="66.6667"/>
      <point x="439.667" y="89"/>
      <point x="439.667" y="125.667" type="curve" smooth="yes"/>
      <point x="439.667" y="134"/>
      <point x="440.667" y="143"/>
      <point x="442.667" y="152" type="curve" smooth="yes"/>
      <point x="497.667" y="387" type="line"/>
      <point x="392.667" y="387" type="line"/>
      <point x="332.667" y="132" type="line" smooth="yes"/>
      <point x="322.667" y="91"/>
      <point x="286.333" y="66.6667"/>
      <point x="250.333" y="66.6667" type="curve" smooth="yes"/>
      <point x="203.333" y="66.6667"/>
      <point x="183.333" y="107.667"/>
      <point x="183.333" y="173" type="curve" smooth="yes"/>
      <point x="183.333" y="313"/>
      <point x="274.333" y="402"/>
      <point x="375.333" y="500" type="curve"/>
      <point x="263.667" y="500" type="line"/>
      <point x="146.667" y="402"/>
      <point x="73.3333" y="290"/>
    </contour>
  </outline>
</glyph>
<glyph name="uni03D0" format="2">
  <advance width="608"/>
  <unicode hex="03D0"/>
  <outline>
    <contour>
      <point x="490.333" y="640" type="curve" smooth="yes"/>
      <point x="530.333" y="640"/>
      <point x="553.333" y="615.667"/>
      <point x="553.333" y="579.667" type="curve" smooth="yes"/>
      <point x="553.333" y="527.667"/>
      <point x="502.667" y="473"/>
      <point x="456.667" y="451" type="curve"/>
      <point x="444.667" y="454"/>
      <point x="434" y="455"/>
      <point x="420" y="455" type="curve" smooth="yes"/>
      <point x="357" y="455"/>
      <point x="301" y="430.333"/>
      <point x="250" y="383.333" type="curve"/>
      <point x="287" y="497.333"/>
      <point x="355.333" y="640"/>
    </contour>
    <contour>
      <point x="382" y="379" type="curve" smooth="yes"/>
      <point x="454" y="379"/>
      <point x="489" y="329"/>
      <point x="489" y="255.333" type="curve" smooth="yes"/>
      <point x="489" y="162"/>
      <point x="417.333" y="62"/>
      <point x="315.333" y="62" type="curve" smooth="yes"/>
      <point x="259" y="62"/>
      <point x="210" y="101"/>
      <point x="210" y="169.333" type="curve" smooth="yes"/>
      <point x="210" y="287.667"/>
      <point x="282" y="379"/>
    </contour>
    <contour>
      <point x="103.667" y="179" type="curve" smooth="yes"/>
      <point x="103.667" y="79"/>
      <point x="150" y="-12"/>
      <point x="298" y="-12" type="curve" smooth="yes"/>
      <point x="465.667" y="-12"/>
      <point x="602.667" y="126"/>
      <point x="602.667" y="270.667" type="curve" smooth="yes"/>
      <point x="602.667" y="337"/>
      <point x="575" y="399.333"/>
      <point x="532" y="425" type="curve"/>
      <point x="601.333" y="459"/>
      <point x="664" y="538.333"/>
      <point x="664" y="609.667" type="curve" smooth="yes"/>
      <point x="664" y="690.333"/>
      <point x="587.667" y="725.333"/>
      <point x="503.667" y="725.333" type="curve" smooth="yes"/>
      <point x="257.333" y="725.333"/>
      <point x="103.667" y="384"/>
    </contour>
  </outline>
</glyph>
<glyph name="theta1" format="2">
  <advance width="581"/>
  <unicode hex="03D1"/>
  <outline>
    <contour>
      <point x="312" y="57.6667" type="curve" smooth="yes"/>
      <point x="248.333" y="57.6667"/>
      <point x="210.667" y="83.6667"/>
      <point x="210.667" y="138.667" type="curve" smooth="yes"/>
      <point x="210.667" y="147.667"/>
      <point x="211.667" y="155.667"/>
      <point x="213.667" y="162.667" type="curve"/>
      <point x="253" y="331" type="line"/>
      <point x="148.667" y="331" type="line"/>
      <point x="109" y="158.667" type="line"/>
      <point x="106" y="147.667"/>
      <point x="106" y="137.667"/>
      <point x="106" y="127.667" type="curve" smooth="yes"/>
      <point x="106" y="35.6667"/>
      <point x="172" y="-21"/>
      <point x="303" y="-21" type="curve" smooth="yes"/>
      <point x="540.667" y="-21"/>
      <point x="638.667" y="302"/>
      <point x="638.667" y="497" type="curve" smooth="yes"/>
      <point x="638.667" y="628"/>
      <point x="569.667" y="732"/>
      <point x="410" y="732" type="curve" smooth="yes"/>
      <point x="287" y="732"/>
      <point x="215.333" y="670.333"/>
      <point x="215.333" y="579" type="curve" smooth="yes"/>
      <point x="215.333" y="421.333"/>
      <point x="424.667" y="336.333"/>
      <point x="554.667" y="329.333" type="curve"/>
      <point x="561.667" y="391.333" type="line"/>
      <point x="481.667" y="402.333"/>
      <point x="319" y="451.333"/>
      <point x="319" y="565.667" type="curve" smooth="yes"/>
      <point x="319" y="609.333"/>
      <point x="343.667" y="650.333"/>
      <point x="404" y="650.333" type="curve" smooth="yes"/>
      <point x="480.667" y="650.333"/>
      <point x="533" y="584"/>
      <point x="533" y="467.333" type="curve" smooth="yes"/>
      <point x="533" y="323"/>
      <point x="453" y="57.6667"/>
    </contour>
  </outline>
</glyph>
<glyph name="Djecyr" format="2">
  <advance width="762"/>
  <unicode hex="0402"/>
  <outline>
    <component base="T"/>
    <contour>
      <point x="429.333" y="387.667" type="line"/>
      <point x="450.667" y="392.333"/>
      <point x="500" y="393.667"/>
      <point x="524.333" y="393.667" type="curve" smooth="yes"/>
      <point x="634.667" y="393.667"/>
      <point x="682" y="351"/>
      <point x="682" y="285.333" type="curve" smooth="yes"/>
      <point x="682" y="188.333"/>
      <point x="613.667" y="71.6667"/>
      <point x="456" y="45.6667" type="curve"/>
      <point x="456" y="-12.6667" type="line"/>
      <point x="672.333" y="16"/>
      <point x="802" y="149"/>
      <point x="802" y="287.667" type="curve" smooth="yes"/>
      <point x="802" y="388.333"/>
      <point x="714.667" y="452"/>
      <point x="546" y="452" type="curve" smooth="yes"/>
      <point x="514.333" y="452"/>
      <point x="458" y="450"/>
      <point x="429.333" y="446" type="curve"/>
    </contour>
  </outline>
</glyph>
<glyph name="uni0413" format="2">
  <advance width="528"/>
  <unicode hex="0413"/>
  <anchor x="453" y="800" name="top"/>
  <outline>
    <contour>
      <point x="641" y="625.667" type="line"/>
      <point x="663.333" y="722" type="line"/>
      <point x="230.333" y="722" type="line"/>
      <point x="63.3333" y="0" type="line"/>
      <point x="179" y="0" type="line"/>
      <point x="323.667" y="625.667" type="line"/>
    </contour>
  </outline>
</glyph>
<glyph name="uni0419" format="2">
  <advance width="683"/>
  <unicode hex="0419"/>
  <outline>
    <contour>
      <point x="52.6667" y="0" type="line"/>
      <point x="204.333" y="0" type="line"/>
      <point x="637" y="563" type="line"/>
      <point x="506.667" y="0" type="line"/>
      <point x="620.667" y="0" type="line"/>
      <point x="787.667" y="722" type="line"/>
      <point x="634.667" y="722" type="line"/>
      <point x="203.333" y="159.333" type="line"/>
      <point x="333.667" y="722" type="line"/>
      <point x="219.667" y="722" type="line"/>
    </contour>
    <contour>
      <point x="510" y="821.333" type="curve" smooth="yes"/>
      <point x="475.667" y="821.333"/>
      <point x="440" y="844.667"/>
      <point x="440.333" y="874.333" type="curve"/>
      <point x="377" y="874.333" type="line"/>
      <point x="369.667" y="804.333"/>
      <point x="417" y="746.667"/>
      <point x="492.333" y="746.667" type="curve" smooth="yes"/>
      <point x="568.333" y="746.667"/>
      <point x="641.667" y="805.333"/>
      <point x="667.667" y="874.333" type="curve"/>
      <point x="604.333" y="874.333" type="line"/>
      <point x="590.333" y="843.667"/>
      <point x="544.667" y="821.333"/>
    </contour>
  </outline>
</glyph>
<glyph name="uni041B" format="2">
  <advance width="687"/>
  <unicode hex="041B"/>
  <outline>
    <contour>
      <point x="409.333" y="625.333" type="line"/>
      <point x="677.333" y="625.333" type="line"/>
      <point x="533" y="0" type="line"/>
      <point x="648" y="0" type="line"/>
      <point x="815" y="722" type="line"/>
      <point x="313" y="722" type="line"/>
      <point x="243" y="418" type="line" smooth="yes"/>
      <point x="202" y="242"/>
      <point x="160" y="96.3333"/>
      <point x="73" y="96.3333" type="curve" smooth="yes"/>
      <point x="64.6667" y="96.3333"/>
      <point x="47.6667" y="97.3333"/>
      <point x="37.6667" y="102.333" type="curve"/>
      <point x="15" y="2" type="line"/>
      <point x="28" y="-4"/>
      <point x="47" y="-7"/>
      <point x="67.3333" y="-7" type="curve" smooth="yes"/>
      <point x="228" y="-7"/>
      <point x="295" y="129"/>
      <point x="356" y="394" type="curve" smooth="yes"/>
    </contour>
  </outline>
</glyph>
<glyph name="uni0426" format="2">
  <advance width="699"/>
  <unicode hex="0426"/>
  <outline>
    <contour>
      <point x="564.667" y="0" type="line"/>
      <point x="529.333" y="-152.333" type="line"/>
      <point x="641.333" y="-152.333" type="line"/>
      <point x="699.333" y="98" type="line"/>
      <point x="634.333" y="98" type="line"/>
      <point x="778.667" y="722" type="line"/>
      <point x="663" y="722" type="line"/>
      <point x="518.333" y="96.3333" type="line"/>
      <point x="194" y="96.3333" type="line"/>
      <point x="338.667" y="722" type="line"/>
      <point x="223" y="722" type="line"/>
      <point x="56" y="0" type="line"/>
    </contour>
  </outline>
</glyph>
<glyph name="uni0428" format="2">
  <advance width="858"/>
  <unicode hex="0428"/>
  <outline>
    <contour>
      <point x="399.667" y="98" type="line"/>
      <point x="211" y="98" type="line"/>
      <point x="355.333" y="722" type="line"/>
      <point x="239.667" y="722" type="line"/>
      <point x="72.6667" y="0" type="line"/>
      <point x="785.667" y="0" type="line"/>
      <point x="952.667" y="722" type="line"/>
      <point x="837" y="722" type="line"/>
      <point x="692.667" y="98" type="line"/>
      <point x="515.333" y="98" type="line"/>
      <point x="659.667" y="722" type="line"/>
      <point x="544" y="722" type="line"/>
    </contour>
  </outline>
</glyph>
<glyph name="uni0429" format="2">
  <advance width="886"/>
  <unicode hex="0429"/>
  <outline>
    <contour>
      <point x="738.667" y="0" type="line"/>
      <point x="703.333" y="-152.333" type="line"/>
      <point x="815.333" y="-152.333" type="line"/>
      <point x="873.333" y="98" type="line"/>
      <point x="808.333" y="98" type="line"/>
      <point x="952.667" y="722" type="line"/>
      <point x="837" y="722" type="line"/>
      <point x="692.667" y="98" type="line"/>
      <point x="515.333" y="98" type="line"/>
      <point x="659.667" y="722" type="line"/>
      <point x="544" y="722" type="line"/>
      <point x="399.667" y="98" type="line"/>
      <point x="211" y="98" type="line"/>
      <point x="355.333" y="722" type="line"/>
      <point x="239.667" y="722" type="line"/>
      <point x="72.6667" y="0" type="line"/>
    </contour>
  </outline>
</glyph>
<glyph name="uni042E" format="2">
  <advance width="935"/>
  <unicode hex="042E"/>
  <outline>
    <contour>
      <point x="976.667" y="372.667" type="curve" smooth="yes"/>
      <point x="1026" y="588.667"/>
      <point x="947" y="735.667"/>
      <point x="728.333" y="735.667" type="curve" smooth="yes"/>
      <point x="524.333" y="735.667"/>
      <point x="381" y="611.667"/>
      <point x="321.667" y="418.333" type="curve"/>
      <point x="267.667" y="418.333" type="line"/>
      <point x="338.333" y="722" type="line"/>
      <point x="222.667" y="722" type="line"/>
      <point x="55.6667" y="0" type="line"/>
      <point x="171.333" y="0" type="line"/>
      <point x="245" y="320.333" type="line"/>
      <point x="299.667" y="320.333" type="line"/>
      <point x="277.333" y="156.333"/>
      <point x="336.333" y="-14.6667"/>
      <point x="555.333" y="-14.6667" type="curve" smooth="yes"/>
      <point x="761.333" y="-14.6667"/>
      <point x="923.667" y="142"/>
    </contour>
    <contour>
      <point x="858.667" y="374.667" type="curve" smooth="yes"/>
      <point x="821.333" y="213.333"/>
      <point x="739" y="85.3333"/>
      <point x="578" y="85.3333" type="curve" smooth="yes"/>
      <point x="421.333" y="85.3333"/>
      <point x="392.667" y="211.333"/>
      <point x="430.333" y="375.667" type="curve" smooth="yes"/>
      <point x="470.667" y="551.333"/>
      <point x="562.333" y="638.667"/>
      <point x="705.667" y="638.667" type="curve" smooth="yes"/>
      <point x="864" y="638.667"/>
      <point x="894.667" y="534"/>
    </contour>
  </outline>
</glyph>
<glyph name="uni0432" format="2">
  <advance width="542"/>
  <unicode hex="0432"/>
  <outline>
    <contour>
      <point x="83.6667" y="162.667" type="curve" smooth="yes"/>
      <point x="83.6667" y="73.3333"/>
      <point x="128.333" y="-12.6667"/>
      <point x="257.667" y="-12.6667" type="curve" smooth="yes"/>
      <point x="419" y="-12.6667"/>
      <point x="515.333" y="50.6667"/>
      <point x="515.333" y="164.667" type="curve" smooth="yes"/>
      <point x="515.333" y="224.667"/>
      <point x="473.667" y="284.333"/>
      <point x="420.333" y="291.667" type="curve"/>
      <point x="432.667" y="278.667" type="line"/>
      <point x="422.333" y="264.667" type="line"/>
      <point x="495.667" y="278"/>
      <point x="544" y="331"/>
      <point x="544" y="394" type="curve" smooth="yes"/>
      <point x="544" y="470.333"/>
      <point x="466.667" y="512.667"/>
      <point x="370.667" y="512.667" type="curve" smooth="yes"/>
      <point x="194.667" y="512.667"/>
      <point x="83.6667" y="365.333"/>
    </contour>
    <contour>
      <point x="217.333" y="284.333" type="curve"/>
      <point x="242.333" y="379.333"/>
      <point x="276.667" y="437"/>
      <point x="360.667" y="437" type="curve" smooth="yes"/>
      <point x="401" y="437"/>
      <point x="435" y="413"/>
      <point x="435" y="380" type="curve" smooth="yes"/>
      <point x="435" y="324.333"/>
      <point x="393" y="307"/>
      <point x="340.667" y="307" type="curve" smooth="yes"/>
      <point x="309.333" y="307"/>
      <point x="255.667" y="298.667"/>
    </contour>
    <contour>
      <point x="191.333" y="138.333" type="curve" smooth="yes"/>
      <point x="191.333" y="160.333"/>
      <point x="191.333" y="171.667"/>
      <point x="202.333" y="208.667" type="curve"/>
      <point x="243" y="223"/>
      <point x="277.333" y="232"/>
      <point x="326.333" y="232" type="curve" smooth="yes"/>
      <point x="383.333" y="232"/>
      <point x="409.333" y="207.667"/>
      <point x="409.333" y="164.333" type="curve" smooth="yes"/>
      <point x="409.333" y="105"/>
      <point x="355.333" y="63"/>
      <point x="285.667" y="63" type="curve" smooth="yes"/>
      <point x="230.667" y="63"/>
      <point x="191.333" y="82"/>
    </contour>
  </outline>
  <guideline angle="90" x="82" y="0"/>
  <guideline angle="90" x="182" y="0"/>
  <guideline angle="0" x="0" y="512"/>
  <guideline angle="0" x="0" y="235"/>
  <guideline angle="0" x="0" y="300"/>
  <guideline angle="90" x="532" y="0"/>
  <guideline angle="90" x="503" y="0"/>
</glyph>
<glyph name="uni0434" format="2">
  <advance width="594"/>
  <unicode hex="0434"/>
  <outline>
    <contour>
      <point x="197" y="651.333" type="curve"/>
      <point x="222" y="722" type="line"/>
      <point x="372" y="702"/>
      <point x="601" y="656.333"/>
      <point x="601" y="357.333" type="curve" smooth="yes"/>
      <point x="601" y="334.667" type="line"/>
      <point x="490.667" y="334.667" type="line"/>
      <point x="490.667" y="384" type="line" smooth="yes"/>
      <point x="490.667" y="560.667"/>
      <point x="364.667" y="624.333"/>
    </contour>
    <contour>
      <point x="89.3333" y="183" type="curve" smooth="yes"/>
      <point x="89.3333" y="353"/>
      <point x="230" y="505.667"/>
      <point x="415" y="505.667" type="curve" smooth="yes"/>
      <point x="515.333" y="505.667"/>
      <point x="601" y="436.333"/>
      <point x="601" y="337.333" type="curve" smooth="yes"/>
      <point x="601" y="160.667"/>
      <point x="476" y="-12.6667"/>
      <point x="290.333" y="-12.6667" type="curve" smooth="yes"/>
      <point x="166" y="-12.6667"/>
      <point x="89.3333" y="58"/>
    </contour>
    <contour>
      <point x="199.667" y="184.333" type="curve" smooth="yes"/>
      <point x="199.667" y="112.667"/>
      <point x="232" y="59.3333"/>
      <point x="307.667" y="59.3333" type="curve" smooth="yes"/>
      <point x="431.667" y="59.3333"/>
      <point x="490.667" y="219.333"/>
      <point x="490.667" y="328.333" type="curve" smooth="yes"/>
      <point x="490.667" y="338.058"/>
      <point x="490.667" y="368.095"/>
      <point x="490.333" y="376.667" type="curve"/>
      <point x="474.333" y="412.667"/>
      <point x="442.333" y="433.333"/>
      <point x="396.667" y="433.333" type="curve" smooth="yes"/>
      <point x="273.333" y="433.333"/>
      <point x="199.667" y="293.333"/>
    </contour>
  </outline>
</glyph>
<glyph name="uni0439" format="2">
  <advance width="603"/>
  <unicode hex="0439"/>
  <outline>
    <component base="uni0438"/>
    <contour>
      <point x="420" y="668.667" type="curve" smooth="yes"/>
      <point x="378.667" y="668.667"/>
      <point x="340" y="698"/>
      <point x="342.333" y="728" type="curve"/>
      <point x="287.667" y="728" type="line"/>
      <point x="278.667" y="655.333"/>
      <point x="323.667" y="600"/>
      <point x="405" y="600" type="curve" smooth="yes"/>
      <point x="485" y="600"/>
      <point x="556" y="658.333"/>
      <point x="581.667" y="728" type="curve"/>
      <point x="527" y="728" type="line"/>
      <point x="515.333" y="697.333"/>
      <point x="462" y="668.667"/>
    </contour>
  </outline>
</glyph>
<glyph name="uni043A" format="2">
  <advance width="521"/>
  <unicode hex="043A"/>
  <outline>
    <contour>
      <point x="82" y="0" type="line"/>
      <point x="187" y="0" type="line"/>
      <point x="302.333" y="500" type="line"/>
      <point x="197.333" y="500" type="line"/>
    </contour>
    <contour>
      <point x="378" y="0" type="line"/>
      <point x="511.333" y="0" type="line"/>
      <point x="356.667" y="271.333" type="line"/>
      <point x="612.333" y="500" type="line"/>
      <point x="479.667" y="500" type="line"/>
      <point x="238.667" y="267.667" type="line"/>
    </contour>
  </outline>
</glyph>
<glyph name="uni043B" format="2">
  <advance width="573"/>
  <unicode hex="043B"/>
  <outline>
    <contour>
      <point x="40.3333" y="85.3333" type="curve"/>
      <point x="21" y="0" type="line"/>
      <point x="30" y="-3"/>
      <point x="61" y="-7"/>
      <point x="72" y="-7" type="curve" smooth="yes"/>
      <point x="189" y="-7"/>
      <point x="250" y="66.3333"/>
      <point x="311.333" y="327" type="curve" smooth="yes"/>
      <point x="334.333" y="425" type="line"/>
      <point x="491.667" y="425" type="line"/>
      <point x="400.667" y="0" type="line"/>
      <point x="506.333" y="0" type="line"/>
      <point x="613.333" y="500" type="line"/>
      <point x="246.333" y="500" type="line"/>
      <point x="217.333" y="372" type="line" smooth="yes"/>
      <point x="164.667" y="143"/>
      <point x="132" y="79.3333"/>
      <point x="72.3333" y="79.3333" type="curve" smooth="yes"/>
      <point x="65.3333" y="79.3333"/>
      <point x="46.3333" y="83.3333"/>
    </contour>
  </outline>
</glyph>
<glyph name="uni043C" format="2">
  <advance width="787"/>
  <unicode hex="043C"/>
  <outline>
    <contour>
      <point x="708.667" y="0" type="line"/>
      <point x="823.667" y="500" type="line"/>
      <point x="659" y="500" type="line"/>
      <point x="423.667" y="110.333" type="line"/>
      <point x="368.333" y="500" type="line"/>
      <point x="197" y="500" type="line"/>
      <point x="82" y="0" type="line"/>
      <point x="182" y="0" type="line"/>
      <point x="272.333" y="392" type="line"/>
      <point x="334" y="0" type="line"/>
      <point x="455.667" y="0" type="line"/>
      <point x="699.333" y="393" type="line"/>
      <point x="608.667" y="0" type="line"/>
    </contour>
  </outline>
</glyph>
<glyph name="uni043D" format="2">
  <advance width="613"/>
  <unicode hex="043D"/>
  <outline>
    <contour>
      <point x="534.667" y="0" type="line"/>
      <point x="649.667" y="500" type="line"/>
      <point x="544.333" y="500" type="line"/>
      <point x="498.667" y="301" type="line"/>
      <point x="256.333" y="301" type="line"/>
      <point x="302" y="500" type="line"/>
      <point x="197" y="500" type="line"/>
      <point x="82" y="0" type="line"/>
      <point x="187" y="0" type="line"/>
      <point x="239.667" y="227.333" type="line"/>
      <point x="482" y="227.333" type="line"/>
      <point x="429.333" y="0" type="line"/>
    </contour>
  </outline>
</glyph>
<glyph name="uni0449" format="2">
  <advance width="942"/>
  <unicode hex="0449"/>
  <outline>
    <contour>
      <point x="121.667" y="173.667" type="line" smooth="yes"/>
      <point x="116.667" y="151"/>
      <point x="114" y="130.667"/>
      <point x="114" y="112.333" type="curve" smooth="yes"/>
      <point x="114" y="29"/>
      <point x="165" y="-12.6667"/>
      <point x="262" y="-12.6667" type="curve" smooth="yes"/>
      <point x="336" y="-12.6667"/>
      <point x="392.667" y="20.3333"/>
      <point x="444" y="77.6667" type="curve"/>
      <point x="463" y="11.3333"/>
      <point x="501" y="-12.6667"/>
      <point x="586.333" y="-12.6667" type="curve" smooth="yes"/>
      <point x="654.667" y="-12.6667"/>
      <point x="712" y="7.33333"/>
      <point x="761.333" y="56.6667" type="curve"/>
      <point x="866" y="56.6667" type="line"/>
      <point x="960.667" y="500" type="line"/>
      <point x="855.667" y="500" type="line"/>
      <point x="787.333" y="188.333" type="line" smooth="yes"/>
      <point x="774.667" y="130.333"/>
      <point x="703.667" y="58.3333"/>
      <point x="632" y="58.3333" type="curve" smooth="yes"/>
      <point x="579.667" y="58.3333"/>
      <point x="552.333" y="96.3333"/>
      <point x="552.333" y="145" type="curve" smooth="yes"/>
      <point x="552.333" y="155"/>
      <point x="553.333" y="167"/>
      <point x="556.333" y="178" type="curve"/>
      <point x="631" y="500" type="line"/>
      <point x="526" y="500" type="line"/>
      <point x="453.667" y="188" type="line" smooth="yes"/>
      <point x="440.667" y="131.333"/>
      <point x="374" y="58.3333"/>
      <point x="299.333" y="58.3333" type="curve" smooth="yes"/>
      <point x="250" y="58.3333"/>
      <point x="223.333" y="90"/>
      <point x="223.333" y="138.667" type="curve" smooth="yes"/>
      <point x="223.333" y="150.667"/>
      <point x="225" y="164.333"/>
      <point x="228.667" y="178.667" type="curve" smooth="yes"/>
      <point x="302.667" y="500" type="line"/>
      <point x="197.667" y="500" type="line"/>
    </contour>
    <contour>
      <point x="818" y="-140" type="line"/>
      <point x="900.667" y="-140" type="line"/>
      <point x="952" y="82.6667" type="line"/>
      <point x="913" y="82.6667"/>
      <point x="883.333" y="90.3333"/>
      <point x="883.333" y="127.667" type="curve" smooth="yes"/>
      <point x="883.333" y="135"/>
      <point x="884.333" y="146"/>
      <point x="887.333" y="158" type="curve"/>
      <point x="787.333" y="158" type="line"/>
      <point x="766" y="56.6667" type="line"/>
      <point x="774" y="10"/>
      <point x="799" y="0"/>
      <point x="849" y="0" type="curve"/>
    </contour>
  </outline>
</glyph>
<glyph name="uni044C" format="2">
  <advance width="593"/>
  <unicode hex="044C"/>
  <outline>
    <contour>
      <point x="118.667" y="143.667" type="curve" smooth="yes"/>
      <point x="118.667" y="47.3333"/>
      <point x="189.333" y="-12.6667"/>
      <point x="311.333" y="-12.6667" type="curve" smooth="yes"/>
      <point x="470" y="-12.6667"/>
      <point x="602" y="89.3333"/>
      <point x="602" y="238.667" type="curve" smooth="yes"/>
      <point x="602" y="350.333"/>
      <point x="528" y="391"/>
      <point x="426" y="391" type="curve" smooth="yes"/>
      <point x="354.667" y="391"/>
      <point x="306.333" y="370.333"/>
      <point x="260.667" y="332.667" type="curve"/>
      <point x="299" y="500" type="line"/>
      <point x="194.667" y="500" type="line"/>
      <point x="125" y="196.333" type="line" smooth="yes"/>
      <point x="121" y="178"/>
      <point x="118.667" y="160"/>
    </contour>
    <contour>
      <point x="231.333" y="169.333" type="curve" smooth="yes"/>
      <point x="231.333" y="252.333"/>
      <point x="295" y="316"/>
      <point x="383.667" y="316" type="curve" smooth="yes"/>
      <point x="457.333" y="316"/>
      <point x="484.667" y="271.333"/>
      <point x="484.667" y="212.667" type="curve" smooth="yes"/>
      <point x="484.667" y="128.333"/>
      <point x="428.333" y="63"/>
      <point x="333.333" y="63" type="curve" smooth="yes"/>
      <point x="265" y="63"/>
      <point x="231.333" y="109.333"/>
    </contour>
  </outline>
</glyph>
<glyph name="uni044E" format="2">
  <advance width="804"/>
  <unicode hex="044E"/>
  <outline>
    <contour>
      <point x="86.3333" y="0" type="line"/>
      <point x="191.333" y="0" type="line"/>
      <point x="242.333" y="221.333" type="line"/>
      <point x="310" y="221.333" type="line"/>
      <point x="307" y="203.333"/>
      <point x="306" y="186.333"/>
      <point x="306" y="172.333" type="curve" smooth="yes"/>
      <point x="306" y="56.6667"/>
      <point x="373.333" y="-12.6667"/>
      <point x="498" y="-12.6667" type="curve" smooth="yes"/>
      <point x="691.667" y="-12.6667"/>
      <point x="819.333" y="155.667"/>
      <point x="819.333" y="326.333" type="curve" smooth="yes"/>
      <point x="819.333" y="438"/>
      <point x="764.333" y="512.667"/>
      <point x="629" y="512.667" type="curve" smooth="yes"/>
      <point x="483.333" y="512.667"/>
      <point x="373" y="425.667"/>
      <point x="330" y="299" type="curve"/>
      <point x="260.333" y="299" type="line"/>
      <point x="305.333" y="500" type="line"/>
      <point x="200.333" y="500" type="line"/>
    </contour>
    <contour>
      <point x="417" y="184" type="curve" smooth="yes"/>
      <point x="417" y="290"/>
      <point x="485.667" y="437.667"/>
      <point x="607.333" y="437.667" type="curve" smooth="yes"/>
      <point x="674.667" y="437.667"/>
      <point x="708.333" y="392.333"/>
      <point x="708.333" y="318.667" type="curve" smooth="yes"/>
      <point x="708.333" y="215.333"/>
      <point x="640.333" y="63.6667"/>
      <point x="518.667" y="63.6667" type="curve" smooth="yes"/>
      <point x="452" y="63.6667"/>
      <point x="417" y="108"/>
    </contour>
  </outline>
</glyph>
<glyph name="uni044F" format="2">
  <advance width="574"/>
  <unicode hex="044F"/>
  <outline>
    <contour>
      <point x="455" y="284.667" type="line"/>
      <point x="343" y="284.667" type="line" smooth="yes"/>
      <point x="293" y="284.667"/>
      <point x="269.667" y="300.667"/>
      <point x="269.667" y="337.333" type="curve" smooth="yes"/>
      <point x="269.667" y="388.667"/>
      <point x="314" y="420"/>
      <point x="368.667" y="420" type="curve" smooth="yes"/>
      <point x="486.333" y="420" type="line"/>
    </contour>
    <contour>
      <point x="59.6667" y="0" type="curve"/>
      <point x="174" y="0" type="line"/>
      <point x="191" y="35"/>
      <point x="201" y="58"/>
      <point x="218.333" y="113.333" type="curve" smooth="yes"/>
      <point x="242.333" y="193.667"/>
      <point x="259.667" y="204.667"/>
      <point x="318.333" y="204.667" type="curve" smooth="yes"/>
      <point x="436.667" y="204.667" type="line"/>
      <point x="389.667" y="0" type="line"/>
      <point x="494.667" y="0" type="line"/>
      <point x="607.667" y="500" type="line"/>
      <point x="368.333" y="500" type="line" smooth="yes"/>
      <point x="266" y="500"/>
      <point x="161.667" y="441.333"/>
      <point x="161.667" y="337.333" type="curve" smooth="yes"/>
      <point x="161.667" y="286.333"/>
      <point x="196.333" y="248.333"/>
      <point x="247.333" y="232" type="curve"/>
      <point x="242.333" y="238.667" type="line"/>
      <point x="247.667" y="245.667" type="line"/>
      <point x="192.333" y="232.667"/>
      <point x="145.333" y="207.333"/>
      <point x="123.333" y="139.667" type="curve" smooth="yes"/>
      <point x="108.333" y="92.6667"/>
      <point x="88" y="42.6667"/>
    </contour>
  </outline>
</glyph>
<glyph name="djecyr" format="2">
  <advance width="608"/>
  <unicode hex="0452"/>
  <outline>
    <component base="h"/>
    <component base="macron" xyScale="-2.25005e-18" xOffset="0.666667" yOffset="-63.3333"/>
    <contour>
      <point x="201.667" y="-144" type="line"/>
      <point x="226.333" y="-177.333"/>
      <point x="279.333" y="-200"/>
      <point x="337.667" y="-200" type="curve" smooth="yes"/>
      <point x="429" y="-200"/>
      <point x="498.333" y="-145.333"/>
      <point x="517.333" y="-62" type="curve" smooth="yes"/>
      <point x="531.333" y="0" type="line"/>
      <point x="426.333" y="0" type="line"/>
      <point x="414" y="-52" type="line" smooth="yes"/>
      <point x="404" y="-94.3333"/>
      <point x="375" y="-117.667"/>
      <point x="339.667" y="-117.667" type="curve" smooth="yes"/>
      <point x="313.333" y="-117.667"/>
      <point x="288.667" y="-105.667"/>
      <point x="274.667" y="-86" type="curve"/>
    </contour>
  </outline>
</glyph>
<glyph name="uni0454" format="2">
  <advance width="593"/>
  <unicode hex="0454"/>
  <outline>
    <contour>
      <point x="469.667" y="154.667" type="line"/>
      <point x="435.667" y="102.333"/>
      <point x="387" y="62.3333"/>
      <point x="323.333" y="62.3333" type="curve" smooth="yes"/>
      <point x="239" y="62.3333"/>
      <point x="210" y="128.667"/>
      <point x="219.333" y="211" type="curve"/>
      <point x="438" y="211" type="line"/>
      <point x="455.333" y="284.667" type="line"/>
      <point x="235.667" y="284.667" type="line"/>
      <point x="264.667" y="366.333"/>
      <point x="325.667" y="436.333"/>
      <point x="410.333" y="436.333" type="curve" smooth="yes"/>
      <point x="466" y="436.333"/>
      <point x="497" y="405"/>
      <point x="510.667" y="357.333" type="curve"/>
      <point x="623" y="357.333" type="line"/>
      <point x="609.667" y="454.333"/>
      <point x="531.667" y="510.333"/>
      <point x="427.667" y="510.333" type="curve" smooth="yes"/>
      <point x="280" y="510.333"/>
      <point x="155.333" y="414.333"/>
      <point x="117" y="248" type="curve" smooth="yes"/>
      <point x="78.6667" y="81"/>
      <point x="159" y="-14.3333"/>
      <point x="306.667" y="-14.3333" type="curve" smooth="yes"/>
      <point x="417" y="-14.3333"/>
      <point x="521.333" y="47"/>
      <point x="578.667" y="152.667" type="curve"/>
    </contour>
  </outline>
</glyph>
<glyph name="ljecyr" format="2">
  <advance width="910"/>
  <unicode hex="0459"/>
  <outline>
    <component base="uni044C" xOffset="317.667"/>
    <contour>
      <point x="40.3333" y="85.3333" type="curve"/>
      <point x="21" y="0" type="line"/>
      <point x="30" y="-3"/>
      <point x="61" y="-7"/>
      <point x="72" y="-7" type="curve" smooth="yes"/>
      <point x="189" y="-7"/>
      <point x="250" y="66.3333"/>
      <point x="311.333" y="327" type="curve" smooth="yes"/>
      <point x="334.333" y="425" type="line"/>
      <point x="493.667" y="425" type="line"/>
      <point x="446.667" y="219.333" type="line"/>
      <point x="551.667" y="219.333" type="line"/>
      <point x="615.333" y="500" type="line"/>
      <point x="246.333" y="500" type="line"/>
      <point x="217.333" y="372" type="line" smooth="yes"/>
      <point x="164.667" y="143"/>
      <point x="132" y="79.3333"/>
      <point x="72.3333" y="79.3333" type="curve" smooth="yes"/>
      <point x="65.3333" y="79.3333"/>
      <point x="46.3333" y="83.3333"/>
    </contour>
  </outline>
</glyph>
<glyph name="uni04E9" format="2">
  <advance width="616"/>
  <unicode hex="04E9"/>
  <anchor x="449" y="580" name="top"/>
  <outline>
    <component base="o"/>
    <contour>
      <point x="567.333" y="289.667" type="line"/>
      <point x="552.333" y="219.667" type="line"/>
      <point x="172.333" y="219.667" type="line"/>
      <point x="187.333" y="289.667" type="line"/>
    </contour>
  </outline>
</glyph>
<glyph name="uni1FED" format="2">
  <advance width="337"/>
  <unicode hex="1FED"/>
  <anchor x="298" y="580" name="_top"/>
  <outline>
    <contour>
      <point x="272.667" y="620" type="line"/>
      <point x="271" y="741.333" type="line"/>
      <point x="167.667" y="741.333" type="line"/>
      <point x="189.333" y="620" type="line"/>
    </contour>
    <contour>
      <point x="454.333" y="580" type="line"/>
      <point x="478.333" y="681.333" type="line"/>
      <point x="381.667" y="681.333" type="line"/>
      <point x="357.667" y="580" type="line"/>
    </contour>
    <contour>
      <point x="311" y="641.333" type="line"/>
      <point x="279.667" y="795.333" type="line"/>
      <point x="175.667" y="795.333" type="line"/>
      <point x="233.667" y="641.333" type="line"/>
    </contour>
  </outline>
</glyph>
<glyph name="dieresisacute" format="2">
  <advance width="339"/>
  <unicode hex="1FEE"/>
  <anchor x="300.333" y="580" name="_top"/>
  <outline>
    <contour>
      <point x="453.667" y="835.667" type="line"/>
      <point x="343" y="835.667" type="line"/>
      <point x="286" y="681.333" type="line"/>
      <point x="350" y="681.333" type="line"/>
    </contour>
    <contour>
      <point x="311.667" y="580" type="line"/>
      <point x="335.667" y="681.333" type="line"/>
      <point x="239" y="681.333" type="line"/>
      <point x="215" y="580" type="line"/>
    </contour>
    <contour>
      <point x="378.333" y="580" type="line"/>
      <point x="402.333" y="681.333" type="line"/>
      <point x="305.667" y="681.333" type="line"/>
      <point x="281.667" y="580" type="line"/>
    </contour>
  </outline>
</glyph>
<glyph name="uni2010" format="2">
  <advance width="319"/>
  <unicode hex="2010"/>
  <outline>
    <contour>
      <point x="249.333" y="242.667" type="line"/>
      <point x="344.333" y="284" type="line"/>
      <point x="201" y="327.667" type="line"/>
      <point x="106" y="286.333" type="line"/>
    </contour>
  </outline>
</glyph>
<glyph name="endash" format="2">
  <advance width="487"/>
  <unicode hex="2013"/>
  <outline>
    <contour>
      <point x="516.667" y="246" type="line"/>
      <point x="534.667" y="324.333" type="line"/>
      <point x="101.333" y="324.333" type="line"/>
      <point x="83.3333" y="246" type="line"/>
    </contour>
  </outline>
</glyph>
<glyph name="emdash" format="2">
  <advance width="720"/>
  <unicode hex="2014"/>
  <outline>
    <contour>
      <point x="750" y="246" type="line"/>
      <point x="768" y="324.333" type="line"/>
      <point x="101.333" y="324.333" type="line"/>
      <point x="83.3333" y="246" type="line"/>
    </contour>
  </outline>
</glyph>
<glyph name="quoteleft" format="2">
  <advance width="265"/>
  <unicode hex="2018"/>
  <outline>
    <contour>
      <point x="395.667" y="722" type="line"/>
      <point x="317.333" y="722" type="line"/>
      <point x="146" y="471.333" type="line"/>
      <point x="271.333" y="471.333" type="line"/>
    </contour>
  </outline>
</glyph>
<glyph name="quotesinglbase" format="2">
  <advance width="261"/>
  <unicode hex="201A"/>
  <outline>
    <contour>
      <point x="255" y="123" type="line"/>
      <point x="129.667" y="123" type="line"/>
      <point x="6" y="-127.667" type="line"/>
      <point x="84.3333" y="-127.667" type="line"/>
    </contour>
  </outline>
</glyph>
<glyph name="quotedblright" format="2">
  <advance width="449"/>
  <unicode hex="201D"/>
  <outline>
    <contour>
      <point x="460.667" y="722" type="line"/>
      <point x="335.333" y="722" type="line"/>
      <point x="211" y="471.333" type="line"/>
      <point x="289.333" y="471.333" type="line"/>
    </contour>
    <contour>
      <point x="515.667" y="722" type="line"/>
      <point x="390.333" y="722" type="line"/>
      <point x="266" y="471.333" type="line"/>
      <point x="344.333" y="471.333" type="line"/>
    </contour>
  </outline>
</glyph>
<glyph name="quotedblbase" format="2">
  <advance width="450"/>
  <unicode hex="201E"/>
  <outline>
    <contour>
      <point x="322" y="123" type="line"/>
      <point x="196.667" y="123" type="line"/>
      <point x="73" y="-127.667" type="line"/>
      <point x="151.333" y="-127.667" type="line"/>
    </contour>
    <contour>
      <point x="377" y="123" type="line"/>
      <point x="251.667" y="123" type="line"/>
      <point x="128" y="-127.667" type="line"/>
      <point x="206.333" y="-127.667" type="line"/>
    </contour>
  </outline>
</glyph>
<glyph name="daggerdbl" format="2">
  <advance width="554"/>
  <unicode hex="2021"/>
  <outline>
    <contour>
      <point x="521.333" y="62" type="line"/>
      <point x="540.333" y="144.667" type="line"/>
      <point x="358" y="144.667" type="line"/>
      <point x="421" y="417.333" type="line"/>
      <point x="603.333" y="417.333" type="line"/>
      <point x="622.333" y="500" type="line"/>
      <point x="440" y="500" type="line"/>
      <point x="492" y="722" type="line"/>
      <point x="396.667" y="722" type="line"/>
      <point x="344.667" y="500" type="line"/>
      <point x="162.333" y="500" type="line"/>
      <point x="143.333" y="417.333" type="line"/>
      <point x="325.667" y="417.333" type="line"/>
      <point x="262.667" y="144.667" type="line"/>
      <point x="80.3333" y="144.667" type="line"/>
      <point x="61.3333" y="62" type="line"/>
      <point x="243.667" y="62" type="line"/>
      <point x="192.667" y="-160" type="line"/>
      <point x="288" y="-160" type="line"/>
      <point x="339" y="62" type="line"/>
    </contour>
  </outline>
</glyph>
<glyph name="perthousand" format="2">
  <advance width="1362"/>
  <unicode hex="2030"/>
  <outline>
    <component base="percent"/>
    <contour>
      <point x="988.667" y="140" type="curve" smooth="yes"/>
      <point x="988.667" y="44.6667"/>
      <point x="1047.67" y="-4"/>
      <point x="1135.33" y="-4" type="curve" smooth="yes"/>
      <point x="1271.67" y="-4"/>
      <point x="1372.67" y="115.333"/>
      <point x="1372.67" y="240.667" type="curve" smooth="yes"/>
      <point x="1372.67" y="332"/>
      <point x="1318.33" y="387"/>
      <point x="1225.33" y="387" type="curve" smooth="yes"/>
      <point x="1089" y="387"/>
      <point x="988.667" y="265.333"/>
    </contour>
    <contour>
      <point x="1147.33" y="60.6667" type="curve" smooth="yes"/>
      <point x="1098.33" y="60.6667"/>
      <point x="1079" y="89.3333"/>
      <point x="1079" y="139.667" type="curve" smooth="yes"/>
      <point x="1079" y="211.667"/>
      <point x="1118.67" y="318.667"/>
      <point x="1212" y="318.667" type="curve" smooth="yes"/>
      <point x="1260.33" y="318.667"/>
      <point x="1279.33" y="289.333"/>
      <point x="1279.33" y="239" type="curve" smooth="yes"/>
      <point x="1279.33" y="166.333"/>
      <point x="1241" y="60.6667"/>
    </contour>
  </outline>
</glyph>
<glyph name="guilsinglright" format="2">
  <advance width="364"/>
  <unicode hex="203A"/>
  <outline>
    <contour>
      <point x="352.333" y="252" type="line"/>
      <point x="269.333" y="447" type="line"/>
      <point x="174" y="447" type="line"/>
      <point x="238.333" y="252" type="line"/>
      <point x="84" y="57" type="line"/>
      <point x="179.333" y="57" type="line"/>
    </contour>
  </outline>
</glyph>
<glyph name="trademark" format="2">
  <advance width="654"/>
  <unicode hex="2122"/>
  <outline>
    <contour>
      <point x="419" y="672.667" type="line"/>
      <point x="427.667" y="712" type="line"/>
      <point x="212.333" y="712" type="line"/>
      <point x="203.667" y="672.667" type="line"/>
      <point x="285.333" y="672.667" type="line"/>
      <point x="231" y="439" type="line"/>
      <point x="283" y="439" type="line"/>
      <point x="337.333" y="672.667" type="line"/>
    </contour>
    <contour>
      <point x="707.333" y="439" type="line"/>
      <point x="771" y="712.667" type="line"/>
      <point x="689.667" y="712.667" type="line"/>
      <point x="576.333" y="509.333" type="line"/>
      <point x="556.333" y="712.667" type="line"/>
      <point x="476.333" y="712.667" type="line"/>
      <point x="412.667" y="439" type="line"/>
      <point x="463.667" y="439" type="line"/>
      <point x="515.333" y="661" type="line"/>
      <point x="538.667" y="439" type="line"/>
      <point x="581.333" y="439" type="line"/>
      <point x="708.667" y="662.333" type="line"/>
      <point x="656.333" y="439" type="line"/>
    </contour>
  </outline>
</glyph>
<glyph name="uni0414.loclBGR" format="2">
  <advance width="711"/>
  <outline>
    <contour>
      <point x="220.333" y="97.6667" type="line"/>
      <point x="279.091" y="202.148"/>
      <point x="428.899" y="466.934"/>
      <point x="486.333" y="568" type="curve"/>
      <point x="496.933" y="466.355"/>
      <point x="525.165" y="191.883"/>
      <point x="535.333" y="97.6667" type="curve"/>
    </contour>
    <contour>
      <point x="654.333" y="-150.333" type="line"/>
      <point x="711.333" y="97.6667" type="line"/>
      <point x="656.333" y="97.6667" type="line"/>
      <point x="579.333" y="722" type="line"/>
      <point x="462.333" y="722" type="line"/>
      <point x="384.581" y="589.174"/>
      <point x="175.327" y="231.237"/>
      <point x="97" y="97.6667" type="curve"/>
      <point x="39.3333" y="97.6667" type="line"/>
      <point x="-18" y="-150.333" type="line"/>
      <point x="94" y="-150.333" type="line"/>
      <point x="128.333" y="0" type="line"/>
      <point x="577.333" y="0" type="line"/>
      <point x="543" y="-150.333" type="line"/>
    </contour>
  </outline>
</glyph>
<glyph name="uni0431.loclSRB" format="2">
  <advance width="597"/>
  <outline>
    <contour>
      <point x="100.667" y="174.667" type="curve" smooth="yes"/>
      <point x="100.667" y="63.6667"/>
      <point x="159.333" y="-14"/>
      <point x="285.667" y="-14" type="curve" smooth="yes"/>
      <point x="468" y="-14"/>
      <point x="614.333" y="148"/>
      <point x="614.333" y="318.333" type="curve" smooth="yes"/>
      <point x="614.333" y="432"/>
      <point x="548.333" y="511.667"/>
      <point x="436" y="511.667" type="curve" smooth="yes"/>
      <point x="362.667" y="511.667"/>
      <point x="287" y="482.667"/>
      <point x="227" y="410" type="curve"/>
      <point x="225.667" y="410.667" type="line"/>
      <point x="243.667" y="456"/>
      <point x="274.667" y="511.667"/>
      <point x="303.333" y="537.333" type="curve" smooth="yes"/>
      <point x="359" y="587.333"/>
      <point x="464" y="589.333"/>
      <point x="528" y="597.333" type="curve" smooth="yes"/>
      <point x="631.667" y="611"/>
      <point x="672.333" y="667"/>
      <point x="696.333" y="722" type="curve"/>
      <point x="586" y="722" type="line"/>
      <point x="572.667" y="696.667"/>
      <point x="510" y="691.333"/>
      <point x="453.333" y="681.333" type="curve" smooth="yes"/>
      <point x="218.667" y="640"/>
      <point x="100.667" y="397.333"/>
    </contour>
    <contour>
      <point x="401.333" y="440" type="curve" smooth="yes"/>
      <point x="476.667" y="440"/>
      <point x="505.333" y="388"/>
      <point x="505.333" y="320.333" type="curve" smooth="yes"/>
      <point x="505.333" y="210.333"/>
      <point x="428.667" y="57.6667"/>
      <point x="305.667" y="57.6667" type="curve" smooth="yes"/>
      <point x="233.667" y="57.6667"/>
      <point x="209.667" y="109.667"/>
      <point x="209.667" y="177" type="curve" smooth="yes"/>
      <point x="209.667" y="287.667"/>
      <point x="273.667" y="440"/>
    </contour>
  </outline>
</glyph>
